<?xml version="1.0" encoding="utf-8"?>
<!-- Generator: Adobe Illustrator 19.0.0, SVG Export Plug-In . SVG Version: 6.00 Build 0)  -->
<svg version="1.1" id="Layer_1" xmlns="http://www.w3.org/2000/svg" xmlns:xlink="http://www.w3.org/1999/xlink" x="0px" y="0px"
	 viewBox="0 0 60 60" style="enable-background:new 0 0 60 60;" xml:space="preserve">
<style type="text/css">
	.st0{fill:#FFFFFF;}
</style>
<g id="XMLID_28_">
	<path id="XMLID_29_" class="st0" d="M40,27.5c-1.1,0-1.9,0.3-2.5,0.9c-0.6,0.6-1,1.4-1.1,2.5h7.2v0c-0.1-1.1-0.4-1.9-1.1-2.5
		C41.8,27.8,40.9,27.5,40,27.5z"/>
	<path id="XMLID_33_" class="st0" d="M24.3,31.7c-0.5-0.2-1.3-0.4-2.2-0.4h-4.8v5.9H22c1,0,1.7-0.1,2.3-0.4c1-0.5,1.5-1.4,1.5-2.8
		C25.7,32.9,25.2,32.1,24.3,31.7z"/>
	<path id="XMLID_34_" class="st0" d="M24.3,27.1c0.6-0.4,0.9-1,0.9-2c0-1-0.4-1.7-1.2-2.1c-0.7-0.2-1.6-0.3-2.6-0.3h-4.1v4.9H22
		C22.9,27.6,23.7,27.5,24.3,27.1z"/>
	<path id="XMLID_38_" class="st0" d="M59.9,27.6C58.8,13,47,1.2,32.4,0.1C14-1.4-1.4,14,0.1,32.4C1.2,47,13,58.8,27.6,59.9
		C46,61.4,61.4,46.1,59.9,27.6z M29.4,38c-0.4,0.7-0.9,1.3-1.6,1.7c-0.7,0.5-1.5,0.9-2.5,1.1c-1,0.2-2,0.3-3.1,0.3h-10V18.9h10.7
		c2.7,0,4.6,0.8,5.8,2.4c0.7,0.9,1,2.1,1,3.4c0,1.4-0.3,2.4-1,3.3c-0.4,0.5-0.9,0.9-1.7,1.3c1.1,0.4,2,1.1,2.6,2
		c0.6,0.9,0.9,2,0.9,3.3C30.4,35.7,30,36.9,29.4,38z M35.4,19.8h9V22h0h-8.9V19.8z M47.9,33.6H36.3c0.1,1.6,0.6,2.7,1.7,3.4
		c0.6,0.4,1.4,0.6,2.3,0.6c0.9,0,1.7-0.2,2.3-0.7c0.3-0.3,0.6-0.6,0.9-1.1h4.2c-0.1,0.9-0.6,1.9-1.5,2.9c-1.4,1.5-3.4,2.3-6,2.3
		c-2.1,0-4-0.7-5.6-2c-1.6-1.3-2.4-3.4-2.4-6.4c0-2.8,0.7-4.9,2.2-6.3c1.5-1.5,3.4-2.2,5.7-2.2c1.4,0,2.6,0.2,3.7,0.7
		c1.1,0.5,2,1.3,2.7,2.4c0.7,0.9,1.1,2,1.3,3.3C47.8,31.2,47.9,32.3,47.9,33.6z"/>
</g>
</svg>
