<?xml version="1.0" encoding="utf-8"?>
<!-- Generator: Adobe Illustrator 19.0.0, SVG Export Plug-In . SVG Version: 6.00 Build 0)  -->
<svg version="1.1" id="Layer_1" xmlns="http://www.w3.org/2000/svg" xmlns:xlink="http://www.w3.org/1999/xlink" x="0px" y="0px"
	 viewBox="0 0 60 60" style="enable-background:new 0 0 60 60;" xml:space="preserve">
<style type="text/css">
	.st0{fill:#FFFFFF;}
</style>
<path id="XMLID_30_" class="st0" d="M59.9,27.6C58.8,13,47,1.2,32.4,0.1C14-1.4-1.4,14,0.1,32.4C1.2,47,13,58.8,27.6,59.9
	C46,61.4,61.4,46.1,59.9,27.6z M12.1,30c0-2.6,0.6-5.1,1.6-7.3l8.5,23.4C16.2,43.2,12.1,37.1,12.1,30z M30,47.9
	c-1.8,0-3.5-0.3-5.1-0.7l5.4-15.6l5.5,15.1l0.1,0.2C34.1,47.5,32.1,47.9,30,47.9z M32.5,21.6c1.1-0.1,2-0.2,2-0.2
	c1-0.1,0.8-1.5-0.1-1.5h-9.5c-1-0.1-1.1,1.4-0.1,1.5c0,0,0.9,0.1,1.9,0.2l2.8,7.6L25.6,41L19,21.6c1.1-0.1,2-0.2,2-0.2
	c1-0.1,0.9-1.5-0.1-1.5c0,0-4.4,0-5.8,0c3.2-4.7,8.6-7.8,14.8-7.8c4.7,0,8.9,1.8,12.1,4.7l-0.2,0c-1.8,0-3,1.5-3,3.2
	c0,1.5,0.8,2.7,1.8,4.2c0.7,1.2,1.5,2.7,1.5,4.9c0,1.5-0.5,3.5-1.4,5.8l-1.8,6L32.5,21.6z M39,45.5l5.5-15.8c1-2.6,1.4-4.6,1.4-6.4
	c0-0.7,0-1.3-0.1-1.8c1.4,2.6,2.2,5.5,2.2,8.6C47.9,36.6,44.3,42.4,39,45.5z"/>
</svg>
