<?xml version="1.0" encoding="utf-8"?>
<!-- Generator: Adobe Illustrator 19.0.0, SVG Export Plug-In . SVG Version: 6.00 Build 0)  -->
<svg version="1.1" id="Layer_1" xmlns="http://www.w3.org/2000/svg" xmlns:xlink="http://www.w3.org/1999/xlink" x="0px" y="0px"
	 viewBox="-267 390.9 60 60" style="enable-background:new -267 390.9 60 60;" xml:space="preserve">
<style type="text/css">
	.st0{fill:#FFFFFF;}
</style>
<g>
	<path class="st0" d="M-207.1,418.5c-1.1-14.6-12.9-26.4-27.5-27.5c-18.4-1.5-33.8,13.9-32.3,32.3c1.1,14.6,12.9,26.4,27.5,27.5
		C-221,452.3-205.6,437-207.1,418.5z M-219.1,428.1c0,5.9-4.8,10.6-10.6,10.6h-14.4c-5.9,0-10.6-4.8-10.6-10.6v-14.4
		c0-5.9,4.8-10.6,10.6-10.6h14.4c5.9,0,10.6,4.8,10.6,10.6V428.1z"/>
	<circle class="st0" cx="-237" cy="420.9" r="5.6"/>
	<path class="st0" d="M-229.8,406.6h-14.4c-3.9,0-7,3.2-7,7v14.4c0,3.9,3.2,7,7,7h14.4c3.9,0,7-3.2,7-7v-14.4
		C-222.7,409.8-225.9,406.6-229.8,406.6z M-237,430.1c-5.1,0-9.2-4.1-9.2-9.2s4.1-9.2,9.2-9.2s9.2,4.1,9.2,9.2
		S-231.9,430.1-237,430.1z M-227.7,413.9c-1.2,0-2.2-1-2.2-2.2s1-2.2,2.2-2.2s2.2,1,2.2,2.2S-226.5,413.9-227.7,413.9z"/>
</g>
</svg>
