<?xml version="1.0" encoding="utf-8"?>
<!-- Generator: Adobe Illustrator 19.0.0, SVG Export Plug-In . SVG Version: 6.00 Build 0)  -->
<svg version="1.1" id="Layer_1" xmlns="http://www.w3.org/2000/svg" xmlns:xlink="http://www.w3.org/1999/xlink" x="0px" y="0px"
	 viewBox="0 0 60 60" style="enable-background:new 0 0 60 60;" xml:space="preserve">
<style type="text/css">
	.st0{fill:#FFFFFF;}
</style>
<g id="XMLID_28_">
	<path id="XMLID_29_" class="st0" d="M32.1,27.4L32.1,27.4C32.1,27.3,32.1,27.3,32.1,27.4L32.1,27.4z"/>
	<path id="XMLID_44_" class="st0" d="M59.9,27.6C58.8,13,47,1.2,32.4,0.1C14-1.4-1.4,14,0.1,32.4C1.2,47,13,58.8,27.6,59.9
		C46,61.4,61.4,46.1,59.9,27.6z M20.3,47.1h-7.7V24h7.7V47.1z M16.4,20.9L16.4,20.9c-2.6,0-4.3-1.8-4.3-4c0-2.3,1.7-4,4.3-4
		c2.6,0,4.2,1.7,4.3,4C20.8,19.1,19.1,20.9,16.4,20.9z M47.9,47.1h-7.7V34.7c0-3.1-1.1-5.2-3.9-5.2c-2.1,0-3.4,1.4-3.9,2.8
		c-0.2,0.5-0.3,1.2-0.3,1.9v12.9h-7.7c0,0,0.1-20.9,0-23h7.7v3.3c1-1.6,2.8-3.8,6.9-3.8c5,0,8.8,3.3,8.8,10.4V47.1z"/>
</g>
</svg>
