<?xml version="1.0" encoding="utf-8"?>
<!-- Generator: Adobe Illustrator 19.0.0, SVG Export Plug-In . SVG Version: 6.00 Build 0)  -->
<svg version="1.1" id="Capa_1" xmlns="http://www.w3.org/2000/svg" xmlns:xlink="http://www.w3.org/1999/xlink" x="0px" y="0px"
	 viewBox="66.3 164.9 297.4 512" style="enable-background:new 66.3 164.9 297.4 512;" xml:space="preserve">
<style type="text/css">
	.st0{fill:#FFFFFF;}
</style>
<g>
	<path class="st0" d="M329.1,164.9H100.9c-19,0-34.6,15.6-34.6,34.6v442.8c0,19,15.6,34.6,34.6,34.6h228.3c19,0,34.6-15.5,34.6-34.6
		V199.5C363.7,180.4,348.1,164.9,329.1,164.9z M178.5,189.8h73c2.3,0,4.2,1.9,4.2,4.2c0,2.3-1.9,4.2-4.2,4.2h-73
		c-2.3,0-4.2-1.9-4.2-4.2C174.3,191.7,176.2,189.8,178.5,189.8z M215,659.6c-9.6,0-17.3-7.7-17.3-17.3S205.4,625,215,625
		s17.3,7.7,17.3,17.3S224.6,659.6,215,659.6z M339.7,612.9H90.3V219.7h249.3V612.9z"/>
</g>
</svg>
