<?xml version="1.0" encoding="utf-8"?>
<!-- Generator: Adobe Illustrator 18.0.0, SVG Export Plug-In . SVG Version: 6.00 Build 0)  -->
<!DOCTYPE svg PUBLIC "-//W3C//DTD SVG 1.1//EN" "http://www.w3.org/Graphics/SVG/1.1/DTD/svg11.dtd">
<svg version="1.1" id="Layer_1" xmlns="http://www.w3.org/2000/svg" xmlns:xlink="http://www.w3.org/1999/xlink" x="0px" y="0px"
	 viewBox="0 0 143.1 44.4" enable-background="new 0 0 143.1 44.4" xml:space="preserve">
<g>
	<path fill="#FFFFFF" d="M13,20.2c-1.5-0.8-2.6-1.7-3.2-2.6c-0.9-1.3-1.4-2.9-1.4-4.6c0-2.8,1.3-5.2,4-7C14.5,4.7,17.2,4,20.7,4
		c4.5,0,7.9,0.9,10.1,2.6s3.3,3.9,3.3,6.5c0,1.5-0.4,3-1.3,4.3c-0.6,1-1.7,1.9-3.1,2.9c1.8,0.9,3.2,2,4.1,3.5
		c0.9,1.4,1.4,3.1,1.4,4.8c0,1.7-0.4,3.3-1.2,4.8c-0.8,1.5-1.7,2.6-2.9,3.4c-1.1,0.8-2.5,1.4-4.2,1.8c-1.7,0.4-3.5,0.6-5.4,0.6
		c-3.6,0-6.3-0.4-8.2-1.3S9.8,35.7,8.9,34s-1.5-3.5-1.5-5.5c0-2,0.5-3.7,1.4-5.1C9.7,22.1,11.1,21,13,20.2z M16.8,28.2
		c0,1.5,0.5,2.7,1.4,3.7c0.9,0.9,2,1.4,3.1,1.4c1.1,0,2.1-0.5,3-1.4c0.9-1,1.3-2.2,1.3-3.7c0-1.5-0.5-2.7-1.4-3.7
		c-0.9-1-1.9-1.4-3.1-1.4c-1.2,0-2.2,0.5-3.1,1.4S16.8,26.6,16.8,28.2z M17.3,13.6c0,1.2,0.4,2.1,1.1,2.8c0.7,0.7,1.7,1.1,2.9,1.1
		c1.1,0,2-0.4,2.7-1.1s1-1.6,1-2.8c0-1.2-0.4-2.1-1.1-2.9c-0.7-0.7-1.7-1.1-2.8-1.1c-1.1,0-2.1,0.4-2.8,1.1
		C17.6,11.5,17.3,12.4,17.3,13.6z"/>
	<path fill="#FFFFFF" d="M37.8,29.1H45v5.5c0,2-0.4,3.6-1.3,4.8c-0.8,1.2-2.3,2.2-4.3,3.1l-1.6-2.9c1.3-0.6,2.1-1.2,2.6-1.8
		c0.5-0.6,0.7-1.3,0.8-2.1h-3.4V29.1z"/>
	<path fill="#FFFFFF" d="M47.4,21.4c0-6.4,1.2-11,3.5-13.5C53.2,5.3,56.7,4,61.5,4c2.3,0,4.2,0.3,5.6,0.8c1.5,0.6,2.7,1.3,3.6,2.2
		c0.9,0.9,1.7,1.9,2.2,2.8c0.5,1,1,2.2,1.3,3.5c0.6,2.5,0.9,5.2,0.9,7.9c0,6.2-1,10.7-3.1,13.5c-2.1,2.9-5.7,4.3-10.8,4.3
		c-2.9,0-5.2-0.5-6.9-1.4c-1.8-0.9-3.2-2.2-4.3-4c-0.8-1.2-1.5-3-1.9-5.1C47.6,26.4,47.4,24,47.4,21.4z M56.7,21.4
		c0,4.3,0.4,7.3,1.1,8.8c0.8,1.6,1.9,2.4,3.3,2.4c1,0,1.8-0.3,2.5-1c0.7-0.7,1.2-1.7,1.5-3.2c0.3-1.4,0.5-3.7,0.5-6.8
		c0-4.5-0.4-7.5-1.1-9.1c-0.8-1.5-1.9-2.3-3.4-2.3c-1.6,0-2.7,0.8-3.4,2.4S56.7,17.1,56.7,21.4z"/>
	<path fill="#FFFFFF" d="M78.2,21.4c0-6.4,1.2-11,3.5-13.5C84,5.3,87.6,4,92.3,4c2.3,0,4.2,0.3,5.6,0.8s2.7,1.3,3.6,2.2
		c0.9,0.9,1.7,1.9,2.2,2.8s1,2.2,1.3,3.5c0.6,2.5,0.9,5.2,0.9,7.9c0,6.2-1,10.7-3.1,13.5S97.1,39,92,39c-2.9,0-5.2-0.5-6.9-1.4
		c-1.8-0.9-3.2-2.2-4.3-4c-0.8-1.2-1.5-3-1.9-5.1C78.4,26.4,78.2,24,78.2,21.4z M87.6,21.4c0,4.3,0.4,7.3,1.1,8.8
		c0.8,1.6,1.9,2.4,3.3,2.4c1,0,1.8-0.3,2.5-1s1.2-1.7,1.6-3.2c0.3-1.4,0.5-3.7,0.5-6.8c0-4.5-0.4-7.5-1.1-9.1s-1.9-2.3-3.4-2.3
		c-1.6,0-2.7,0.8-3.4,2.4C87.9,14.2,87.6,17.1,87.6,21.4z"/>
	<path fill="#FFFFFF" d="M109.1,21.4c0-6.4,1.2-11,3.5-13.5c2.3-2.6,5.9-3.9,10.6-3.9c2.3,0,4.2,0.3,5.6,0.8
		c1.5,0.6,2.7,1.3,3.6,2.2c0.9,0.9,1.7,1.9,2.2,2.8c0.5,1,1,2.2,1.3,3.5c0.6,2.5,0.9,5.2,0.9,7.9c0,6.2-1,10.7-3.1,13.5
		c-2.1,2.9-5.7,4.3-10.8,4.3c-2.9,0-5.2-0.5-6.9-1.4c-1.8-0.9-3.2-2.2-4.3-4c-0.8-1.2-1.5-3-1.9-5.1C109.3,26.4,109.1,24,109.1,21.4
		z M118.4,21.4c0,4.3,0.4,7.3,1.1,8.8c0.8,1.6,1.9,2.4,3.3,2.4c1,0,1.8-0.3,2.5-1c0.7-0.7,1.2-1.7,1.5-3.2c0.3-1.4,0.5-3.7,0.5-6.8
		c0-4.5-0.4-7.5-1.1-9.1c-0.8-1.5-1.9-2.3-3.4-2.3c-1.6,0-2.7,0.8-3.4,2.4S118.4,17.1,118.4,21.4z"/>
</g>
<g>
	<path fill="#CF121B" d="M12,18.2c-1.5-0.8-2.6-1.7-3.2-2.6c-0.9-1.3-1.4-2.9-1.4-4.6c0-2.8,1.3-5.2,4-7C13.5,2.7,16.2,2,19.7,2
		c4.5,0,7.9,0.9,10.1,2.6S33,8.5,33,11.1c0,1.5-0.4,3-1.3,4.3c-0.6,1-1.7,1.9-3.1,2.9c1.8,0.9,3.2,2,4.1,3.5
		c0.9,1.4,1.4,3.1,1.4,4.8c0,1.7-0.4,3.3-1.2,4.8c-0.8,1.5-1.7,2.6-2.9,3.4c-1.1,0.8-2.5,1.4-4.2,1.8c-1.7,0.4-3.5,0.6-5.4,0.6
		c-3.6,0-6.3-0.4-8.2-1.3S8.8,33.7,7.9,32s-1.5-3.5-1.5-5.5c0-2,0.5-3.7,1.4-5.1C8.7,20.1,10.1,19,12,18.2z M15.8,26.2
		c0,1.5,0.5,2.7,1.4,3.7c0.9,0.9,2,1.4,3.1,1.4c1.1,0,2.1-0.5,3-1.4c0.9-1,1.3-2.2,1.3-3.7c0-1.5-0.5-2.7-1.4-3.7
		c-0.9-1-1.9-1.4-3.1-1.4c-1.2,0-2.2,0.5-3.1,1.4S15.8,24.6,15.8,26.2z M16.3,11.6c0,1.2,0.4,2.1,1.1,2.8c0.7,0.7,1.7,1.1,2.9,1.1
		c1.1,0,2-0.4,2.7-1.1s1-1.6,1-2.8c0-1.2-0.4-2.1-1.1-2.9c-0.7-0.7-1.7-1.1-2.8-1.1c-1.1,0-2.1,0.4-2.8,1.1
		C16.6,9.5,16.3,10.4,16.3,11.6z"/>
	<path fill="#CF121B" d="M36.8,27.1H44v5.5c0,2-0.4,3.6-1.3,4.8c-0.8,1.2-2.3,2.2-4.3,3.1l-1.6-2.9c1.3-0.6,2.1-1.2,2.6-1.8
		c0.5-0.6,0.7-1.3,0.8-2.1h-3.4V27.1z"/>
	<path fill="#CF121B" d="M46.4,19.4c0-6.4,1.2-11,3.5-13.5C52.2,3.3,55.7,2,60.5,2c2.3,0,4.2,0.3,5.6,0.8c1.5,0.6,2.7,1.3,3.6,2.2
		c0.9,0.9,1.7,1.9,2.2,2.8c0.5,1,1,2.2,1.3,3.5c0.6,2.5,0.9,5.2,0.9,7.9c0,6.2-1,10.7-3.1,13.5c-2.1,2.9-5.7,4.3-10.8,4.3
		c-2.9,0-5.2-0.5-6.9-1.4c-1.8-0.9-3.2-2.2-4.3-4c-0.8-1.2-1.5-3-1.9-5.1C46.6,24.4,46.4,22,46.4,19.4z M55.7,19.4
		c0,4.3,0.4,7.3,1.1,8.8c0.8,1.6,1.9,2.4,3.3,2.4c1,0,1.8-0.3,2.5-1c0.7-0.7,1.2-1.7,1.5-3.2c0.3-1.4,0.5-3.7,0.5-6.8
		c0-4.5-0.4-7.5-1.1-9.1c-0.8-1.5-1.9-2.3-3.4-2.3c-1.6,0-2.7,0.8-3.4,2.4S55.7,15.1,55.7,19.4z"/>
	<path fill="#CF121B" d="M77.2,19.4c0-6.4,1.2-11,3.5-13.5C83,3.3,86.6,2,91.3,2c2.3,0,4.2,0.3,5.6,0.8s2.7,1.3,3.6,2.2
		c0.9,0.9,1.7,1.9,2.2,2.8s1,2.2,1.3,3.5c0.6,2.5,0.9,5.2,0.9,7.9c0,6.2-1,10.7-3.1,13.5S96.1,37,91,37c-2.9,0-5.2-0.5-6.9-1.4
		c-1.8-0.9-3.2-2.2-4.3-4c-0.8-1.2-1.5-3-1.9-5.1C77.4,24.4,77.2,22,77.2,19.4z M86.6,19.4c0,4.3,0.4,7.3,1.1,8.8
		c0.8,1.6,1.9,2.4,3.3,2.4c1,0,1.8-0.3,2.5-1s1.2-1.7,1.6-3.2c0.3-1.4,0.5-3.7,0.5-6.8c0-4.5-0.4-7.5-1.1-9.1S92.5,8.2,91,8.2
		c-1.6,0-2.7,0.8-3.4,2.4C86.9,12.2,86.6,15.1,86.6,19.4z"/>
	<path fill="#CF121B" d="M108.1,19.4c0-6.4,1.2-11,3.5-13.5c2.3-2.6,5.9-3.9,10.6-3.9c2.3,0,4.2,0.3,5.6,0.8
		c1.5,0.6,2.7,1.3,3.6,2.2c0.9,0.9,1.7,1.9,2.2,2.8c0.5,1,1,2.2,1.3,3.5c0.6,2.5,0.9,5.2,0.9,7.9c0,6.2-1,10.7-3.1,13.5
		c-2.1,2.9-5.7,4.3-10.8,4.3c-2.9,0-5.2-0.5-6.9-1.4c-1.8-0.9-3.2-2.2-4.3-4c-0.8-1.2-1.5-3-1.9-5.1C108.3,24.4,108.1,22,108.1,19.4
		z M117.4,19.4c0,4.3,0.4,7.3,1.1,8.8c0.8,1.6,1.9,2.4,3.3,2.4c1,0,1.8-0.3,2.5-1c0.7-0.7,1.2-1.7,1.5-3.2c0.3-1.4,0.5-3.7,0.5-6.8
		c0-4.5-0.4-7.5-1.1-9.1c-0.8-1.5-1.9-2.3-3.4-2.3c-1.6,0-2.7,0.8-3.4,2.4S117.4,15.1,117.4,19.4z"/>
</g>
</svg>
