<?xml version="1.0" encoding="utf-8"?>
<!-- Generator: Adobe Illustrator 18.0.0, SVG Export Plug-In . SVG Version: 6.00 Build 0)  -->
<!DOCTYPE svg PUBLIC "-//W3C//DTD SVG 1.1//EN" "http://www.w3.org/Graphics/SVG/1.1/DTD/svg11.dtd">
<svg version="1.1" id="Layer_1" xmlns="http://www.w3.org/2000/svg" xmlns:xlink="http://www.w3.org/1999/xlink" x="0px" y="0px"
	 viewBox="0 0 664.3 159.3" enable-background="new 0 0 664.3 159.3" xml:space="preserve">
<g>
	<g>
		<path d="M61.5,80c-0.8,0-1.6-0.5-1.9-1.3c-1.4-3.7-2.1-4.9-5.3-9c-0.4-0.5-0.6-1.3-0.3-1.9c0.2-0.7,0.8-1.1,1.5-1.3
			c7.7-1.5,12.1-3.1,16.6-6.1c7-4.6,9.4-9.1,10.2-19c0.3-3.2,0.4-6.4,0.4-13.3V18c0-4-0.1-5.6-0.4-7.3c-0.1-0.6,0.1-1.2,0.4-1.6
			c0.4-0.5,0.9-0.7,1.5-0.7h11.2c0.6,0,1.1,0.3,1.5,0.7c0.4,0.4,0.5,1,0.5,1.6c-0.3,1.8-0.4,2.6-0.4,7.2v10.9
			c-0.1,12.9-0.7,19.7-2.2,24.9c-2.5,8.5-8,15-16.8,19.9c-4.4,2.5-8.7,4.2-16.1,6.4C61.9,79.9,61.7,80,61.5,80z M48,48.8
			c-0.6,0-1.1-0.2-1.5-0.7c-0.4-0.4-0.6-1-0.5-1.6c0.2-1.9,0.4-4.4,0.4-7V17.4c0-4-0.1-5-0.3-7c-0.1-0.6,0.1-1.1,0.5-1.6
			c0.4-0.4,0.9-0.7,1.5-0.7c0,0,10.9,0.1,10.9,0.1c0.6,0,1.1,0.3,1.5,0.7c0.4,0.4,0.5,1,0.5,1.6c-0.3,2.1-0.3,2.8-0.3,7v22.2
			c0,4,0,4.9,0.3,6.8c0.1,0.6-0.1,1.2-0.5,1.6c-0.4,0.4-0.9,0.7-1.5,0.7H48z"/>
		<path fill="#FFFFFF" d="M48.1,10.2L59,10.3c-0.3,2.3-0.3,3-0.3,7.2v22.2c0,4,0,5.1,0.3,7.1H48c0.2-1.8,0.4-4.3,0.4-7.2V17.4
			C48.4,13.3,48.3,12.3,48.1,10.2 M95.5,10.3c-0.3,2-0.4,2.9-0.4,7.5v10.9C95.1,41.2,94.5,48,93.1,53c-2.3,8-7.5,14.1-15.8,18.7
			c-4.3,2.4-8.3,4-15.7,6.2c-1.4-3.9-2.3-5.3-5.6-9.6c7.9-1.5,12.5-3.2,17.4-6.4c7.6-5,10.2-9.9,11.1-20.5c0.3-3.5,0.4-7,0.4-13.4
			V18c0-4.1-0.1-5.8-0.4-7.6H95.5 M48.1,6.2c-1.1,0-2.2,0.5-3,1.3c-0.8,0.9-1.1,2-1,3.1c0.2,1.9,0.3,2.8,0.3,6.8v22.1
			c0,2.5-0.1,4.9-0.4,6.7c-0.1,1.1,0.2,2.3,1,3.2c0.8,0.9,1.9,1.4,3,1.4h11c1.2,0,2.3-0.5,3-1.4s1.1-2.1,0.9-3.2
			c-0.3-1.6-0.3-2.4-0.3-6.4V17.5c0-4.2,0-4.7,0.3-6.7c0.2-1.1-0.2-2.3-0.9-3.2c-0.8-0.9-1.8-1.4-3-1.4L48.1,6.2
			C48.1,6.2,48.1,6.2,48.1,6.2L48.1,6.2z M95.5,6.3H84.4c-1.2,0-2.3,0.5-3.1,1.4c-0.8,0.9-1.1,2.1-0.9,3.3c0.3,1.5,0.3,3,0.3,7V28
			c0,6.8-0.1,9.9-0.4,13.1c-0.8,9.5-2.8,13.2-9.3,17.5c-4.3,2.9-8.5,4.4-15.9,5.8c-1.4,0.3-2.5,1.2-3,2.5c-0.5,1.3-0.3,2.8,0.6,3.9
			c3.1,3.9,3.7,5,5,8.5c0.6,1.6,2.1,2.6,3.8,2.6c0.4,0,0.8-0.1,1.1-0.2c7.6-2.2,11.9-3.9,16.5-6.5c9.3-5.2,15.1-12.1,17.7-21.1
			c1.6-5.4,2.2-12.3,2.2-25.4l0-10.9c0-4.5,0.1-5.1,0.4-6.8c0.2-1.2-0.1-2.3-0.9-3.2C97.8,6.9,96.7,6.3,95.5,6.3L95.5,6.3z"/>
	</g>
	<g>
		<path d="M130.4,80.4c-0.7,0-1.4-0.4-1.7-1c-2.2-3.9-3.2-5.1-6.4-7.9c-0.5-0.5-0.8-1.1-0.7-1.8c0.1-0.7,0.6-1.3,1.2-1.5
			c7.9-3.3,12.3-5.6,17.2-9.2c10.3-7.7,17.5-17.6,21.9-30.3L141.5,29c-5,7.7-11.3,14.5-18.7,20.2c-0.4,0.3-0.8,0.4-1.2,0.4
			c-0.1,0-0.2,0-0.3,0c-0.5-0.1-1-0.4-1.3-0.8c-2.2-3-3.2-3.9-7.2-6.4c-0.6-0.4-0.9-1-1-1.7c0-0.7,0.3-1.3,0.9-1.7
			c9-6.2,14.5-12.3,20.2-22.6c2.5-4.5,3.6-7.4,3.9-9.9c0.1-0.6,0.4-1.1,0.8-1.4c0.3-0.3,0.8-0.4,1.2-0.4c0.1,0,0.3,0,0.4,0l11,2.2
			c0.7,0.1,1.2,0.6,1.5,1.2c0.3,0.6,0.2,1.3-0.2,1.9c-0.4,0.6-0.4,0.6-1.2,2.3c0,0,0,0.1-0.1,0.1c-0.2,0.3-0.2,0.3-0.9,2
			c0,0-0.9,1.7-0.9,1.7c0.2,0,0.4,0,0.5,0l17.6-0.2c3,0,3.6-0.1,5.2-0.7c0.2-0.1,0.4-0.1,0.7-0.1c0.5,0,1,0.2,1.4,0.6l5.1,5.1
			c0.7,0.7,0.8,1.7,0.3,2.5c-0.7,1-0.9,1.5-1.8,4.3c-3.8,12.7-9.7,23.7-16.9,31.8c-7.5,8.6-16.6,15-29.3,20.9
			C130.9,80.4,130.6,80.4,130.4,80.4z"/>
		<path fill="#FFFFFF" d="M138.7,6.7l11,2.2c-0.5,0.7-0.5,0.7-1.4,2.5c-0.2,0.4-0.2,0.4-1,2.3c-0.2,0.5-0.2,0.5-1,2.1
			c-0.5,1.1-0.5,1.1-1.3,2.6c1-0.1,2.3-0.2,3.9-0.2l17.6-0.2c3.1,0,4-0.2,5.9-0.8l5.1,5.1c-0.8,1.2-1.1,1.9-2,4.8
			c-3.7,12.2-9.4,23.1-16.5,31c-7.4,8.4-16.2,14.7-28.6,20.4c-2.3-4-3.3-5.4-6.8-8.4c8-3.3,12.5-5.7,17.6-9.5
			c11.5-8.5,19.1-19.5,23.5-33.9L140.4,27c-4.9,7.8-11.2,14.7-18.8,20.6c-2.4-3.3-3.6-4.3-7.8-6.9c9.2-6.3,15-12.7,20.8-23.3
			C137.1,12.8,138.4,9.6,138.7,6.7 M138.7,2.7c-0.8,0-1.7,0.3-2.4,0.8c-0.9,0.7-1.5,1.7-1.6,2.8c-0.2,2.2-1.3,4.8-3.6,9.1
			c-5.5,10-10.8,16-19.6,21.9c-1.1,0.8-1.8,2-1.7,3.4c0,1.4,0.7,2.6,1.9,3.3c3.8,2.3,4.6,3,6.7,5.9c0.6,0.9,1.6,1.4,2.7,1.6
			c0.2,0,0.4,0,0.6,0c0.9,0,1.7-0.3,2.4-0.8c7.3-5.6,13.6-12.3,18.6-19.8l16.4-0.3c-4.3,11.1-10.8,19.7-20.2,26.6
			c-4.8,3.5-9,5.8-16.7,9c-1.3,0.5-2.2,1.7-2.4,3.1s0.3,2.8,1.3,3.7c3.1,2.7,3.9,3.6,6,7.4c0.7,1.3,2.1,2,3.5,2
			c0.6,0,1.1-0.1,1.7-0.4c13-6,22.2-12.6,30-21.4c7.4-8.3,13.4-19.6,17.3-32.5c0.8-2.8,1-3,1.5-3.8c1.1-1.6,0.8-3.7-0.5-5.1
			l-5.1-5.1c-0.8-0.7-1.8-1.1-2.8-1.1c-0.4,0-0.9,0.1-1.3,0.2c-1.3,0.4-1.7,0.6-4.6,0.6c0,0,0,0-0.1,0l-14.9,0.2
			c0.1-0.3,0.2-0.5,0.2-0.5l0.1-0.1c0.1-0.1,0.1-0.2,0.2-0.3c0.8-1.5,0.8-1.5,1.1-2.1c0.7-1.1,0.9-2.5,0.4-3.8
			c-0.5-1.2-1.6-2.1-2.9-2.4l-11-2.2C139.2,2.7,139,2.7,138.7,2.7L138.7,2.7z"/>
	</g>
	<g>
		<path d="M222.9,79.2c-0.5,0-1.1-0.2-1.5-0.6l-5.1-5.5c-0.5-0.5-0.6-1.2-0.5-1.8c0.5-2.1,0.6-3.8,0.7-8.1l0.4-45.3v-2.4
			c0-2.1-0.1-3.7-0.3-5c-0.1-0.6,0.1-1.2,0.5-1.6c0.4-0.4,0.9-0.7,1.5-0.7c0,0,11,0.2,11,0.2c0.6,0,1.1,0.3,1.5,0.7
			c0.4,0.4,0.5,1,0.4,1.6c-0.4,2.2-0.5,3.5-0.5,7.3l-0.4,42.4c3.6-2,6.1-4.1,8.7-7.2c3.5-4.1,5.7-8.3,7.5-14
			c0.2-0.7,0.8-1.2,1.6-1.4c0.1,0,0.2,0,0.4,0c0.6,0,1.2,0.3,1.6,0.8c2.7,3.5,3.6,4.4,7.2,7.2c0.7,0.6,1,1.5,0.6,2.3
			c-3.4,8.1-7.7,14.5-13.3,19.5c-4.9,4.2-9.3,6.7-17.7,10c-1.5,0.6-2.2,0.8-3,1.2l-0.3,0.2C223.5,79.2,223.2,79.2,222.9,79.2z
			 M189.6,79.2c-0.6,0-1.1-0.3-1.4-0.8c-3.1-3.9-4.2-5-7.7-7.4c-0.5-0.4-0.8-0.9-0.9-1.6c0-0.6,0.2-1.2,0.7-1.6
			c3.8-3.1,5.5-5,7.9-8.8c5.6-8.9,7.3-18.8,7.3-41.1c0-4.4,0-5-0.3-7c-0.1-0.6,0.1-1.2,0.5-1.6c0.4-0.4,0.9-0.7,1.5-0.7
			c0,0,11,0.6,11,0.6c0.6,0,1.1,0.3,1.4,0.7c0.4,0.4,0.5,1,0.4,1.6c-0.3,2.1-0.3,2.1-0.8,17.8c-0.6,16.1-2.4,25.3-6.7,33.9
			c-2.8,5.7-6,10-11.5,15.4c-0.4,0.4-0.9,0.6-1.4,0.6C189.7,79.2,189.7,79.2,189.6,79.2z"/>
		<path fill="#FFFFFF" d="M218.6,10.2l10.9,0.2c-0.4,2.3-0.5,3.7-0.6,7.6l-0.4,45.7c5.6-2.7,8.8-5.1,12.3-9.2
			c3.7-4.3,6-8.8,7.9-14.7c2.8,3.6,3.9,4.7,7.6,7.6c-3.3,8-7.5,14-12.8,18.7c-4.6,3.9-8.8,6.4-17.1,9.6c-1.8,0.6-2.4,1-3.5,1.4
			l-5.1-5.5c0.6-2.3,0.6-4.1,0.7-8.5l0.4-45.3v-2.4C218.9,13.5,218.8,11.7,218.6,10.2 M197.2,10.7l10.9,0.6c-0.3,2.3-0.3,2.3-0.8,18
			c-0.6,15.7-2.3,24.8-6.5,33c-2.7,5.5-5.8,9.6-11.1,14.9c-3.1-4-4.3-5.2-8.1-7.8c3.9-3.2,5.9-5.4,8.3-9.2
			c5.8-9.2,7.6-19.6,7.6-42.1C197.6,13.6,197.6,12.9,197.2,10.7 M218.6,6.2c-1.2,0-2.3,0.5-3,1.4c-0.8,0.9-1.1,2.1-0.9,3.2
			c0.2,1.2,0.3,2.7,0.3,4.7v2.4l-0.4,45.3c-0.1,4.4-0.2,5.7-0.6,7.6c-0.3,1.3,0.1,2.7,1,3.7L220,80c0.8,0.8,1.8,1.3,2.9,1.3
			c0.6,0,1.1-0.1,1.7-0.4l0.3-0.2c0.8-0.4,1.4-0.6,2.8-1.2c0,0,0.1,0,0.1,0c8.6-3.4,13.2-6,18.3-10.3c0,0,0,0,0.1-0.1
			c5.8-5.2,10.3-11.8,13.8-20.2c0.7-1.7,0.2-3.6-1.2-4.7c-3.4-2.7-4.3-3.5-6.9-6.9c-0.8-1-1.9-1.5-3.2-1.5c-0.2,0-0.5,0-0.7,0.1
			c-1.5,0.3-2.7,1.3-3.1,2.7c-1.7,5.5-3.8,9.5-7.1,13.3c-1.7,2-3.3,3.5-5.2,4.9l0.3-38.8c0.1-3.9,0.2-5,0.5-7
			c0.2-1.2-0.1-2.3-0.9-3.2c-0.7-0.9-1.8-1.4-3-1.4L218.6,6.2C218.6,6.2,218.6,6.2,218.6,6.2L218.6,6.2z M197.2,6.7
			c-1.1,0-2.2,0.5-3,1.3c-0.8,0.9-1.2,2.1-1,3.3c0.3,1.8,0.3,2.3,0.3,6.7c0,21.8-1.7,31.5-7,40c-2.2,3.5-3.9,5.4-7.4,8.3
			c-1,0.8-1.5,2-1.5,3.3c0.1,1.3,0.7,2.4,1.7,3.1c3.3,2.3,4.3,3.2,7.2,7c0.7,0.9,1.8,1.5,2.9,1.5c0.1,0,0.2,0,0.3,0
			c1,0,2.1-0.4,2.8-1.2c5.6-5.5,8.9-10,11.9-16c4.5-8.8,6.3-18.2,6.9-34.7c0.5-15.6,0.5-15.6,0.8-17.6c0.2-1.1-0.2-2.2-0.9-3.1
			c-0.7-0.9-1.8-1.4-2.9-1.5l-10.9-0.6C197.4,6.7,197.3,6.7,197.2,6.7L197.2,6.7z"/>
	</g>
	<g>
		<path d="M340.3,50.4c-0.1,0-0.2,0-0.2,0c-3.1-0.4-3.8-0.4-12.9-0.4h-42.7c-9,0-9.8,0-12.9,0.4c-0.1,0-0.2,0-0.2,0
			c-0.5,0-1-0.2-1.3-0.5c-0.4-0.4-0.7-0.9-0.7-1.5V37.2c0-0.6,0.2-1.1,0.7-1.5c0.4-0.3,0.8-0.5,1.3-0.5c0.1,0,0.2,0,0.3,0
			c3.3,0.5,4.7,0.5,12.8,0.5h42.9c8.1,0,9.4-0.1,12.8-0.5c0.1,0,0.2,0,0.3,0c0.5,0,0.9,0.2,1.3,0.5c0.4,0.4,0.7,0.9,0.7,1.5v11.2
			c0,0.6-0.2,1.1-0.7,1.5C341.2,50.2,340.8,50.4,340.3,50.4z"/>
		<path fill="#FFFFFF" d="M340.3,37.2v11.2c-3.2-0.4-4.1-0.4-13.1-0.4h-42.7c-9,0-9.9,0-13.1,0.4V37.2c3.5,0.5,5.1,0.6,13,0.6h42.9
			C335.2,37.8,336.7,37.7,340.3,37.2 M340.3,33.2c-0.2,0-0.4,0-0.5,0c-3.2,0.4-4.6,0.5-12.5,0.5h-42.9c-7.9,0-9.3-0.1-12.5-0.5
			c-0.2,0-0.4,0-0.5,0c-1,0-1.9,0.3-2.6,1c-0.9,0.8-1.4,1.9-1.4,3v11.2c0,1.1,0.5,2.2,1.4,3c0.7,0.6,1.7,1,2.6,1c0.2,0,0.3,0,0.5,0
			c3-0.4,3.7-0.4,12.6-0.4h42.7c8.9,0,9.6,0,12.6,0.4c0.2,0,0.3,0,0.5,0c1,0,1.9-0.4,2.6-1c0.9-0.8,1.4-1.9,1.4-3V37.2
			c0-1.2-0.5-2.3-1.4-3C342.2,33.5,341.2,33.2,340.3,33.2L340.3,33.2z"/>
	</g>
	<g>
		<path d="M354.8,79.2c-0.6,0-1.1-0.3-1.5-0.7s-0.5-1-0.5-1.6c0.4-2.5,0.5-4.7,0.5-8.7V16.7c0-4-0.2-5.9-0.5-7.9
			c-0.1-0.6,0.1-1.2,0.5-1.6c0.4-0.4,0.9-0.7,1.5-0.7h11c0.6,0,1.1,0.2,1.5,0.7c0.4,0.4,0.6,1,0.5,1.6c-0.3,2.3-0.3,3.2-0.3,8.2
			v13.5c10.8,3.9,23,9.6,35.5,16.6c0.5,0.3,0.8,0.7,1,1.2c0.1,0.5,0.1,1.1-0.2,1.5l-5.6,9.5c-0.3,0.5-0.8,0.8-1.3,0.9
			c-0.1,0-0.3,0-0.4,0c-0.4,0-0.8-0.1-1.1-0.4c-6.8-4.7-15.1-9.1-27.8-15c0,0.6,0,1.3,0,2.1v21.2c0,4.1,0.1,6.1,0.3,8.7
			c0.1,0.6-0.1,1.1-0.5,1.5s-0.9,0.7-1.5,0.7H354.8z"/>
		<path fill="#FFFFFF" d="M365.8,8.5c-0.3,2.4-0.3,3.5-0.3,8.4v15c11,3.9,23.6,9.7,36.5,17l-5.6,9.5c-6.7-4.6-15-9.2-28.5-15.4
			c-1.8-0.9-2.1-1-2.7-1.4c0.2,2.3,0.3,3.2,0.3,5.5v21.2c0,4.2,0.1,6.3,0.3,8.9h-11c0.4-2.6,0.5-4.7,0.5-9V16.7c0-3.9-0.2-6-0.5-8.2
			H365.8 M365.8,4.5h-11c-1.2,0-2.3,0.5-3,1.4c-0.8,0.9-1.1,2-0.9,3.2c0.3,1.9,0.4,3.7,0.4,7.6v51.5c0,4.4-0.1,6.2-0.4,8.4
			c-0.2,1.2,0.2,2.3,0.9,3.2c0.8,0.9,1.9,1.4,3,1.4h11c1.1,0,2.2-0.5,3-1.3c0.8-0.8,1.1-1.9,1-3.1c-0.2-2.6-0.3-4.6-0.3-8.6V48.1
			c11,5.2,18.5,9.3,24.6,13.5c0.7,0.5,1.5,0.7,2.3,0.7c0.3,0,0.6,0,0.9-0.1c1.1-0.2,2-0.9,2.6-1.9l5.6-9.5c0.5-0.9,0.7-2,0.4-3.1
			c-0.3-1-1-1.9-1.9-2.5c-12-6.8-23.9-12.4-34.5-16.3V16.9c0-4.9,0-5.8,0.3-7.9c0.2-1.1-0.2-2.3-1-3.2C368.1,5,367,4.5,365.8,4.5
			L365.8,4.5z"/>
	</g>
	<g>
		<path d="M421.9,79c-0.7,0-1.3-0.3-1.7-0.9c-2.6-4-3.6-5.2-6.9-8.1c-0.5-0.4-0.7-1.1-0.7-1.7c0.1-0.7,0.5-1.2,1.1-1.5
			c9.8-5.2,16-11.1,20-19.4c2.1-4.3,3.2-8.1,3.9-13.4c0-0.1,0-0.1,0-0.2l-11,0.1c-4.8,0-5.9,0.1-8.5,0.4c-0.1,0-0.2,0-0.2,0
			c-0.5,0-1-0.2-1.3-0.5c-0.4-0.4-0.7-0.9-0.7-1.5l-0.1-9.9c0-0.6,0.3-1.2,0.7-1.5c0.4-0.3,0.8-0.5,1.3-0.5c0.1,0,0.2,0,0.3,0
			c2.6,0.5,4.7,0.6,8.6,0.6l12.2-0.1c0.2-2.8,0.3-6.2,0.3-8.1v-2c0-1,0-1.5-0.2-2.8c-0.1-0.6,0.1-1.2,0.5-1.6
			c0.4-0.4,0.9-0.7,1.5-0.7c0,0,10.8,0.2,10.8,0.2c0.6,0,1.1,0.3,1.5,0.7c0.4,0.4,0.5,1,0.4,1.6l-0.1,0.6c-0.1,0.6-0.1,0.9-0.2,1.7
			c0,0.3,0,0.5,0,0.8c0,0.2,0,0.4,0,0.7c0,0.1,0,0.1,0,0.2c-0.2,1.6-0.2,1.6-0.3,5.8l0,0.9c0,0.7-0.1,1.3-0.1,2.1l15.7-0.1
			c3.6,0,4-0.1,5.8-0.6c0.2-0.1,0.4-0.1,0.6-0.1c0.5,0,0.9,0.2,1.3,0.5l4.6,4c0.7,0.6,0.9,1.5,0.5,2.3c-0.5,1.1-0.6,1.8-0.7,4.6
			c-0.2,9.3-1.1,21.7-2,27c-2,13.3-4.7,18.9-16.5,18.9c-3.1,0-6-0.3-10.3-0.9c-1-0.1-1.7-1-1.7-1.9c-0.2-5-0.4-6.2-1.7-9.6
			c-0.3-0.7-0.1-1.5,0.4-2.1c0.4-0.4,0.9-0.7,1.5-0.7c0.2,0,0.4,0,0.5,0.1c4.5,1.2,7.6,1.8,10.1,1.8c1.7,0,2.7,0,4-7.1
			c0.9-5.3,1.6-15,1.7-23.4l-14.9,0.1c-1.2,9.3-2.9,15.2-6.4,21.9c-4.6,8.8-11.9,16.4-22.4,23C422.6,78.9,422.3,79,421.9,79z"/>
		<path fill="#FFFFFF" d="M441.1,7.7l10.8,0.2c-0.2,1-0.2,1.4-0.3,2.5c0,0.5-0.1,1-0.1,1.5c-0.2,1.7-0.2,1.7-0.3,5.9
			c-0.1,1.8-0.1,2.5-0.3,5.1l17.8-0.1c3.6,0,4.3-0.1,6.4-0.7l4.6,4c-0.6,1.4-0.8,2.6-0.9,5.4c-0.2,9.1-1.1,21.5-1.9,26.8
			c-2.1,13.9-4.9,17.2-14.6,17.2c-3.1,0-5.8-0.2-10-0.9c-0.2-5.1-0.4-6.6-1.8-10.3c4.7,1.3,8,1.8,10.6,1.8c3.5,0,4.7-1.8,5.9-8.8
			c1-5.5,1.8-16.5,1.8-25.7L450,31.7c-1.1,10.1-2.8,16.1-6.4,23c-4.4,8.5-11.6,15.8-21.7,22.3c-2.7-4.3-3.9-5.5-7.2-8.5
			c10.1-5.3,16.6-11.7,20.9-20.3c2.2-4.4,3.4-8.4,4.1-14c0.2-1.1,0.3-1.9,0.4-2.5l-13.3,0.1c-4.9,0-6,0.1-8.7,0.4l-0.1-9.9
			c2.7,0.5,4.9,0.6,8.9,0.6l14.1-0.1c0.2-3.1,0.4-7.7,0.4-10.1v-2C441.3,9.8,441.3,9.1,441.1,7.7 M441.1,3.7c-1.2,0-2.3,0.5-3,1.4
			c-0.8,0.9-1.1,2.1-0.9,3.3c0.2,1.1,0.2,1.5,0.2,2.5v2c0,1.4-0.1,3.8-0.2,6.1L426.8,19c-3.7,0-5.7-0.1-8.2-0.6
			c-0.2,0-0.5-0.1-0.7-0.1c-0.9,0-1.9,0.3-2.6,0.9c-0.9,0.8-1.4,1.9-1.4,3.1l0.1,9.9c0,1.1,0.5,2.2,1.4,3c0.7,0.6,1.7,1,2.6,1
			c0.2,0,0.3,0,0.5,0c2.4-0.3,3.3-0.4,8.2-0.4l8.7-0.1c-0.7,4-1.7,7.1-3.4,10.7c-3.9,7.8-9.8,13.5-19.2,18.5
			c-1.2,0.6-1.9,1.8-2.1,3.1c-0.2,1.3,0.3,2.6,1.3,3.5c3.2,2.8,4,3.8,6.5,7.7c0.8,1.2,2.1,1.8,3.4,1.8c0.7,0,1.5-0.2,2.1-0.6
			c10.8-6.9,18.4-14.6,23.1-23.8c3.4-6.5,5.2-12.3,6.4-20.9l11.2,0c-0.2,7.8-0.8,16.3-1.7,21c-0.7,3.9-1.3,5.1-1.5,5.4
			c-0.1,0-0.3,0-0.5,0c-2.3,0-5.2-0.5-9.6-1.7c-0.3-0.1-0.7-0.1-1-0.1c-1.1,0-2.2,0.5-3,1.3c-1,1.1-1.3,2.7-0.7,4.1
			c1.2,3.2,1.4,4.2,1.6,9c0.1,1.9,1.5,3.5,3.4,3.8c4.4,0.7,7.3,0.9,10.6,0.9c13.1,0,16.4-6.6,18.5-20.6c0.8-5.4,1.7-17.9,2-27.3
			c0.1-2.6,0.2-3.1,0.5-3.9c0.7-1.6,0.3-3.5-1-4.6l-4.6-4c-0.7-0.6-1.7-1-2.6-1c-0.4,0-0.8,0.1-1.2,0.2c-1.4,0.5-1.7,0.5-5.1,0.5
			l-13.6,0.1l0-0.9c0.2-4.1,0.2-4.1,0.3-5.7c0-0.1,0-0.3,0-0.4c0-0.2,0-0.3,0-0.5c0-0.2,0-0.5,0-0.8c0-0.6,0.1-0.9,0.2-1.4l0.1-0.6
			c0.2-1.1-0.1-2.3-0.9-3.2c-0.7-0.9-1.8-1.4-3-1.4L441.1,3.7C441.2,3.7,441.1,3.7,441.1,3.7L441.1,3.7z"/>
	</g>
	<g>
		<path d="M567.2,50.4c-0.1,0-0.2,0-0.2,0c-3.1-0.4-3.8-0.4-12.9-0.4h-42.7c-9,0-9.8,0-12.9,0.4c-0.1,0-0.2,0-0.2,0
			c-0.5,0-1-0.2-1.3-0.5c-0.4-0.4-0.7-0.9-0.7-1.5V37.2c0-0.6,0.3-1.1,0.7-1.5c0.4-0.3,0.8-0.5,1.3-0.5c0.1,0,0.2,0,0.3,0
			c3.3,0.5,4.7,0.5,12.8,0.5h42.9c8.1,0,9.4-0.1,12.8-0.5c0.1,0,0.2,0,0.3,0c0.5,0,0.9,0.2,1.3,0.5c0.4,0.4,0.7,0.9,0.7,1.5v11.2
			c0,0.6-0.2,1.1-0.7,1.5C568.2,50.2,567.7,50.4,567.2,50.4z"/>
		<path fill="#FFFFFF" d="M567.2,37.2v11.2C564,48,563.1,48,554.1,48h-42.7c-9,0-9.9,0-13.1,0.4V37.2c3.5,0.5,5.1,0.6,13,0.6h42.9
			C562.2,37.8,563.7,37.7,567.2,37.2 M567.2,33.2c-0.2,0-0.4,0-0.5,0c-3.2,0.4-4.6,0.5-12.5,0.5h-42.9c-7.9,0-9.3-0.1-12.5-0.5
			c-0.2,0-0.4,0-0.5,0c-1,0-1.9,0.3-2.6,1c-0.9,0.8-1.4,1.9-1.4,3v11.2c0,1.1,0.5,2.2,1.4,3c0.7,0.6,1.7,1,2.6,1c0.2,0,0.3,0,0.5,0
			c3-0.4,3.7-0.4,12.6-0.4h42.7c8.9,0,9.6,0,12.6,0.4c0.2,0,0.3,0,0.5,0c1,0,1.9-0.4,2.6-1c0.9-0.8,1.4-1.9,1.4-3V37.2
			c0-1.2-0.5-2.3-1.4-3C569.1,33.5,568.2,33.2,567.2,33.2L567.2,33.2z"/>
	</g>
	<g>
		<path d="M584.4,79.2c-0.6,0-1.1-0.3-1.5-0.7s-0.5-1-0.5-1.6c0.4-2.5,0.5-4.7,0.5-8.7V16.7c0-4-0.2-5.9-0.5-7.9
			c-0.1-0.6,0.1-1.2,0.5-1.6c0.4-0.4,0.9-0.7,1.5-0.7h11c0.6,0,1.1,0.2,1.5,0.7s0.6,1,0.5,1.6c-0.3,2.3-0.3,3.2-0.3,8.2v13.5
			c10.8,3.9,23,9.6,35.5,16.6c0.5,0.3,0.8,0.7,1,1.2c0.1,0.5,0.1,1.1-0.2,1.5l-5.6,9.5c-0.3,0.5-0.8,0.8-1.3,0.9c-0.1,0-0.3,0-0.4,0
			c-0.4,0-0.8-0.1-1.1-0.4c-6.8-4.7-15.1-9.1-27.8-15c0,0.6,0,1.3,0,2.1v21.2c0,4,0.1,6.1,0.3,8.7c0.1,0.6-0.1,1.1-0.5,1.5
			s-0.9,0.7-1.5,0.7H584.4z M619.9,29.9c-0.2,0-0.4,0-0.6-0.1c-0.5-0.1-0.9-0.5-1.2-1c-2.4-4.3-4.7-7.6-7.4-10.6
			c-0.4-0.5-0.6-1.1-0.5-1.7c0.1-0.6,0.5-1.1,1-1.4l6-3.2c0.3-0.2,0.6-0.2,0.9-0.2c0.3,0,0.6,0.1,0.8,0.2c0.1-0.6,0.5-1.1,1-1.4
			l5.8-3.1c0.3-0.2,0.6-0.2,1-0.2c0.5,0,1,0.2,1.4,0.6c3.3,3.4,5.5,6.3,8,10.8c0.5,1,0.2,2.2-0.7,2.7l-5.9,3.5
			c-0.3,0.2-0.7,0.3-1,0.3c-0.2,0-0.4,0-0.5-0.1c0,0-0.1,0-0.1,0c-0.1,0.6-0.4,1.2-1,1.5l-6,3.4C620.6,29.8,620.2,29.9,619.9,29.9z"
			/>
		<path fill="#FFFFFF" d="M595.4,8.5c-0.3,2.4-0.3,3.5-0.3,8.4v15c11,3.9,23.6,9.7,36.5,17l-5.6,9.5c-6.7-4.6-15-9.2-28.5-15.4
			c-1.8-0.9-2.1-1-2.7-1.4c0.2,2.3,0.3,3.2,0.3,5.5v21.2c0,4.2,0.1,6.3,0.3,8.9h-11c0.4-2.6,0.5-4.7,0.5-9V16.7c0-3.9-0.2-6-0.5-8.2
			H595.4 M626.8,9.1c3.2,3.3,5.3,6.1,7.7,10.4l-5.9,3.5c-2.3-4.2-4.6-7.5-7.6-10.7L626.8,9.1 M618.2,13.6c3.3,3.5,5.1,6,7.7,10.9
			l-6,3.4c-2.4-4.4-4.8-7.9-7.7-11L618.2,13.6 M595.4,4.5h-11c-1.2,0-2.3,0.5-3,1.4c-0.8,0.9-1.1,2-0.9,3.2c0.3,1.9,0.4,3.7,0.4,7.6
			v51.5c0,4.4-0.1,6.2-0.4,8.4c-0.2,1.2,0.2,2.3,0.9,3.2s1.9,1.4,3,1.4h11c1.1,0,2.2-0.5,3-1.3c0.8-0.8,1.1-1.9,1-3.1
			c-0.2-2.6-0.3-4.6-0.3-8.6V48.1c11,5.2,18.5,9.3,24.6,13.5c0.7,0.5,1.5,0.7,2.3,0.7c0.3,0,0.6,0,0.9-0.1c1.1-0.2,2-0.9,2.6-1.9
			l5.6-9.5c0.5-0.9,0.7-2,0.4-3.1c-0.3-1-1-1.9-1.9-2.5c-12.1-6.8-23.9-12.4-34.5-16.3V16.9c0-4.9,0-5.8,0.3-7.9
			c0.2-1.1-0.2-2.3-1-3.2C597.6,5,596.5,4.5,595.4,4.5L595.4,4.5z M626.8,5.1c-0.6,0-1.3,0.2-1.9,0.5l-5.8,3.1
			c-0.5,0.2-0.9,0.6-1.2,1c-0.6,0-1.1,0.2-1.6,0.5l-6,3.2c-1.1,0.6-1.9,1.6-2.1,2.9c-0.2,1.2,0.2,2.5,1,3.4c2.7,2.9,4.9,6,7.1,10.2
			c0.5,0.9,1.4,1.6,2.4,1.9c0.4,0.1,0.7,0.2,1.1,0.2c0.7,0,1.4-0.2,2-0.5l6-3.4c0.5-0.3,1-0.7,1.3-1.1c0.5-0.1,1-0.2,1.4-0.5
			l5.9-3.5c1.9-1.1,2.5-3.5,1.5-5.4c-2.6-4.5-4.9-7.7-8.3-11.2C628.9,5.5,627.9,5.1,626.8,5.1L626.8,5.1z"/>
	</g>
	<g>
		<path d="M32.2,140c-0.5,0-0.9-0.2-1.3-0.5c-1.7-1.4-2.4-1.9-4.2-2.8c-0.4-0.2-0.8-0.6-0.9-1.1c0,0.6,0.1,1.2,0.2,1.7
			c0.1,0.6-0.1,1.2-0.4,1.6c-0.4,0.4-0.9,0.7-1.5,0.7h-5.2c-0.6,0-1.1-0.2-1.5-0.7c-0.4-0.4-0.6-1-0.5-1.6c0.1-1.1,0.2-2.1,0.2-3.3
			V133c-1.2,1.2-2.6,2.4-4.2,3.6c-0.3,0.2-0.8,0.4-1.2,0.4c-0.2,0-0.4,0-0.6-0.1c-0.6-0.2-1.1-0.7-1.3-1.3c-0.6-1.7-1.1-2.8-2.1-4.1
			c-0.3-0.5-0.4-1-0.3-1.5c0.1-0.5,0.4-1,0.9-1.3c2-1.2,3.6-2.6,5-4.1c-1.2,0-2,0.1-2.8,0.2c-0.1,0-0.2,0-0.3,0
			c-0.5,0-0.9-0.2-1.3-0.5c-0.4-0.4-0.7-0.9-0.7-1.5v-4.8c0-0.5,0.2-1,0.6-1.4c-0.4-0.4-0.6-0.9-0.6-1.4v-4.9c0-0.6,0.3-1.1,0.7-1.5
			c0.4-0.3,0.8-0.5,1.3-0.5c0.1,0,0.2,0,0.3,0c0.7,0.1,1.3,0.2,2.4,0.2c-0.3-0.8-0.6-1.5-1-2.2c-0.2,0-0.3,0-0.5,0.1
			c-0.1,0-0.1,0-0.2,0c-0.5,0-1-0.2-1.3-0.5c-0.4-0.4-0.7-0.9-0.7-1.5v-4.9c0-0.6,0.3-1.1,0.7-1.5c0.4-0.3,0.8-0.5,1.3-0.5
			c0.1,0,0.2,0,0.3,0c1,0.2,1.9,0.2,4.1,0.2h1.4c0-0.6-0.1-1-0.2-1.7c-0.1-0.6,0.1-1.2,0.5-1.6s0.9-0.7,1.5-0.7h5.5
			c0.6,0,1.1,0.3,1.5,0.7s0.5,1,0.4,1.6c-0.1,0.6-0.2,1-0.2,1.7H27c2.1,0,2.9,0,3.9-0.2c0.1,0,0.2,0,0.3,0c0.3,0,0.6,0.1,0.8,0.2
			c0.2-0.1,0.5-0.1,0.7-0.1c5-0.1,12.4-2.1,14.2-3.5c0.4-0.3,0.8-0.4,1.2-0.4c0.6,0,1.1,0.2,1.5,0.7l3.7,4.4
			c0.4,0.5,0.6,1.2,0.4,1.9c-0.2,0.7-0.7,1.2-1.4,1.3c-0.2,0.1-0.4,0.1-0.6,0.2c-0.2,0.1-0.4,0.2-0.8,0.3c-3.3,1.2-5.9,1.9-11.1,2.9
			v2.3h8.2c1.8,0,2.8-0.1,3.8-0.2c0.1,0,0.2,0,0.4,0c0.5,0,0.9,0.2,1.3,0.5c0.5,0.4,0.7,0.9,0.7,1.5v5.1c0,0.6-0.2,1.1-0.7,1.5
			c-0.4,0.3-0.8,0.5-1.3,0.5c-0.1,0-0.2,0-0.2,0c-0.9-0.1-1.4-0.1-2.5-0.2v16.4c0,2.8,0.1,3.9,0.2,5c0.1,0.6-0.1,1.2-0.4,1.6
			c-0.4,0.4-0.9,0.7-1.5,0.7h-5.3c-0.6,0-1.1-0.3-1.5-0.7c-0.4-0.4-0.5-1-0.5-1.6c0.2-1.2,0.2-2.3,0.2-5.1v-16.4h-0.9
			c-0.1,5.1-0.7,9.4-1.7,13.2c-1,3.8-2.5,7.2-4.4,9.8c-0.3,0.5-0.8,0.7-1.4,0.8C32.4,140,32.3,140,32.2,140z M25.8,134.4
			c0.1-0.2,0.2-0.5,0.4-0.7c0.3-0.4,0.6-0.8,0.9-1.2c-0.1-0.1-0.2-0.1-0.3-0.2c-0.4-0.3-0.7-0.6-1-0.9
			C25.8,131.4,25.8,134.3,25.8,134.4z M30.7,106.2c-0.2,0.4-0.2,0.5-0.6,1.3c0,0.1-0.1,0.2-0.1,0.3c-0.1,0.2-0.2,0.3-0.3,0.6
			c0.5,0,1-0.1,1.4-0.1c0-0.6,0-1.9,0-2C31.1,106.2,30.8,106.2,30.7,106.2z M20.9,106c0.1,0.4,0.3,0.8,0.4,1.2
			c0.2-0.4,0.3-0.8,0.5-1.2H20.9z"/>
		<path fill="#FFFFFF" d="M48.2,95.5l3.7,4.4c-0.5,0.1-0.7,0.2-1.5,0.5c-3.6,1.4-6.5,2.1-12.5,3.1v6h10.2c2,0,3.1-0.1,4.1-0.3v5.1
			c-1.1-0.1-1.9-0.2-3.6-0.2h-1.1v18.4c0,2.7,0,4,0.3,5.4h-5.3c0.2-1.4,0.3-2.7,0.3-5.4v-18.4h-4.9c0,5.8-0.6,10.6-1.7,14.7
			c-0.9,3.6-2.3,6.7-4.1,9.2c-1.8-1.5-2.6-2-4.5-3c4.3-5.3,5.5-11.3,5.5-28.5c0-3.8,0-5.3-0.3-7.1C38,99.2,45.9,97.2,48.2,95.5
			 M24.2,95.5c-0.2,1.1-0.2,1.7-0.2,3.3v0.7H27c2.1,0,3.1,0,4.2-0.2v4.9c-1.2-0.1-2.3-0.2-4.3-0.2h-1.9l3.9,1.1
			c-0.3,0.6-0.3,0.6-0.7,1.6c-0.3,0.5-0.3,0.5-0.8,1.7c-0.3,0.8-0.5,1.1-1,2h0.9c2.1,0,3,0,4.2-0.2v4.9c-1.3-0.1-2.2-0.2-4.2-0.2
			h-3.7v3.2h3.5c2,0,3,0,4.1-0.2v4.8c-1.2-0.1-2.2-0.2-4.1-0.2h-1.7c1.4,1.6,2.5,2.6,4.7,4c-1,1.7-1.5,2.6-2.2,4.3
			c-2.3-2-3-2.8-4.5-4.9c0,0.6,0,0.6,0.1,1.8c0,0.1,0,1.5,0,1.8v4.6c0,1.6,0.1,2.7,0.3,3.8h-5.2c0.1-1,0.2-2.1,0.2-3.6v-4.6
			c0-0.9,0-2.1,0.1-3.1c-1.9,3.5-4,5.9-7.5,8.4c-0.6-1.9-1.3-3.1-2.3-4.6c3.5-2.1,6-4.6,8-7.8h-3c-2,0-2.9,0-4.1,0.2v-4.8
			c1.2,0.2,2.1,0.2,4.2,0.2H19v-2.3c0-0.8,0-0.8,0-0.9h-4.7c-1.9,0-3,0-4.1,0.2v-4.9c1.1,0.2,2.1,0.2,4.2,0.2h1.1
			c-0.6-2.6-1.1-3.7-2-5.4l4-1h-2.1c-2,0-3.1,0-4.3,0.2v-4.9c1.1,0.2,2.2,0.2,4.4,0.2h3.5v-0.7c0-1.5,0-2.2-0.2-3.3H24.2 M24.5,104
			h-6.7c1,2,1.4,2.9,2,5.3l-4.1,1.1h6.2C23.2,108,23.8,106.6,24.5,104 M48.2,91.5c-0.8,0-1.7,0.3-2.4,0.8c-1.3,0.9-8.1,2.9-13.1,3.1
			c-0.2,0-0.4,0-0.6,0.1c-0.3-0.1-0.6-0.1-0.9-0.1c-0.2,0-0.4,0-0.6,0c-0.7,0.1-1.3,0.2-2.5,0.2c0-0.9-0.3-1.9-0.9-2.6
			c-0.8-0.9-1.9-1.4-3.1-1.4h-5.5c-1.2,0-2.3,0.5-3,1.4c-0.6,0.7-1,1.7-1,2.6c-1.5,0-2.2-0.1-3-0.2c-0.2,0-0.4-0.1-0.6-0.1
			c-0.9,0-1.9,0.3-2.6,1C7.6,97,7,98.2,7,99.3v4.9c0,1,0.3,1.9,1,2.6c-0.2,0.1-0.3,0.2-0.5,0.3c-0.9,0.8-1.4,1.9-1.4,3v4.9
			c0,0.5,0.1,1,0.3,1.5c-0.2,0.4-0.2,0.9-0.2,1.4v4.8c0,1.2,0.5,2.3,1.4,3c0.2,0.2,0.5,0.4,0.7,0.5c-0.3,0.2-0.7,0.5-1.1,0.7
			c-0.9,0.6-1.6,1.5-1.8,2.6c-0.2,1.1,0,2.2,0.6,3.1c0.8,1.2,1.3,2.1,1.8,3.7c0.4,1.2,1.4,2.1,2.6,2.5c0.4,0.1,0.8,0.2,1.2,0.2
			c0.8,0,1.6-0.3,2.3-0.8c0.3-0.2,0.6-0.4,0.8-0.6c0,1,0.3,2,1,2.8c0.8,0.9,1.9,1.4,3,1.4H24c1.2,0,2.3-0.5,3.1-1.4
			c0.2-0.2,0.4-0.5,0.5-0.8c0.6,0.4,1.1,0.8,2,1.5c0.7,0.6,1.6,0.9,2.5,0.9c0.2,0,0.3,0,0.5,0c1.1-0.1,2.1-0.7,2.7-1.6
			c1.3-1.8,2.4-4,3.4-6.3c0,1.6-0.1,2.4-0.2,3.2c-0.2,1.2,0.1,2.3,0.9,3.2c0.8,0.9,1.9,1.4,3,1.4h5.3c1.2,0,2.3-0.5,3.1-1.4
			c0.8-0.9,1.1-2.1,0.9-3.2c-0.2-1-0.2-2-0.2-4.7v-14.2c0.1,0,0.2,0,0.3,0c0.2,0,0.3,0,0.5,0c1,0,1.9-0.4,2.7-1
			c0.9-0.8,1.3-1.8,1.3-3v-5.1c0-1.2-0.5-2.3-1.4-3.1c-0.7-0.6-1.6-0.9-2.6-0.9c-0.2,0-0.5,0-0.7,0.1c-0.6,0.1-1.4,0.2-3.4,0.2h-0.5
			c1.4-0.4,2.7-0.8,4.1-1.3c0.3-0.1,0.5-0.2,0.7-0.3c0.2-0.1,0.3-0.1,0.5-0.2c1.3-0.4,2.4-1.4,2.8-2.7c0.4-1.3,0.1-2.7-0.8-3.8
			l-3.7-4.4C50.5,92,49.4,91.5,48.2,91.5L48.2,91.5z"/>
	</g>
	<g>
		<path d="M82.1,140.2c-0.6,0-1.2-0.3-1.6-0.8c-1.4-1.9-1.9-2.5-3.2-3.6c-0.6-0.5-0.8-1.2-0.7-1.9c0.1-0.7,0.7-1.3,1.4-1.5
			c0.6-0.2,1.2-0.4,1.8-0.6c-1.3-1.3-2.2-2.4-3.1-3.5c-0.3,0.8-0.7,1.6-1.1,2.4c-1.7,3.2-3,4.9-5.5,7.3c-0.4,0.3-0.9,0.5-1.4,0.5
			c-0.1,0-0.1,0-0.2,0c-0.6-0.1-1.1-0.4-1.4-0.9c-1.2-1.7-1.7-2.2-3.2-3.6c-0.5-0.4-0.7-0.9-0.7-1.5s0.3-1.1,0.7-1.5
			c2.6-2.2,3.8-3.7,4.8-6.2c0.6-1.5,1.1-2.9,1.4-4.7c-1.4,0-2.7,0.1-3.7,0.3c-0.1,0-0.2,0-0.3,0c-0.5,0-0.9-0.2-1.3-0.5
			c-0.4-0.4-0.7-0.9-0.7-1.5v-5.1c0-0.6,0.3-1.1,0.7-1.5c0.4-0.3,0.8-0.5,1.3-0.5c0.1,0,0.2,0,0.3,0c1.2,0.2,2.3,0.3,3.8,0.3h0.7
			c0-0.6,0-1.2,0.1-1.9h-0.3c-1.2,0-2.2,0.1-3.6,0.2c-0.1,0-0.1,0-0.2,0c-0.5,0-1-0.2-1.3-0.5c-0.4-0.4-0.7-0.9-0.7-1.5v-4.8
			c0-0.6,0.3-1.1,0.7-1.5c0.4-0.3,0.8-0.5,1.3-0.5c0.1,0,0.2,0,0.3,0c1.3,0.2,2.3,0.3,3.8,0.3h0.1c0-2.6,0-3.3-0.2-4.6
			c-0.1-0.6,0.1-1.2,0.5-1.6s0.9-0.7,1.5-0.7h5.3c0.6,0,1.1,0.3,1.5,0.7s0.5,1,0.5,1.6c-0.2,1.2-0.2,1.3-0.2,4.6
			c1.2,0,2.1,0,3.2-0.2c0-1.5-0.1-2.6-0.2-3.3c-0.1-0.6,0.1-1.2,0.6-1.7c0.4-0.4,0.9-0.6,1.4-0.6c0.1,0,0.2,0,0.3,0
			c0.9,0.1,2.1,0.2,4.1,0.2h11.5c2.5,0,3.1,0,4.2-0.2c0.1,0,0.2,0,0.2,0c0.5,0,1,0.2,1.4,0.6c0.4,0.4,0.6,1,0.6,1.6
			c-0.1,1.2-0.2,2.4-0.2,4.4v17.7c0,1.8,0,2.8,0.2,4.2c0.1,0.6-0.2,1.2-0.6,1.7c0,0,0,0-0.1,0.1c0.8,0.4,1.5,0.7,2.4,1
			c0.9,0.3,1.5,1.1,1.4,2c-0.5,8.4-1.7,10.7-9.2,10.7c-2.3,0-7.7,0-7.7-5.3v-3c-0.4,0.8-0.8,1.5-1.4,2.3c-2,2.8-4.3,4.4-8.8,6.7
			C82.7,140.2,82.4,140.2,82.1,140.2z M101.7,128.6c0-0.8,0.1-1.6,0.1-2.3c0-0.1,0-0.3,0.1-0.4c-0.1,0-0.1,0-0.2,0V128.6z
			 M80.9,120.1c0.6,0.8,1.2,1.6,1.9,2.3c0-0.6,0-1.3,0-2.1C82.2,120.1,81.6,120.1,80.9,120.1z M79.6,109.5c0,0.7,0,1.3-0.1,1.9
			c1.2,0,2.3,0,3.4-0.2v-1.6C81.8,109.6,81,109.5,79.6,109.5L79.6,109.5z"/>
		<path fill="#FFFFFF" d="M77.9,96.3c-0.2,1.5-0.2,1.5-0.3,6.9h1.6c1.6,0,2.7,0,4-0.2v4.8c-1.2-0.2-2.2-0.2-3.6-0.2h-2.1
			c0,2.6-0.1,3.6-0.2,5.9h2.1c1.5,0,2.7,0,4-0.2v5.1c-1.2-0.2-2.2-0.2-3.6-0.2h-2.6c2.1,3.7,3.9,5.8,7,8.4c-0.3,0.4-0.5,0.6-0.6,0.8
			c-1,1.3-1,1.3-2.1,3.5c-2.7-2.7-3.9-4.3-5.5-7.2c-0.6,2.3-1.2,4.1-2.3,6.2c-1.5,2.9-2.6,4.4-5.1,6.7c-1.3-1.9-1.9-2.6-3.6-4
			c2.8-2.4,4.1-4.1,5.4-7c0.9-2.1,1.5-4.3,1.9-7.5h-2.1c-1.6,0-3.1,0.1-4.3,0.3v-5.1c1.2,0.2,2.5,0.3,4.1,0.3h2.6
			c0.1-2,0.1-3.4,0.2-5.9h-2.3c-1.3,0-2.5,0.1-3.8,0.2v-4.8c1.3,0.2,2.4,0.3,4.1,0.3h2.1c0-4.5,0-5.2-0.3-6.9H77.9 M104.9,97.4
			c-0.1,1.3-0.2,2.6-0.2,4.6v17.7c0,1.9,0,3,0.2,4.4c-0.5-0.1-0.7-0.1-1.3-0.1c-0.3,0-0.6,0-0.9,0c-1.1,0-1.8-0.1-1.9-0.1h-1v7.9
			c0,0.8,0.4,1,1.8,1c1.9,0,2-0.4,2.3-6.3c1.5,1,2.5,1.5,4.2,2.1c-0.5,8-1.2,8.8-7.2,8.8c-4.2,0-5.7-0.9-5.7-3.3v-10.2h-2.3
			c-0.5,4.1-1.1,6-2.7,8.3c-1.8,2.4-3.7,3.9-8.1,6.1c-1.5-2.1-2.1-2.7-3.6-4c6.5-2.1,9.1-4.8,9.7-10.4c-1.3,0-2.5,0-3.6,0.1
			c0.1-1.1,0.1-2.6,0.1-4.5v-17.6c0-1.9,0-3.5-0.2-4.5c1,0.1,2.3,0.2,4.4,0.2h11.5C103,97.6,103.8,97.5,104.9,97.4 M89.5,105.1h10.6
			V102H89.5V105.1 M89.5,112.2h10.6v-3.1H89.5V112.2 M89.5,119.5h10.6v-3.2H89.5V119.5 M77.9,92.3h-5.3c-1.2,0-2.3,0.5-3,1.4
			c-0.8,0.9-1.1,2.1-0.9,3.2c0.1,0.7,0.2,1.2,0.2,2.2c-0.6,0-1.1-0.1-1.6-0.2c-0.2,0-0.4,0-0.6,0c-1,0-1.9,0.3-2.6,1
			c-0.9,0.8-1.4,1.9-1.4,3v4.8c0,0.8,0.3,1.7,0.8,2.3c0,0,0,0-0.1,0c-0.9,0.8-1.4,1.9-1.4,3v5.1c0,1.2,0.5,2.3,1.4,3
			c0.7,0.6,1.7,1,2.6,1c0.2,0,0.4,0,0.6,0c0.3,0,0.5-0.1,0.8-0.1c-0.2,0.6-0.4,1.2-0.7,1.8c-1,2.2-1.9,3.5-4.3,5.5
			c-0.9,0.8-1.4,1.9-1.4,3.1c0,1.2,0.5,2.3,1.4,3c1.4,1.2,1.8,1.6,2.9,3.2c0.7,1,1.7,1.6,2.9,1.7c0.1,0,0.3,0,0.4,0
			c1,0,2-0.4,2.7-1.1c1.4-1.3,2.5-2.4,3.4-3.7c0.2,0.6,0.6,1.2,1.2,1.6c1.2,1,1.6,1.4,2.9,3.2c0.8,1.1,2,1.7,3.3,1.7
			c0.6,0,1.2-0.1,1.8-0.4c3.6-1.8,5.9-3.3,7.7-5.1c1.1,3.1,4.2,4.6,9.3,4.6c2.7,0,6.4,0,8.8-2.9c1.9-2.3,2.2-5.5,2.4-9.7
			c0.1-1.9-1.1-3.6-2.9-4.1c-0.1,0-0.2-0.1-0.3-0.1c0-0.3,0-0.6,0-0.9c-0.1-1.3-0.2-2.3-0.2-4V102c0-2,0-3.1,0.2-4.2
			c0.1-1.2-0.3-2.4-1.2-3.3c-0.8-0.7-1.8-1.2-2.8-1.2c-0.2,0-0.3,0-0.5,0c-1,0.1-1.6,0.2-4,0.2H89c-1.9,0-3,0-3.9-0.1
			c-0.2,0-0.3,0-0.5,0c-1.1,0-2.1,0.4-2.8,1.2c-0.1,0.1-0.1,0.1-0.2,0.2c-0.2-0.4-0.4-0.8-0.7-1.1C80.2,92.8,79.1,92.3,77.9,92.3
			L77.9,92.3z"/>
	</g>
	<g>
		<path d="M122.9,139.4c-0.2,0-0.4,0-0.5-0.1c-0.6-0.2-1-0.5-1.3-1.1c-0.8-1.8-1.7-2.9-3.2-4.1c-0.5-0.4-0.8-1.1-0.7-1.7
			c0.1-0.7,0.4-1.2,1-1.6c3.8-2.2,5.8-3.8,8.7-6.8c3.3-3.4,5.9-8,7.3-12.7c0.7-2.4,1.1-4.3,1.3-6.6h-3.6c-1.1,0-2.3,0.1-4.2,0.2
			c-0.1,0-0.1,0-0.2,0c-0.5,0-1-0.2-1.4-0.5c-0.4-0.4-0.6-0.9-0.6-1.5v-5.5c0-0.6,0.3-1.1,0.7-1.5c0.4-0.3,0.8-0.5,1.3-0.5
			c0.1,0,0.2,0,0.3,0c1.2,0.2,2.1,0.2,4,0.2h7.2c1.6,0,2.9,0,3.8-0.2c0.1,0,0.2,0,0.3,0c0.5,0,1,0.2,1.4,0.5c0.5,0.4,0.7,1,0.6,1.7
			c-0.1,1.2-0.1,1.6-0.1,2.7c0,6.1,1.5,11.8,4.6,17c1.9,3.1,4,5.7,6.9,8.3c2.2,2,3.4,2.9,6.4,4.7c0.5,0.3,0.9,0.9,1,1.5
			c0.1,0.6-0.1,1.2-0.6,1.7c-1.5,1.5-2.3,2.5-3.5,4.7c-0.3,0.5-0.7,0.8-1.3,1c-0.1,0-0.3,0.1-0.4,0.1c-0.4,0-0.8-0.1-1.1-0.4
			c-4.7-3.3-8.3-6.7-11.5-11.2c-1.7-2.3-2.8-4-4.2-7.1c-0.2-0.4-0.3-0.7-0.5-1.1c-1.3,3.2-2.8,5.9-4.9,8.7
			c-3.2,4.1-6.8,7.4-11.8,10.8C123.7,139.3,123.3,139.4,122.9,139.4z"/>
		<path fill="#FFFFFF" d="M143.2,97.5c-0.1,1.3-0.1,1.7-0.1,2.9c0,6.5,1.6,12.5,4.9,18c1.9,3.2,4.1,5.9,7.3,8.7
			c2.3,2.1,3.6,3.1,6.7,4.9c-1.7,1.7-2.6,2.9-3.9,5.1c-4.6-3.2-8-6.5-11.1-10.7c-1.7-2.2-2.7-4-4-6.7c-1.2-2.5-1.6-3.6-2.3-6.5
			c-1.6,5.8-3.5,9.7-6.5,13.8c-2.9,3.8-6.3,7-11.3,10.3c-1-2-2-3.4-3.7-4.8c3.9-2.2,6.1-4,9.2-7.2c3.6-3.7,6.3-8.6,7.8-13.5
			c0.9-3.1,1.3-5.5,1.5-9.2h-5.7c-1.2,0-2.6,0.1-4.4,0.2v-5.5c1.3,0.2,2.3,0.2,4.3,0.2h7.2C140.9,97.8,142.2,97.7,143.2,97.5
			 M143.2,93.5c-0.2,0-0.5,0-0.7,0.1c-0.7,0.1-1.7,0.2-3.5,0.2h-7.2c-1.9,0-2.6,0-3.7-0.2c-0.2,0-0.4,0-0.5,0c-1,0-1.9,0.3-2.6,1
			c-0.9,0.8-1.4,1.9-1.4,3v5.5c0,1.1,0.5,2.2,1.3,2.9c0.7,0.7,1.7,1.1,2.7,1.1c0.1,0,0.2,0,0.3,0c1.8-0.1,3-0.2,4.1-0.2h1.3
			c-0.2,1.3-0.5,2.6-0.9,4.1c-1.3,4.3-3.8,8.7-6.8,11.8c-2.8,2.9-4.7,4.4-8.3,6.5c-1.1,0.7-1.9,1.8-2,3.1c-0.1,1.3,0.4,2.6,1.5,3.4
			c1.2,1,1.9,1.9,2.7,3.4c0.5,1,1.4,1.8,2.6,2.1c0.3,0.1,0.7,0.1,1.1,0.1c0.8,0,1.6-0.2,2.2-0.7c5.2-3.5,9-6.9,12.2-11.2
			c1.3-1.7,2.4-3.5,3.4-5.3c0.9,1.7,1.9,3.1,3.1,4.7c3.4,4.6,7.1,8.1,12,11.6c0.7,0.5,1.5,0.7,2.3,0.7c0.3,0,0.6,0,0.9-0.1
			c1.1-0.3,2-1,2.6-1.9c1.1-2,1.8-2.9,3.2-4.2c0.9-0.9,1.3-2.1,1.2-3.3c-0.1-1.2-0.9-2.3-1.9-3c-2.9-1.7-4-2.5-6.1-4.4
			c-2.8-2.5-4.8-4.9-6.6-7.8c-2.9-4.9-4.3-10.3-4.3-16c0-1.1,0-1.3,0.1-2.5c0.1-1.2-0.3-2.5-1.3-3.3
			C145.2,93.9,144.2,93.5,143.2,93.5L143.2,93.5z"/>
	</g>
	<g>
		<path d="M204.7,140c-0.6,0-1.3-0.3-1.7-0.9c-1-1.5-1.5-2.3-2-2.9c-3.3,0.4-5.6,0.7-7,0.9c-4.1,0.4-13.5,1.2-15.4,1.4
			c-2.7,0.2-4.8,0.4-5.6,0.6c-0.1,0-0.3,0-0.4,0c-0.4,0-0.8-0.1-1.2-0.4c-0.5-0.3-0.8-0.8-0.8-1.4l-0.7-5.6
			c-0.1-0.6,0.1-1.2,0.5-1.6c0.4-0.4,0.9-0.6,1.5-0.6c0,0,0.1,0,0.1,0c1.1,0.1,1.9,0.1,2.5,0.1c0.2,0,1.2,0,2.9-0.1
			c1.2-1.9,2.1-3.5,2.9-5.2h-3.9c-2.1,0-3.6,0.1-5.1,0.3c-0.1,0-0.2,0-0.2,0c-0.5,0-1-0.2-1.3-0.5c-0.4-0.4-0.7-0.9-0.7-1.5v-5.3
			c0-0.6,0.2-1.1,0.7-1.5c0.1-0.1,0.2-0.1,0.3-0.2c-0.1-0.1-0.1-0.2-0.2-0.3c-0.7-1.7-1.4-2.8-2.4-4.2c-0.4-0.5-0.5-1.1-0.3-1.7
			c0.2-0.6,0.6-1.1,1.2-1.3c4.8-1.9,7.6-3.5,10.9-6.1c2.9-2.3,5.1-4.5,6.7-7.2c0.4-0.6,1-0.9,1.7-0.9h5.4c0.6,0,1.3,0.3,1.6,0.8
			c2.3,3.2,3.9,4.8,7.2,7.1c3.6,2.6,7.2,4.4,11.2,5.9c0.6,0.2,1,0.7,1.2,1.2c0.2,0.6,0.1,1.2-0.2,1.7c-1.2,1.9-1.7,3.1-2.3,4.7
			c-0.1,0.2-0.2,0.4-0.3,0.6c0.4,0.4,0.6,0.9,0.6,1.4v5.3c0,0.6-0.2,1.1-0.7,1.5c-0.4,0.3-0.8,0.5-1.3,0.5c-0.1,0-0.2,0-0.2,0
			c-1.5-0.2-3-0.3-5.1-0.3h-2.1c3.1,3.3,5,5.5,8,9.6c0.3,0.4,0.5,1,0.4,1.5c-0.1,0.5-0.4,1-0.9,1.3l-4.4,2.9
			C205.5,139.9,205.1,140,204.7,140z M190.4,124.4c-0.8,1.7-1.5,3.2-2.3,4.6c2.9-0.2,4.4-0.3,6.5-0.5c-0.5-0.6-1.2-1.2-2-2.1
			c-0.5-0.5-0.6-1.1-0.5-1.8c0-0.1,0-0.2,0.1-0.3H190.4z M204.8,115.6c0.8,0,1.5,0,2.2,0c-1-0.5-1.9-0.9-2.9-1.5v0
			c0,0.6-0.2,1.1-0.7,1.5c0,0,0,0,0,0H204.8z M174.2,115.6c0.7,0,1.5,0,2.3,0h1.2c0,0,0,0,0,0c-0.4-0.4-0.6-0.9-0.7-1.4
			C176.1,114.7,175.2,115.1,174.2,115.6z M194.2,107.2c-1.3-1.2-2.5-2.4-3.7-3.7c-1.1,1.3-2.3,2.5-3.7,3.7H194.2z"/>
		<path fill="#FFFFFF" d="M193.1,95.9c2.4,3.4,4.2,5.1,7.7,7.6c3.9,2.7,7.6,4.6,11.7,6.2c-1.3,2-1.9,3.2-2.5,5.1
			c-2.9-1.2-4.6-2.1-7.8-4.1v3.6c-1.2-0.1-2.4-0.2-4.1-0.2h-15.2c-1.3,0-2.7,0-3.9,0.2v-3.5c-2.8,1.8-4.1,2.5-7.3,3.9
			c-0.8-1.8-1.5-3.1-2.6-4.6c4.9-2,8-3.6,11.4-6.3c3-2.3,5.3-4.7,7.2-7.7H193.1 M182.9,109.2H198c0.7,0,1.1,0,2,0
			c-4.2-2.9-6.8-5.2-9.5-8.8c-2.4,3.2-5.2,5.9-9.5,8.8C181.8,109.2,182.1,109.2,182.9,109.2 M210.1,117.4v5.3
			c-1.5-0.2-3.1-0.3-5.3-0.3h-15.7c-1.4,3.3-2.8,6-4.7,8.8c8.1-0.5,8.1-0.5,14.4-1.1c-1.5-1.6-2.2-2.4-4.8-5.1l4.5-2
			c4.9,4.9,6.8,7.2,10.5,12.2l-4.4,2.9c-1.5-2.2-2-2.9-2.7-4c-3.8,0.5-6.5,0.8-8.2,1c-4.5,0.4-13.5,1.2-15.4,1.4
			c-2.6,0.2-4.8,0.4-5.9,0.6l-0.7-5.6c1.2,0.1,2,0.1,2.6,0.1c0.3,0,1.7,0,4-0.2c2.2-3.4,3.6-6,4.9-9.1h-6.9c-2.3,0-3.9,0.1-5.4,0.3
			v-5.3c1.5,0.2,3.2,0.3,5.4,0.3h28.4C207,117.6,208.6,117.5,210.1,117.4 M193.1,91.9h-5.4c-1.4,0-2.6,0.7-3.4,1.8
			c-1.6,2.4-3.5,4.5-6.3,6.6c-3.2,2.4-5.9,4-10.5,5.8c-1.2,0.5-2,1.4-2.4,2.6s-0.1,2.5,0.6,3.5c0.8,1.1,1.3,1.9,1.8,3.1
			c-0.4,0.6-0.6,1.3-0.6,2v5.3c0,1.1,0.5,2.2,1.3,3c0.7,0.7,1.7,1,2.7,1c0.2,0,0.3,0,0.5,0c1.4-0.2,2.8-0.2,4.9-0.2h0.5
			c-0.2,0.4-0.5,0.8-0.7,1.2c-1.1,0.1-1.6,0.1-1.8,0.1c-0.5,0-1.3,0-2.3-0.1c-0.1,0-0.2,0-0.3,0c-1.1,0-2.1,0.4-2.9,1.3
			c-0.8,0.9-1.2,2.1-1.1,3.3l0.7,5.6c0.1,1.1,0.7,2.1,1.7,2.8c0.7,0.5,1.5,0.7,2.3,0.7c0.3,0,0.6,0,0.9-0.1c0.6-0.1,2.3-0.3,5.3-0.6
			c1.7-0.1,9.1-0.8,15.4-1.4c0,0,0,0,0.1,0c1.3-0.1,3.2-0.4,5.9-0.7c0.3,0.5,0.7,1.1,1.3,1.9c0.8,1.1,2,1.8,3.3,1.8
			c0.8,0,1.5-0.2,2.2-0.7l4.4-2.9c0.9-0.6,1.6-1.6,1.7-2.6s-0.1-2.2-0.7-3.1c-1.9-2.6-3.4-4.5-5-6.4c0.9,0,1.6,0.1,2.4,0.2
			c0.2,0,0.3,0,0.5,0c1,0,1.9-0.4,2.7-1c0.9-0.8,1.3-1.8,1.3-3v-5.3c0-0.5-0.1-1.1-0.3-1.6c0.5-1.4,0.9-2.3,2-4
			c0.7-1,0.8-2.3,0.4-3.5c-0.4-1.2-1.3-2.1-2.4-2.5c-3.9-1.4-7.2-3.2-10.8-5.7c-3.1-2.2-4.6-3.7-6.8-6.6
			C195.6,92.5,194.3,91.9,193.1,91.9L193.1,91.9z"/>
	</g>
	<g>
		<path d="M239.9,139.1c-0.5,0-0.9-0.2-1.3-0.4c-0.5-0.4-0.7-0.9-0.7-1.5c0-1.3-0.2-2.5-0.6-4.5l-1.3-7l-9.3,1.5
			c-2.2,0.4-2.9,0.5-4.4,1c-0.2,0-0.4,0.1-0.5,0.1c-0.4,0-0.8-0.1-1.1-0.3c-0.5-0.3-0.8-0.8-0.9-1.4l-0.9-5.6
			c-0.1-0.6,0.1-1.2,0.5-1.6c0.4-0.4,0.9-0.7,1.5-0.7c1.4,0,2.6-0.1,4.5-0.4l9.1-1.5l-0.6-3.5l-6.5,1c-2.1,0.4-3.6,0.7-4.7,1
			c-0.2,0.1-0.4,0.1-0.6,0.1c-0.4,0-0.7-0.1-1.1-0.3c-0.5-0.3-0.8-0.8-0.9-1.4l-0.9-5.6c-0.1-0.6,0.1-1.2,0.4-1.6
			c0.4-0.4,0.9-0.7,1.5-0.7c1.5,0,2.8-0.2,4.8-0.5l6.4-1l-0.3-1.9c-0.4-2.2-0.6-2.8-1-3.9c-0.2-0.6-0.2-1.2,0.1-1.7s0.8-0.9,1.4-1
			l6-1c0.1,0,0.2,0,0.3,0c0.5,0,0.9,0.2,1.3,0.5c0.4,0.4,0.7,0.9,0.7,1.5c0,1,0.2,2.2,0.5,4l0.4,2l7.7-1.2c2.2-0.4,3-0.6,4-0.9
			c0.2-0.1,0.4-0.1,0.7-0.1c0.4,0,0.7,0.1,1,0.3c0.5,0.3,0.9,0.8,1,1.4l1,5.5c0.1,0.6,0,1.1-0.4,1.6c-0.3,0.4-0.9,0.7-1.4,0.8
			c-1.1,0.1-1.1,0.1-4.2,0.6l-7.6,1.2l0.6,3.5l8.8-1.4c1.7-0.3,3.3-0.6,4.5-1c0.2-0.1,0.4-0.1,0.6-0.1c0.4,0,0.7,0.1,1,0.3
			c0.5,0.3,0.8,0.8,0.9,1.3l1,5.5c0.1,0.6,0,1.2-0.4,1.6c-0.4,0.5-0.9,0.7-1.5,0.8l-0.2,0c-0.8,0-0.9,0-1.7,0.2c-0.1,0-0.2,0-0.4,0
			c-0.1,0-0.2,0-0.3,0c0,0-1.9,0.3-1.9,0.3l-8.8,1.4l1.3,6.8c0.5,2.9,0.6,3,1,4.4c0.2,0.5,0.1,1.2-0.2,1.6c-0.3,0.5-0.8,0.8-1.4,0.9
			l-6.1,1.1C240.1,139.1,240,139.1,239.9,139.1z"/>
		<path fill="#FFFFFF" d="M238.7,96.6c0,1.2,0.2,2.5,0.5,4.3l0.7,4l9.6-1.5c2.2-0.4,3.2-0.6,4.4-1l1,5.5c-1.2,0.1-1.2,0.1-4.4,0.6
			l-9.6,1.5l1.4,7.5l10.7-1.7c1.9-0.3,3.5-0.7,4.7-1l1,5.5c-1,0-1.1,0-2.1,0.2c-0.3,0-0.5,0-0.7,0.1c-0.3,0-0.9,0.1-1.8,0.3
			l-10.8,1.7l1.6,8.8c0.5,3,0.6,3.1,1.1,4.7l-6.1,1.1c0-1.4-0.2-2.6-0.6-4.8l-1.6-9l-11.3,1.8c-2.2,0.4-3,0.5-4.6,1l-0.9-5.6
			c1.5,0,2.9-0.1,4.8-0.5l11.1-1.8l-1.4-7.5l-8.5,1.3c-2.1,0.4-3.8,0.7-5,1l-0.9-5.6c1.6,0,3.1-0.2,5-0.5l8.5-1.3l-0.7-3.9
			c-0.4-2.2-0.6-3-1.1-4.3L238.7,96.6 M238.7,92.6c-0.2,0-0.4,0-0.6,0l-6,1c-1.2,0.2-2.2,0.9-2.8,2c-0.6,1.1-0.7,2.3-0.3,3.4
			c0.4,0.9,0.5,1.4,0.9,3.4l-4.4,0.7c-1.9,0.3-3.2,0.4-4.5,0.5c-1.2,0-2.2,0.6-3,1.4s-1.1,2.1-0.9,3.2l0.9,5.6
			c0.2,1.1,0.8,2.1,1.8,2.7c0,0,0.1,0,0.1,0.1c-0.8,0.2-1.5,0.6-2.1,1.3c-0.8,0.9-1.1,2.1-0.9,3.2l0.9,5.6c0.2,1.1,0.8,2.1,1.8,2.7
			c0.6,0.4,1.4,0.6,2.2,0.6c0.4,0,0.7,0,1.1-0.1c1.5-0.4,2.1-0.6,4.2-0.9l7.4-1.2l0.9,5.1c0.3,1.9,0.5,3,0.5,4.2
			c0,1.2,0.6,2.2,1.5,3c0.7,0.6,1.6,0.9,2.5,0.9c0.2,0,0.5,0,0.7-0.1l6.1-1.1c1.1-0.2,2.1-0.9,2.7-1.9s0.7-2.2,0.4-3.3
			c-0.5-1.4-0.5-1.4-1-4.2l-0.9-4.8l6.8-1.1l0.7-0.1c0.5-0.1,0.9-0.1,1.1-0.2c0.1,0,0.1,0,0.2,0c0,0,0.1,0,0.1,0
			c0.2,0,0.4,0,0.6-0.1c0.6-0.1,0.6-0.1,1.4-0.2l0.2,0c1.2-0.1,2.2-0.6,2.9-1.5c0.7-0.9,1-2.1,0.8-3.2l-1-5.5
			c-0.2-1.1-0.9-2.1-1.8-2.7c-0.6-0.4-1.4-0.6-2.1-0.6h0c0.1-0.1,0.2-0.2,0.3-0.4c0.7-0.9,1-2,0.8-3.1l-1-5.5
			c-0.2-1.2-0.9-2.2-1.9-2.8c-0.6-0.4-1.3-0.6-2-0.6c-0.4,0-0.9,0.1-1.3,0.2c-0.9,0.3-1.6,0.5-3.7,0.8l-5.7,0.9l0-0.1
			c-0.3-1.7-0.4-2.8-0.5-3.7c0-1.1-0.6-2.2-1.5-2.9C240.5,93,239.6,92.6,238.7,92.6L238.7,92.6z"/>
	</g>
	<g>
		<path d="M281.4,139.2c-0.5,0-0.9-0.2-1.3-0.5c-0.5-0.4-0.7-0.9-0.7-1.5c0-1.1-0.1-2-0.3-3.3l-2.7-15.1l-2,0.3
			c-1.5,0.3-2.5,0.5-3.7,0.9c-0.2,0.1-0.4,0.1-0.7,0.1c-0.4,0-0.7-0.1-1-0.3c-0.5-0.3-0.9-0.8-1-1.4l-1-5.2c-0.1-0.6,0-1.2,0.4-1.6
			c0.4-0.5,0.9-0.7,1.5-0.7c1.3,0,2.4-0.1,4-0.4l1.7-0.3l-0.3-1.6c-0.4-1.9-0.4-2.2-0.8-3c-0.2-0.6-0.2-1.2,0.1-1.7s0.8-0.9,1.4-1
			l5.4-0.8c0.1,0,0.2,0,0.3,0c0.5,0,0.9,0.2,1.3,0.5c0.4,0.4,0.7,0.9,0.7,1.5c0,0.7,0.1,1.6,0.4,3.1l0.3,1.6l11.7-2
			c1.2-0.2,1.8-0.4,2.6-0.7c0.2-0.1,0.5-0.1,0.7-0.1c0.5,0,1,0.2,1.3,0.5l3.2,2.9c0.7,0.7,0.9,1.8,0.3,2.6c-0.3,0.4-0.5,0.8-0.9,1.8
			c-2.1,5.4-4.9,9-9.6,12.7c-0.4,0.3-0.8,0.4-1.2,0.4c-0.5,0-1.1-0.2-1.5-0.6c-1.5-1.6-2-2-3.7-2.8c-0.1,0-0.1-0.1-0.2-0.1l1.7,8.8
			c0.4,2.4,0.4,2.4,0.8,3.4c0.2,0.6,0.1,1.2-0.2,1.7c-0.3,0.5-0.8,0.9-1.4,1l-5.7,1C281.6,139.2,281.5,139.2,281.4,139.2z
			 M286,120.6c0.2-0.2,0.4-0.4,0.6-0.6c1.7-1.1,3.2-2.3,4.4-3.7l-5.7,0.9L286,120.6z"/>
		<path fill="#FFFFFF" d="M281,104.1c0,0.9,0.1,1.9,0.5,3.5l0.7,3.5l13.6-2.3c1.3-0.2,2.1-0.4,3-0.8l3.2,2.9
			c-0.4,0.6-0.7,1.1-1.1,2.2c-2,5.1-4.6,8.5-9,11.8c-1.6-1.7-2.3-2.2-4.2-3.2c3.4-2.1,5.9-4.7,7.7-8.2c-0.5,0.1-0.5,0.1-1.7,0.3
			l-10.7,1.8l3.2,16.9c0.5,2.5,0.5,2.5,0.9,3.7l-5.7,1c0-1.2-0.1-2.2-0.4-3.7l-3.1-17l-3.9,0.6c-1.6,0.3-2.7,0.5-4,1l-1-5.2
			c1.5,0,2.6-0.1,4.3-0.4l3.8-0.6l-0.7-3.6c-0.4-2-0.5-2.4-0.9-3.4L281,104.1 M281,100.1c-0.2,0-0.4,0-0.6,0L275,101
			c-1.2,0.2-2.3,0.9-2.9,2s-0.7,2.4-0.2,3.5c0.2,0.6,0.3,0.7,0.6,2.2c-1.4,0.2-2.3,0.3-3.4,0.3c-1.2,0-2.3,0.5-3.1,1.4
			c-0.8,0.9-1.1,2.1-0.9,3.3l1,5.2c0.2,1.1,0.9,2.1,1.9,2.7c0.6,0.4,1.3,0.5,2,0.5c0.4,0,0.9-0.1,1.3-0.2c1.1-0.4,2-0.6,3.4-0.8l0,0
			l2.4,13.1c0.3,1.4,0.3,2.1,0.3,3c0,1.2,0.5,2.3,1.4,3.1c0.7,0.6,1.6,0.9,2.6,0.9c0.2,0,0.5,0,0.7-0.1l5.7-1
			c1.2-0.2,2.2-0.9,2.8-1.9c0.6-1,0.7-2.2,0.3-3.3c-0.3-0.9-0.3-0.9-0.7-3.1l-0.7-3.7c0.7,0.5,1.6,0.8,2.4,0.8
			c0.9,0,1.7-0.3,2.4-0.8c4.9-3.8,8-7.8,10.2-13.5c0.4-0.9,0.5-1.1,0.7-1.4c1.1-1.7,0.9-3.9-0.6-5.3l-3.2-2.9c-0.7-0.7-1.7-1-2.7-1
			c-0.5,0-1,0.1-1.5,0.3c-0.6,0.2-1.1,0.4-2.1,0.5c0,0-0.1,0-0.1,0l-9.8,1.6c-0.2-1.2-0.3-1.9-0.3-2.4c0-1.2-0.5-2.3-1.4-3
			C282.9,100.4,282,100.1,281,100.1L281,100.1z"/>
	</g>
	<g>
		<path d="M313.4,136.8c-0.3,0-0.6-0.1-0.9-0.2c-0.5-0.3-0.9-0.7-1-1.2l-1.7-6.3c-0.2-0.6,0-1.2,0.3-1.7c0.4-0.5,0.9-0.8,1.5-0.8
			c3.8-0.2,8.9-1.5,12.8-3.2c5.4-2.3,9.3-5.5,12.7-10.5c1.9-2.8,3.1-5.1,4.4-8.7c0.2-0.7,0.8-1.2,1.5-1.3c0.1,0,0.2,0,0.3,0
			c0.6,0,1.2,0.3,1.5,0.7c1.7,2,2.3,2.6,4.4,4.1c0.8,0.6,1.1,1.6,0.7,2.5c-4.1,8.7-8.6,14.3-15.1,18.7c-4.9,3.2-10.8,5.6-18,7.1
			c-1.7,0.3-1.8,0.4-2.8,0.7C313.8,136.8,313.6,136.8,313.4,136.8z M323.4,116c-0.5,0-1.1-0.2-1.5-0.6c-3.6-3.8-7.1-6.6-11.1-8.9
			c-0.5-0.3-0.9-0.8-1-1.4c-0.1-0.6,0.1-1.2,0.4-1.6L314,99c0.4-0.5,1-0.7,1.5-0.7c0.4,0,0.7,0.1,1.1,0.3c5.6,3.5,8.5,5.7,12.1,9
			c0.8,0.7,0.8,1.9,0.2,2.7l-3.9,5C324.6,115.7,324.1,116,323.4,116C323.5,116,323.4,116,323.4,116z"/>
		<path fill="#FFFFFF" d="M315.6,100.2c5.4,3.4,8.2,5.5,11.8,8.8l-3.9,5c-3.6-3.9-7.4-6.9-11.6-9.2L315.6,100.2 M343.3,104.9
			c1.8,2.1,2.5,2.8,4.8,4.5c-3.9,8.3-8.2,13.7-14.4,17.9c-4.6,3.1-10.3,5.3-17.4,6.8c-1.8,0.4-2,0.4-3,0.8l-1.7-6.3
			c3.9-0.2,9.3-1.5,13.5-3.4c5.7-2.5,9.9-6,13.5-11.2C340.7,111.1,342,108.6,343.3,104.9 M315.6,96.2c-1.1,0-2.3,0.5-3.1,1.4
			l-3.8,4.5c-0.8,0.9-1.1,2.1-0.9,3.3c0.2,1.2,0.9,2.2,2,2.8c3.8,2.1,7.2,4.8,10.7,8.5c0.8,0.8,1.8,1.3,2.9,1.3c0.1,0,0.1,0,0.2,0
			c1.2-0.1,2.2-0.6,3-1.5l3.9-5c1.3-1.6,1.1-4-0.4-5.4c-3.7-3.5-6.7-5.7-12.4-9.3C317,96.4,316.3,96.2,315.6,96.2L315.6,96.2z
			 M343.4,100.9c-0.2,0-0.4,0-0.7,0.1c-1.4,0.2-2.6,1.2-3.1,2.6c-1.3,3.4-2.4,5.6-4.2,8.2c-3.2,4.6-6.8,7.6-11.8,9.8
			c-3.6,1.6-8.6,2.8-12.1,3c-1.2,0.1-2.3,0.7-3,1.7c-0.7,1-0.9,2.2-0.6,3.4l1.7,6.3c0.3,1.1,1,2,2,2.5c0.6,0.3,1.2,0.5,1.9,0.5
			c0.4,0,0.9-0.1,1.3-0.2c0.9-0.3,0.9-0.3,2.5-0.6c7.6-1.6,13.7-4,18.8-7.4c6.9-4.6,11.6-10.4,15.8-19.5c0.8-1.8,0.3-3.8-1.3-5
			c-2-1.4-2.5-1.9-4.1-3.7C345.7,101.4,344.5,100.9,343.4,100.9L343.4,100.9z"/>
	</g>
	<g>
		<path d="M394.8,134.8c-0.5,0-1-0.2-1.4-0.5c-9.1-8.4-11.2-10.4-19.4-19.4c-0.9-1-1.7-1.9-2.1-2.3c-0.4,0.5-0.9,1.2-1.2,1.6
			c-1.8,2.4-4.8,6.1-8.2,10.2c-0.6,0.6-0.8,0.9-1.2,1.5l-0.3,0.4c-0.4,0.5-1,0.8-1.6,0.8c0,0,0,0-0.1,0c-0.6,0-1.2-0.3-1.6-0.9
			l-3.9-5.6c-0.3-0.4-0.4-1-0.3-1.5c0.1-0.5,0.4-1,0.8-1.3c0.7-0.5,0.9-0.6,1.3-1.1c1.2-1.2,5.6-6.3,8-9.5c1.7-2.3,2.8-3.4,4-4.1
			c1.2-0.8,2.6-1.2,4.1-1.2c3.3,0,4.9,1.5,8.3,5.3c4.7,5.3,9.4,9.8,14.6,14.3c2.4,2.1,3.1,2.7,4.1,3.3c0.9,0.5,1.2,1.6,0.8,2.5
			l-2.9,6.2c-0.3,0.6-0.8,1-1.4,1.1C395.1,134.7,395,134.8,394.8,134.8z M389.5,112.3c-3.9,0-7-3.1-7-7c0-3.9,3.1-7,7-7s7,3.1,7,7
			C396.5,109.2,393.3,112.3,389.5,112.3z M389.5,104.7c-0.3,0-0.6,0.3-0.6,0.6c0,0.3,0.3,0.6,0.6,0.6s0.6-0.3,0.6-0.6
			C390.1,105,389.8,104.7,389.5,104.7z"/>
		<path fill="#FFFFFF" d="M389.5,100.3c2.8,0,5,2.2,5,5c0,2.8-2.2,5-5,5c-2.7,0-5-2.3-5-5C384.4,102.6,386.7,100.3,389.5,100.3
			 M389.5,107.9c1.4,0,2.6-1.2,2.6-2.6c0-1.5-1.1-2.6-2.6-2.6c-1.4,0-2.6,1.2-2.6,2.6S388,107.9,389.5,107.9 M371.8,103.9
			c2.2,0,3.3,0.7,6.8,4.6c4.7,5.2,9.4,9.9,14.8,14.5c2.4,2.1,3.2,2.8,4.3,3.5l-2.9,6.2c-9.1-8.4-11.2-10.4-19.3-19.3
			c-2.9-3.2-2.9-3.2-3.7-3.2c-0.7,0-0.9,0.1-2.8,2.6c-1.9,2.6-5,6.3-8.2,10.2c-0.7,0.8-0.9,1.1-1.5,1.9l-3.9-5.6
			c0.7-0.5,1.1-0.8,1.6-1.4c1.3-1.3,5.8-6.6,8.2-9.7c1.5-2.1,2.5-3.1,3.4-3.6C369.7,104.2,370.7,103.9,371.8,103.9 M389.5,96.3
			c-4.7,0-8.6,3.7-9,8.3c-3-3.2-5-4.7-8.6-4.7c-1.9,0-3.7,0.5-5.2,1.5c-1.6,1-2.9,2.5-4.5,4.5c-2.4,3.1-6.7,8.1-7.8,9.3
			c0,0-0.1,0.1-0.1,0.1c-0.3,0.3-0.4,0.4-1,0.8c-0.9,0.6-1.5,1.5-1.7,2.6s0,2.1,0.6,3l3.9,5.6c0.7,1,1.9,1.7,3.2,1.7
			c0,0,0.1,0,0.1,0c1.2,0,2.4-0.6,3.2-1.5l0.3-0.4c0.4-0.5,0.6-0.8,1.1-1.3c0,0,0.1-0.1,0.1-0.1c3.4-4,6.2-7.6,8.1-10
			c0.2,0.2,0.3,0.4,0.5,0.6c8.3,9.1,10.4,11.1,19.5,19.5c0.7,0.7,1.7,1.1,2.7,1.1c0.3,0,0.5,0,0.8-0.1c1.3-0.3,2.3-1.1,2.8-2.3
			l2.9-6.2c0.8-1.8,0.2-4-1.5-5.1c-0.8-0.5-1.5-1.1-3.8-3.1c-2.2-1.9-4.2-3.8-6.2-5.7c4.8-0.2,8.7-4.1,8.7-9
			C398.5,100.4,394.4,96.3,389.5,96.3L389.5,96.3z"/>
	</g>
	<g>
		<path d="M444.3,121.7c-0.1,0-0.2,0-0.2,0c-1.7-0.2-2.1-0.2-7.2-0.2h-24.2c-5.1,0-5.5,0-7.2,0.2c-0.1,0-0.2,0-0.2,0
			c-0.5,0-1-0.2-1.3-0.5c-0.4-0.4-0.7-0.9-0.7-1.5v-6.3c0-0.6,0.3-1.1,0.7-1.5c0.4-0.3,0.8-0.5,1.3-0.5c0.1,0,0.2,0,0.3,0
			c1.8,0.3,2.6,0.3,7.1,0.3h24.3c4.5,0,5.3,0,7.1-0.3c0.1,0,0.2,0,0.3,0c0.5,0,0.9,0.2,1.3,0.5c0.4,0.4,0.7,0.9,0.7,1.5v6.3
			c0,0.6-0.2,1.1-0.7,1.5C445.2,121.5,444.7,121.7,444.3,121.7z"/>
		<path fill="#FFFFFF" d="M444.3,113.4v6.3c-1.8-0.2-2.3-0.2-7.4-0.2h-24.2c-5.1,0-5.6,0-7.4,0.2v-6.3c2,0.3,2.9,0.3,7.4,0.3h24.3
			C441.4,113.7,442.3,113.6,444.3,113.4 M444.3,109.4c-0.2,0-0.4,0-0.5,0c-1.8,0.2-2.4,0.3-6.8,0.3h-24.3c-4.4,0-5.1,0-6.8-0.3
			c-0.2,0-0.4,0-0.5,0c-1,0-1.9,0.3-2.6,1c-0.9,0.8-1.4,1.9-1.4,3v6.3c0,1.1,0.5,2.2,1.4,3c0.7,0.6,1.7,1,2.6,1c0.2,0,0.3,0,0.5,0
			c1.5-0.2,1.8-0.2,6.9-0.2h24.2c5.1,0,5.4,0,6.9,0.2c0.2,0,0.3,0,0.5,0c1,0,1.9-0.4,2.6-1c0.9-0.8,1.4-1.9,1.4-3v-6.3
			c0-1.2-0.5-2.3-1.4-3C446.2,109.7,445.2,109.4,444.3,109.4L444.3,109.4z"/>
	</g>
	<g>
		<path d="M452.5,136.8c-0.3,0-0.6-0.1-0.9-0.2c-0.5-0.3-0.9-0.7-1-1.3l-1.7-6.3c-0.2-0.6,0-1.2,0.3-1.7c0.4-0.5,0.9-0.8,1.5-0.8
			c3.8-0.2,8.9-1.5,12.8-3.2c5.4-2.3,9.3-5.5,12.7-10.5c1.9-2.8,3.1-5.1,4.4-8.7c0.2-0.7,0.8-1.2,1.5-1.3c0.1,0,0.2,0,0.3,0
			c0.6,0,1.2,0.3,1.5,0.7c1.7,2,2.3,2.6,4.4,4.1c0.8,0.6,1.1,1.6,0.7,2.5c-4.1,8.7-8.6,14.3-15.1,18.7c-4.9,3.2-10.8,5.6-18,7.1
			c-1.7,0.3-1.8,0.4-2.8,0.7C453,136.8,452.7,136.8,452.5,136.8z M462.5,116c-0.6,0-1.1-0.2-1.5-0.6c-3.6-3.8-7.1-6.6-11.1-8.9
			c-0.5-0.3-0.9-0.8-1-1.4c-0.1-0.6,0.1-1.2,0.4-1.6l3.8-4.5c0.4-0.5,1-0.7,1.5-0.7c0.4,0,0.7,0.1,1.1,0.3c5.6,3.5,8.5,5.7,12.1,9
			c0.8,0.7,0.8,1.9,0.2,2.7l-3.9,5C463.7,115.7,463.2,116,462.5,116C462.6,116,462.6,116,462.5,116z"/>
		<path fill="#FFFFFF" d="M454.7,100.2c5.4,3.4,8.2,5.5,11.8,8.8l-3.9,5c-3.6-3.9-7.4-6.9-11.6-9.2L454.7,100.2 M482.5,104.9
			c1.8,2.1,2.5,2.8,4.8,4.5c-3.9,8.3-8.2,13.7-14.4,17.9c-4.6,3.1-10.3,5.3-17.4,6.8c-1.8,0.4-2,0.4-3,0.8l-1.7-6.3
			c3.9-0.2,9.3-1.5,13.5-3.4c5.7-2.5,9.9-6,13.5-11.2C479.8,111.1,481.1,108.6,482.5,104.9 M454.7,96.2c-1.1,0-2.3,0.5-3.1,1.4
			l-3.8,4.5c-0.8,0.9-1.1,2.1-0.9,3.3c0.2,1.2,0.9,2.2,2,2.8c3.8,2.1,7.2,4.8,10.7,8.5c0.8,0.8,1.8,1.3,2.9,1.3c0.1,0,0.1,0,0.2,0
			c1.2-0.1,2.2-0.6,3-1.5l3.9-5c1.3-1.6,1.1-4-0.4-5.4c-3.7-3.5-6.7-5.7-12.4-9.3C456.2,96.4,455.4,96.2,454.7,96.2L454.7,96.2z
			 M482.5,100.9c-0.2,0-0.4,0-0.7,0.1c-1.4,0.2-2.6,1.2-3.1,2.6c-1.3,3.4-2.4,5.6-4.2,8.2c-3.2,4.6-6.8,7.6-11.8,9.8
			c-3.6,1.6-8.6,2.8-12.1,3c-1.2,0.1-2.3,0.7-3,1.7c-0.7,1-0.9,2.2-0.6,3.4l1.7,6.3c0.3,1.1,1,2,2,2.5c0.6,0.3,1.2,0.5,1.9,0.5
			c0.4,0,0.9-0.1,1.3-0.2c0.9-0.3,0.9-0.3,2.5-0.6c0,0,0,0,0,0c7.5-1.6,13.7-4,18.7-7.4c6.9-4.6,11.6-10.4,15.8-19.5
			c0.8-1.8,0.3-3.8-1.3-5c-2-1.4-2.5-1.9-4.1-3.8C484.8,101.4,483.7,100.9,482.5,100.9L482.5,100.9z"/>
	</g>
	<g>
		<path d="M535.2,139.8c-0.2,0-0.3,0-0.5-0.1c-4.3-1-6.3-1.6-8.9-2.8c-4.2-1.9-7.2-4-9.8-7c-1.5,2.1-3.3,3.8-5.8,5.3
			c-3.5,2.2-6.6,3.3-11.8,4.4c-0.1,0-0.3,0-0.4,0c-0.8,0-1.6-0.5-1.9-1.3c-0.8-2.2-1-2.5-2.2-4.3c-0.4-0.6-0.5-1.3-0.2-1.9
			c0.3-0.6,0.9-1.1,1.6-1.2c4.5-0.6,6.7-1.2,9.3-2.6c0.9-0.5,1.7-1,2.4-1.6h-5.8c-1.6,0-3,0.1-4.7,0.3c-0.1,0-0.1,0-0.2,0
			c-0.5,0-1-0.2-1.3-0.5c-0.4-0.4-0.7-0.9-0.7-1.5v-4.8c0-0.6,0.3-1.1,0.7-1.5c0.4-0.3,0.8-0.5,1.3-0.5c0.1,0,0.2,0,0.3,0
			c0.8,0.1,1.6,0.2,2.9,0.2c0-0.1,0-0.2,0-0.3V114c0-0.2,0-0.4,0.1-0.6c0,0,0,0,0,0c-0.5-0.4-0.7-0.9-0.7-1.5v-0.4h-2.2
			c-0.6,0-1.2-0.3-1.5-0.7c-0.4-0.5-0.5-1-0.4-1.6c0.2-0.9,0.2-1.6,0.2-3v-3.4c0-1.2,0-2.1-0.2-3.2c-0.1-0.6,0.1-1.2,0.6-1.6
			c0.4-0.4,0.9-0.6,1.4-0.6c0.1,0,0.1,0,0.2,0c1.4,0.1,2.6,0.2,4.8,0.2h9.8c0-0.5-0.1-1-0.2-1.6c-0.1-0.6,0.1-1.2,0.4-1.6
			s0.9-0.7,1.5-0.7h5.6c0.6,0,1.2,0.3,1.5,0.7c0.4,0.5,0.5,1.1,0.4,1.7c-0.1,0.5-0.1,0.9-0.2,1.5h10.5c2.2,0,3.4,0,4.9-0.2
			c0.1,0,0.1,0,0.2,0c0.5,0,1.1,0.2,1.4,0.6c0.4,0.4,0.6,1,0.6,1.6c-0.1,1-0.2,1.9-0.2,3.1v3.5c0,1.3,0,2.2,0.2,3.1
			c0.1,0.6-0.1,1.1-0.5,1.6c-0.4,0.4-0.9,0.7-1.5,0.7h-2.2v0.4c0,0.6-0.3,1.1-0.7,1.5c-0.1,0.1-0.2,0.2-0.3,0.2c0,0.1,0,0.2,0,0.3
			v4.3c0,0.1,0,0.2,0,0.3c1.6,0,2.5-0.1,3.4-0.2c0.1,0,0.2,0,0.3,0c0.5,0,0.9,0.2,1.3,0.5c0.4,0.4,0.7,0.9,0.7,1.5v4.8
			c0,0.6-0.2,1.1-0.7,1.5c-0.4,0.3-0.8,0.5-1.3,0.5c-0.1,0-0.1,0-0.2,0c-1.5-0.2-2.7-0.3-4.7-0.3h-6.5c0.1,0,0.1,0.1,0.2,0.1
			c1.8,1.1,4.4,2.1,7.4,2.8c1.1,0.3,2.5,0.6,4.9,1c0.7,0.1,1.2,0.6,1.5,1.2c0.3,0.6,0.2,1.3-0.2,1.9c-1,1.6-1.6,2.8-2.1,4.4
			C536.8,139.3,536.1,139.8,535.2,139.8z"/>
		<path fill="#FFFFFF" d="M519,95.6c-0.2,0.9-0.2,1.7-0.2,2.9v1h12.5c2.3,0,3.5,0,5.1-0.2c-0.1,1.1-0.2,2.1-0.2,3.3v3.5
			c0,1.3,0,2.3,0.2,3.4h-4.2v2.4c-1.1-0.2-2.2-0.2-4.3-0.2h-9.2c0,1.5,0,1.5-0.1,2.5h8.5c2.2,0,3,0,4.1-0.2v4.3
			c-1.2-0.1-1.9-0.2-4.1-0.2h-8.8c-0.1,1.1-0.2,1.5-0.4,2.5h14.2c2.3,0,3.4,0,4.7-0.2v4.8c-1.6-0.2-2.9-0.3-4.9-0.3h-11.6
			c1.6,2,2.5,2.7,4.2,3.8c2,1.2,4.8,2.3,8,3.1c1.1,0.3,2.5,0.6,5.1,1c-1,1.6-1.8,3-2.4,4.9c-4.2-1-6.1-1.6-8.5-2.6
			c-4.9-2.2-8-4.6-10.8-8.7c-1.6,3.1-3.6,5.2-6.7,7.2c-3.2,2-6.1,3.1-11.1,4.1c-0.8-2.3-1.1-2.8-2.4-4.7c4.8-0.7,7.2-1.4,9.9-2.8
			c2.6-1.4,4.4-3,5.8-5.3h-10.1c-1.8,0-3.2,0.1-4.9,0.3v-4.8c1.2,0.2,2.3,0.2,4.6,0.2H513c0.2-0.9,0.3-1.4,0.4-2.5h-7.7
			c-2.2,0-2.9,0-4.1,0.2V114c1.1,0.1,1.9,0.2,4.1,0.2h8c0-1.3,0-1.3,0-2.5h-8.5c-2.1,0-3.2,0-4.3,0.2v-2.4h-4.2
			c0.2-1,0.2-1.9,0.2-3.4v-3.4c0-1.2,0-2.2-0.2-3.4c1.5,0.1,2.7,0.2,5,0.2h11.8v-1c0-1.1-0.1-1.9-0.3-2.9H519 M505.2,107.7h8.6
			c0-1.5,0-2.1-0.2-2.9h5.3c-0.1,0.5-0.1,1.1-0.2,2.9h9.1c1.7,0,2.5,0,3.6-0.1v-3.7h-29.7v3.7C502.5,107.7,503.5,107.7,505.2,107.7
			 M519,91.6h-5.6c-1.2,0-2.3,0.5-3.1,1.4c-0.6,0.7-0.9,1.6-0.9,2.5h-7.6c-2.2,0-3.3,0-4.6-0.2c-0.1,0-0.2,0-0.4,0
			c-1.1,0-2.1,0.4-2.9,1.2c-0.8,0.9-1.3,2.1-1.1,3.3c0.1,1,0.2,1.8,0.2,3v3.4c0,1.3,0,1.9-0.2,2.7c-0.2,1.2,0.1,2.4,0.9,3.3
			c0.8,0.9,1.9,1.4,3.1,1.4h0.5c0.1,0.2,0.2,0.4,0.3,0.6v2.4c-0.2,0-0.4,0-0.6-0.1c-0.2,0-0.4,0-0.6,0c-1,0-1.9,0.3-2.6,1
			c-0.9,0.8-1.4,1.9-1.4,3v4.8c0,1.1,0.5,2.2,1.3,3c0.5,0.4,1,0.7,1.6,0.9c-0.1,0-0.1,0-0.2,0c-1.4,0.2-2.5,1.1-3.1,2.4
			c-0.6,1.3-0.4,2.7,0.4,3.9c1.1,1.6,1.2,1.8,1.9,3.8c0.6,1.6,2.1,2.7,3.8,2.7c0.3,0,0.5,0,0.8-0.1c5.4-1.1,8.8-2.3,12.5-4.6
			c1.9-1.2,3.5-2.5,4.8-4c2.4,2.3,5.2,4.1,8.9,5.8c2.7,1.2,4.9,1.9,9.2,2.9c0.3,0.1,0.6,0.1,0.9,0.1c1.7,0,3.3-1.1,3.8-2.8
			c0.4-1.4,0.9-2.5,1.9-3.9c0.7-1.1,0.9-2.5,0.3-3.8s-1.6-2.1-3-2.4c0,0-0.1,0-0.1,0c0.5-0.2,0.9-0.4,1.3-0.8c0.8-0.8,1.3-1.8,1.3-3
			v-4.8c0-1.2-0.5-2.3-1.4-3c-0.7-0.6-1.7-1-2.6-1c-0.2,0-0.4,0-0.6,0c-0.4,0.1-0.7,0.1-1.1,0.1v-2c0.3-0.3,0.5-0.7,0.7-1.1h0.5
			c1.2,0,2.2-0.5,3-1.4c0.8-0.9,1.1-2,1-3.2c-0.1-0.8-0.2-1.7-0.2-2.9v-3.5c0-1.1,0-1.9,0.2-2.9c0.1-1.2-0.3-2.4-1.1-3.3
			c-0.8-0.8-1.8-1.2-2.9-1.2c-0.1,0-0.2,0-0.4,0c-1.5,0.1-2.6,0.2-4.7,0.2H523c0-0.9-0.3-1.8-0.9-2.5
			C521.3,92.2,520.2,91.6,519,91.6L519,91.6z"/>
	</g>
	<g>
		<path d="M548,139.6c-0.7,0-1.3-0.4-1.6-0.9c-1.1-1.7-1.9-2.6-3.1-3.7c-0.8-0.7-0.9-1.8-0.3-2.6c2.4-3.5,3.4-6.5,4.1-12
			c0.6-4.5,0.7-6,0.8-11.7c-1,0-1.6,0.1-1.9,0.2c-0.1,0-0.2,0-0.3,0c-0.5,0-0.9-0.2-1.3-0.5c-0.4-0.4-0.7-0.9-0.7-1.5v-4.9
			c0-0.6,0.3-1.1,0.7-1.5c0.4-0.3,0.8-0.5,1.3-0.5c0.1,0,0.2,0,0.3,0c1.2,0.2,1.9,0.2,3.9,0.2h0.6v-0.4c0-1.5-0.1-2.6-0.3-3.7
			c-0.1-0.6,0.1-1.2,0.5-1.6c0.4-0.4,0.9-0.7,1.5-0.7h5.4c0.6,0,1.1,0.3,1.5,0.7s0.6,1,0.5,1.6c-0.2,1.2-0.2,1.9-0.2,3.7v0.4
			c1.9,0,2.8,0,3.8-0.2c0.1,0,0.2,0,0.3,0c0.2,0,0.5,0,0.7,0.1c0.9-1.9,1.6-3.7,1.8-5c0.1-0.5,0.4-1,0.8-1.3
			c0.3-0.2,0.7-0.3,1.1-0.3c0.1,0,0.3,0,0.4,0l5.1,1c0.7,0.1,1.2,0.6,1.5,1.2s0.2,1.3-0.2,1.9c-0.1,0.1-0.2,0.3-0.5,1.3l0,0h8.6
			c1.9,0,3.3-0.1,4.4-0.2c0.1,0,0.2,0,0.3,0c0.5,0,0.9,0.2,1.3,0.5c0.4,0.4,0.7,0.9,0.7,1.5v4.9c0,0.6-0.2,1.1-0.6,1.5
			c-0.4,0.3-0.9,0.5-1.4,0.5c-0.1,0-0.1,0-0.2,0c-0.1,0-0.2,0-0.3,0c0.1,0,0.1,0.1,0.2,0.1c0.6,0.4,0.9,1,0.9,1.7
			c-0.2,11.5-0.5,14.3-1.4,16.3c0,0.1-0.1,0.2-0.1,0.3c0.4,0.1,0.9,0.2,1.6,0.3c1,0.2,1.7,1.1,1.6,2.1c-0.4,4.1-1,7-3.1,8.7
			c-1.9,1.6-4,1.8-11.5,1.8c-7.2,0-12-0.4-12-6.4v-0.3c-0.4,2.4-1,3.8-1.8,4.8c-1.4,1.7-3.7,1.9-5.6,1.9c0,0,0,0,0,0
			c-0.3,0-0.3,0-1.7,0c0,0-0.1,0-0.1,0c-0.4,0-0.4,0-0.9,0c0,0-0.1,0-0.1,0c-1,0-1.9-0.8-2-1.7c-0.3,0.6-0.7,1.1-1.1,1.7
			C549.3,139.3,548.7,139.6,548,139.6C548,139.6,548,139.6,548,139.6z M571.4,130.3c0.5,0.1,1.3,0.1,2.7,0.1c2.3,0,5.8,0,6.8-0.2
			c0.1-0.3,0.1-0.9,0.2-1.6c-0.1,0-0.4,0-0.5,0c-0.3,0-0.3,0-1.2,0c-0.1,0.4-0.2,0.7-0.5,1c-0.4,0.4-0.9,0.7-1.5,0.7h-4.6
			c-0.5,0-1-0.2-1.4-0.6V130.3z M553.7,130.3c0.4,0.1,0.7,0.1,1,0.1c0.1-0.3,0.1-0.7,0.2-1.2c0.3-1.8,0.5-4.5,0.6-7.7
			c-0.3,2.5-0.6,4.3-1.1,6.2C554.2,128.6,554,129.5,553.7,130.3z M579.2,120.3c0-0.1,0-0.1,0-0.2c0.1-0.7,0.1-1.5,0.1-2.3l-0.2,0
			V120.3z M558.4,109.5c0-0.1,0-0.2,0-0.2c0-0.2,0-0.5,0.1-0.7h-2.1c0,0.4,0,0.7,0,0.9H558.4z M579.4,107.4
			c-0.1,0.5-0.2,1.1-0.2,1.9l2-0.6c0,0,0.1,0,0.1,0c0.1,0,0.7-0.2,1.3-0.4l0.4-0.1c0.3-0.1,0.6-0.2,0.8-0.3c0,0,0.1,0,0.1,0
			c0.5-0.1,0.6-0.1,0.9-0.3c0,0,0.2-0.1,0.2-0.1c-0.8,0-1.7-0.1-2.5-0.1H579.4z M569.9,107.5c0.4,0.1,0.7,0.2,1,0.4
			c0-0.2,0-0.4,0-0.5L569.9,107.5C569.9,107.5,569.9,107.5,569.9,107.5z"/>
		<path fill="#FFFFFF" d="M567.8,95.5l5.1,1c-0.2,0.3-0.5,0.9-0.8,1.7c-0.1,0.3-0.5,1-1.2,2.7h11.6c2,0,3.5-0.1,4.7-0.3v4.9
			c-1.1-0.1-3-0.2-4.6-0.2h-13.8c-0.9,1.5-1.5,2.5-2.6,4.1h3.4c-0.2,1.2-0.2,1.7-0.2,3.6v1l3.6-1v-2.5c0-1.6-0.1-3-0.2-3.8h4.7
			c-0.2,0.9-0.3,2-0.3,3.6v1.5l4.6-1.3c0.2,0,0.8-0.2,1.6-0.5c0.4-0.1,0.8-0.3,1.1-0.4c0.8-0.2,0.9-0.2,1.4-0.5
			c-0.2,11.1-0.5,13.8-1.2,15.5c-0.6,1.4-1.6,1.8-4.1,1.8c-0.3,0-0.3,0-1.8,0c-0.2-1.7-0.5-2.8-1-4.3c0.9,0.2,1.5,0.3,2.2,0.3
			c1,0,1.1-0.3,1.3-2.2c0.1-1.6,0.2-3.2,0.2-5.1l-4.2,1.2v8.1c0,2.1,0,2.7,0.2,3.8h-4.6c0.1-1.2,0.2-1.8,0.2-3.8v-6.9l-3.6,1v11.9
			c0,0.9,0.2,1.3,0.6,1.5c0.6,0.3,2,0.4,4.1,0.4c6.4,0,7.5-0.1,8.1-0.6c0.6-0.5,0.8-1.6,0.9-5c2.1,0.9,2.6,1,4.6,1.4
			c-0.4,4.2-1,6.2-2.4,7.3c-1.3,1.1-3,1.3-10.3,1.3c-8.1,0-10-0.8-10-4.4v-12.7c-0.6,0.2-1,0.4-1.5,0.6l-1.1-4.6l0.5-0.1
			c1-0.2,1.2-0.2,2.1-0.5V113c0-0.7,0-1.1,0-1.8c-0.4,0.5-0.6,0.8-1.1,1.5c-1.2-1.7-2-2.5-3.5-3.6c1-1.1,1.4-1.5,2-2.4
			c-1-0.1-1.6-0.1-3.2-0.1h-4.9c0,4.2,0,4.2-0.1,4.9h4.3c1.5,0,2.5,0,3.5-0.2c0,0.4-0.1,2.1-0.1,2.3c0,0.5,0,1,0,1.5
			c0,0.2,0,0.4,0,0.6c0,2.9-0.2,8.8-0.4,11.4c-0.4,5-0.9,7.4-1.9,8.6c-0.7,0.8-2,1.2-4.1,1.2c-0.3,0-0.3,0-1.6,0c-0.5,0-0.5,0-1.2,0
			c-0.1-2.1-0.3-3.2-0.9-4.8c0.3,0.1,0.5,0.1,0.6,0.1c1.1,0.2,1.8,0.3,2.5,0.3c1.3,0,1.5-0.4,1.9-2.9c0.5-2.9,0.7-7.9,0.8-13.6h-3.6
			c-0.5,5.5-0.8,8.3-1.5,11.3c-1,4.3-2.4,7.4-4.5,10.5c-1.2-1.9-2.1-3-3.5-4.1c2.6-3.8,3.7-7.1,4.4-12.9c0.7-5.1,0.7-6.5,0.8-14
			h-0.5c-1.6,0-2.9,0.1-3.7,0.2v-4.9c1.3,0.2,2.2,0.3,4.2,0.3h2.6v-2.4c0-1.6-0.1-2.8-0.3-4h5.4c-0.2,1.3-0.2,2.1-0.2,4v2.4h2
			c2,0,3,0,4.1-0.2v3.5C565.4,102.3,567.3,98,567.8,95.5 M567.8,91.5c-0.8,0-1.6,0.2-2.3,0.7c-0.9,0.6-1.5,1.5-1.7,2.6
			c-0.1,0.8-0.5,1.9-1.1,3.2c0,0,0,0-0.1,0c-0.5,0.1-0.9,0.1-1.5,0.1c0-0.7,0.1-1.2,0.2-1.8c0.2-1.1-0.2-2.3-0.9-3.2s-1.9-1.4-3-1.4
			h-5.4c-1.2,0-2.3,0.5-3,1.4c-0.8,0.9-1.1,2.1-0.9,3.2c0.1,0.6,0.1,1.1,0.2,1.8c-0.9,0-1.4-0.1-2.1-0.2c-0.2,0-0.5-0.1-0.7-0.1
			c-0.9,0-1.8,0.3-2.6,0.9c-0.9,0.8-1.4,1.9-1.4,3.1v4.9c0,1.2,0.5,2.3,1.4,3c0.7,0.6,1.7,1,2.6,1c0.1,0,0.1,0,0.2,0
			c-0.1,3.9-0.2,5.4-0.7,9.2c-0.7,5.2-1.6,7.9-3.8,11.2c-1.1,1.7-0.8,3.9,0.7,5.3c1.1,0.9,1.7,1.7,2.7,3.3c0.7,1.1,1.9,1.8,3.3,1.9
			c0,0,0.1,0,0.1,0c1.1,0,2.2-0.5,2.9-1.3c0.5,0.3,1.2,0.4,1.8,0.4c0.5,0,0.5,0,0.9,0c0.1,0,0.1,0,0.2,0c1.4,0,1.4,0,1.7,0
			c0,0,0,0,0.1,0c2.1,0,5.2-0.3,7.1-2.6c0.1-0.1,0.1-0.1,0.2-0.2c2.8,2.8,7.9,2.8,12,2.8c7.6,0,10.3-0.2,12.8-2.2
			c2.6-2.1,3.4-5.4,3.8-10.1c0.2-1.8-0.9-3.5-2.6-4.1c0.5-2.3,0.7-6.1,0.9-15.1c0-0.3,0-0.5-0.1-0.8c0,0,0.1-0.1,0.1-0.1
			c0.8-0.8,1.3-1.8,1.3-2.9v-4.9c0-1.2-0.5-2.3-1.4-3c-0.7-0.6-1.7-1-2.6-1c-0.2,0-0.4,0-0.6,0c-1,0.2-2.3,0.2-4.1,0.2h-5.7
			c0.1-0.7,0-1.3-0.3-1.9c-0.5-1.3-1.6-2.2-3-2.4l-5.1-1C568.3,91.5,568,91.5,567.8,91.5L567.8,91.5z"/>
	</g>
	<g>
		<path d="M613.2,139.8c-0.6,0-1.1-0.2-1.5-0.7c-0.4-0.4-0.6-1-0.5-1.6c0.2-1.7,0.3-3,0.3-5.4v-7.2h-6.8v0.7c0,1.1-0.9,2-2,2h-5.4
			c-0.6,0-1.1-0.2-1.5-0.7c-0.4-0.4-0.6-1-0.5-1.6c0.2-1.3,0.2-2.4,0.2-4.3v-13.9c0-1.6,0-2.4-0.2-3.8c-0.1-0.6,0.2-1.2,0.6-1.6
			c0.4-0.4,0.9-0.6,1.4-0.6c0.1,0,0.1,0,0.2,0c1.3,0.1,2.2,0.2,3.9,0.2h10v-0.8c0-2.4-0.1-3.4-0.3-4.7c-0.1-0.6,0.1-1.2,0.5-1.6
			s0.9-0.7,1.5-0.7h5.7c0.6,0,1.1,0.2,1.5,0.7s0.6,1,0.5,1.6c-0.2,1.3-0.3,2.4-0.3,4.5v1h10.5c1.9,0,2.8,0,3.9-0.2
			c0.1,0,0.2,0,0.2,0c0.5,0,1,0.2,1.4,0.6c0.4,0.4,0.6,1,0.6,1.6c-0.1,1.2-0.2,2.1-0.2,3.8v13.9c0,2.1,0.1,3.1,0.2,4.3
			c0.1,0.6-0.1,1.2-0.5,1.6s-0.9,0.7-1.5,0.7H630c-1.1,0-2-0.9-2-2v-0.7h-7.3v7.2c0,2.8,0.1,4,0.3,5.4c0.1,0.6-0.1,1.2-0.5,1.6
			s-0.9,0.7-1.5,0.7H613.2z M628,116.1v-5.9h-7.3v5.9H628z M611.5,116.1v-5.9h-6.8v5.9H611.5z"/>
		<path fill="#FFFFFF" d="M619,95.6c-0.2,1.4-0.3,2.6-0.3,4.8v3h12.5c2,0,3,0,4.1-0.2c-0.1,1.3-0.2,2.2-0.2,4v13.9
			c0,2,0,3.2,0.2,4.6H630v-2.7h-11.3v9.2c0,2.7,0.1,4.1,0.3,5.6h-5.8c0.2-1.7,0.3-3.1,0.3-5.6v-9.2h-10.8v2.7h-5.4
			c0.2-1.5,0.2-2.6,0.2-4.6v-13.9c0-1.7,0-2.5-0.2-4c1.3,0.1,2.3,0.2,4.1,0.2h12v-2.8c0-2.4,0-3.5-0.3-5H619 M618.7,118.1H630v-9.9
			h-11.3V118.1 M602.8,118.1h10.8v-9.9h-10.8V118.1 M619,91.6h-5.7c-1.2,0-2.3,0.5-3,1.4s-1.1,2.1-0.9,3.2c0.1,1,0.2,1.7,0.2,3.1h-8
			c-1.7,0-2.5,0-3.7-0.2c-0.1,0-0.3,0-0.4,0c-1,0-2.1,0.4-2.8,1.2c-0.9,0.8-1.3,2-1.2,3.2c0.1,1.3,0.2,2,0.2,3.6v13.9
			c0,1.9,0,2.8-0.2,4.1c-0.1,1.1,0.2,2.3,1,3.1c0.8,0.9,1.8,1.3,3,1.3h5.4c1.8,0,3.3-1.1,3.8-2.7h3v5.2c0,2.5-0.1,3.8-0.3,5.1
			c-0.2,1.1,0.2,2.3,1,3.2c0.8,0.9,1.9,1.4,3,1.4h5.8c1.2,0,2.3-0.5,3-1.4c0.8-0.9,1.1-2,0.9-3.2c-0.2-1.3-0.3-2.4-0.3-5.1v-5.2h3.5
			c0.5,1.6,2,2.7,3.8,2.7h5.4c1.2,0,2.3-0.5,3-1.4s1.1-2,0.9-3.2c-0.1-1.1-0.2-2-0.2-4v-13.9c0-1.6,0-2.4,0.2-3.6
			c0.1-1.2-0.3-2.4-1.2-3.3c-0.8-0.7-1.8-1.2-2.8-1.2c-0.2,0-0.3,0-0.5,0c-0.9,0.1-1.7,0.2-3.7,0.2h-8.5c0-1.4,0.1-2.2,0.2-3.2
			c0.1-1.1-0.2-2.3-1-3.2C621.2,92.1,620.1,91.6,619,91.6L619,91.6z M622.7,112.2h3.3v1.9h-3.3V112.2L622.7,112.2z M606.8,112.2h2.8
			v1.9h-2.8V112.2L606.8,112.2z"/>
	</g>
	<g>
		<path d="M651.2,136.8c-1.1,0-2-0.9-2-2v-6.2c0-1,0.7-1.8,1.7-2c-0.2-0.1-0.4-0.2-0.5-0.4c-0.4-0.4-0.6-0.9-0.6-1.5
			c0-0.4,0-0.7,0-0.9c0-0.4,0-0.7,0-1c0-0.5,0-0.5-0.1-3.1l-0.6-15.5c-0.1-3.2-0.3-4.7-0.4-5.4c-0.1-0.6,0.1-1.2,0.5-1.6
			s0.9-0.7,1.5-0.7h7.5c0.6,0,1.1,0.2,1.5,0.7c0.4,0.4,0.6,1,0.5,1.6c-0.1,1.1-0.3,3.4-0.4,5.4l-0.6,15.5c-0.1,2.6-0.1,2.6-0.1,3.2
			c0,0.5,0,0.9,0.1,1.7c0.1,0.6-0.1,1.1-0.5,1.5c-0.2,0.2-0.3,0.3-0.5,0.4c1,0.1,1.7,1,1.7,2v6.2c0,1.1-0.9,2-2,2H651.2z"/>
		<path fill="#FFFFFF" d="M658.2,98.6c-0.1,1.2-0.3,3.6-0.4,5.6l-0.6,15.5c-0.1,2.6-0.1,2.6-0.1,3.3c0,0.5,0,1,0.1,1.9h-5.3
			c0-1,0.1-1.4,0.1-2c0-0.5,0-0.5-0.1-3.2l-0.6-15.5c-0.1-2-0.2-4.3-0.4-5.6H658.2 M657.8,128.6v6.2h-6.6v-6.2H657.8 M658.2,94.6
			h-7.5c-1.2,0-2.3,0.5-3,1.4c-0.8,0.9-1.1,2-0.9,3.2c0.1,0.5,0.2,1.9,0.4,5.2l0.6,15.5c0.1,2.7,0.1,2.7,0.1,3.1c0,0.3,0,0.5,0,0.8
			c0,0.3,0,0.6-0.1,0.9c0,0.5,0,1,0.2,1.5c-0.5,0.7-0.8,1.5-0.8,2.5v6.2c0,2.2,1.8,4,4,4h6.6c2.2,0,4-1.8,4-4v-6.2
			c0-0.9-0.3-1.8-0.8-2.5c0.2-0.5,0.2-1.1,0.2-1.7c-0.1-0.7-0.1-1-0.1-1.5c0-0.6,0-0.6,0.1-3.1l0.6-15.5c0.1-1.9,0.3-4.2,0.4-5.3
			c0.1-1.1-0.2-2.3-1-3.1C660.4,95.1,659.3,94.6,658.2,94.6L658.2,94.6z"/>
	</g>
</g>
</svg>
