<?xml version="1.0" encoding="utf-8"?>
<!-- Generator: Adobe Illustrator 18.0.0, SVG Export Plug-In . SVG Version: 6.00 Build 0)  -->
<!DOCTYPE svg PUBLIC "-//W3C//DTD SVG 1.1//EN" "http://www.w3.org/Graphics/SVG/1.1/DTD/svg11.dtd">
<svg version="1.1" id="レイヤー_1" xmlns="http://www.w3.org/2000/svg" xmlns:xlink="http://www.w3.org/1999/xlink" x="0px"
	 y="0px" viewBox="0 0 595.3 841.9" enable-background="new 0 0 595.3 841.9" xml:space="preserve">
<g>
	<g>
		<polygon fill="#FFFFFF" points="270.6,719.6 324.7,719.6 297.6,420.8 		"/>
		<polygon fill="#FFFFFF" points="270.6,122.3 324.7,122.3 297.6,421.1 		"/>
	</g>
	<g>
		<polygon fill="#FFFFFF" points="374.3,710.9 425.2,692.4 297.6,420.8 		"/>
		<polygon fill="#FFFFFF" points="170,149.5 220.9,131 297.7,421.1 		"/>
	</g>
	<g>
		<polygon fill="#FFFFFF" points="468.9,667.2 510.4,632.3 297.5,420.8 		"/>
		<polygon fill="#FFFFFF" points="84.9,209.5 126.4,174.7 297.7,421.1 		"/>
	</g>
	<g>
		<polygon fill="#FFFFFF" points="542.8,593.7 569.9,546.8 297.5,420.9 		"/>
		<polygon fill="#FFFFFF" points="25.4,295.1 52.5,248.1 297.8,421 		"/>
	</g>
	<g>
		<polygon fill="#FFFFFF" points="587.1,499.5 596.5,446.1 297.5,420.9 		"/>
		<polygon fill="#FFFFFF" points="-1.2,395.8 8.2,342.4 297.8,421 		"/>
	</g>
	<g>
		<polygon fill="#FFFFFF" points="596.5,395.8 587.1,342.4 297.5,421 		"/>
		<polygon fill="#FFFFFF" points="8.2,499.5 -1.2,446.1 297.8,420.9 		"/>
	</g>
	<g>
		<polygon fill="#FFFFFF" points="569.9,295.1 542.8,248.1 297.5,421 		"/>
		<polygon fill="#FFFFFF" points="52.5,593.7 25.4,546.8 297.8,420.9 		"/>
	</g>
	<g>
		<polygon fill="#FFFFFF" points="510.4,209.5 468.9,174.7 297.5,421.1 		"/>
		<polygon fill="#FFFFFF" points="126.4,667.2 84.9,632.3 297.7,420.8 		"/>
	</g>
	<g>
		<polygon fill="#FFFFFF" points="425.2,149.5 374.3,131 297.6,421.1 		"/>
		<polygon fill="#FFFFFF" points="220.9,710.9 170,692.4 297.7,420.8 		"/>
	</g>
</g>
</svg>
