<?xml version="1.0" encoding="utf-8"?>
<!-- Generator: Adobe Illustrator 18.0.0, SVG Export Plug-In . SVG Version: 6.00 Build 0)  -->
<!DOCTYPE svg PUBLIC "-//W3C//DTD SVG 1.1//EN" "http://www.w3.org/Graphics/SVG/1.1/DTD/svg11.dtd">
<svg version="1.1" id="Layer_1" xmlns="http://www.w3.org/2000/svg" xmlns:xlink="http://www.w3.org/1999/xlink" x="0px" y="0px"
	 viewBox="0 0 12.3 26.4" enable-background="new 0 0 12.3 26.4" xml:space="preserve">
<g>
	<path fill="#CF121B" d="M5,10.4c-1.2,0.2-1.2,0.2-2.5,0.4c-1,0.1-1.4,0.2-1.7,0.3L0.5,9.9c0.1,0,0.1,0,0.2,0c0.2,0,0.5,0,1-0.1V6
		c-0.5,0-0.8,0-1.2,0.1V4.9C0.9,5,1.2,5,1.8,5h8.6c0.6,0,0.9,0,1.3-0.1v1.2C11.3,6.1,11,6,10.4,6H6.2v4.4c0.6-0.2,1.2-0.5,1.6-0.9
		C7.4,9.1,7.1,8.8,6.7,8.1l1-0.5H7.4c-0.4,0-0.6,0-0.9,0V6.5c0.3,0,0.5,0,1,0h2c0.4,0,0.7,0,0.9,0l0.6,0.7C11,7.3,11,7.4,10.9,7.6
		C10.5,8.4,10,9.1,9.5,9.7c0.5,0.4,1.2,0.6,2.1,0.9c-0.2,0.4-0.4,0.7-0.6,1.2c-1.3-0.5-1.6-0.7-2.4-1.3c-0.6,0.5-1.1,0.8-1.9,1.2
		c-0.2-0.4-0.4-0.7-0.6-1c0,0.5,0,0.9,0.1,1.2H4.9c0-0.3,0.1-0.6,0.1-1.2V10.4z M10.3,3.5c0,0.5,0,0.8,0,1.1c-0.3,0-0.7,0-1.1,0H3.1
		c-0.5,0-0.9,0-1.3,0c0-0.3,0-0.6,0-1V1.9c0-0.4,0-0.8,0-1.1c0.4,0,0.7,0,1.3,0h6c0.6,0,0.9,0,1.3,0c0,0.3,0,0.6,0,1.1V3.5z M5,6h-2
		v0.5h2V6z M5,7.5h-2v0.6h2V7.5z M5,9h-2v0.8c0.6-0.1,0.9-0.1,2-0.3V9z M3.1,2.3h5.9V1.8H3.1V2.3z M3.1,3.7h5.9V3.2H3.1V3.7z
		 M7.8,7.6c0.3,0.6,0.5,0.9,0.9,1.3C9,8.5,9.2,8.2,9.5,7.6H7.8z"/>
	<path fill="#CF121B" d="M6.8,18.7c0.3,1.1,0.9,2.3,1.7,3.2c0.9,1,1.9,1.7,3.4,2.3c-0.4,0.5-0.6,0.7-0.9,1.4c-1.3-0.7-2.1-1.3-3-2.2
		c-0.8-0.8-1.4-1.8-1.8-2.9c-0.4,1.3-1,2.3-2,3.3c-0.8,0.8-1.7,1.4-2.9,1.9c-0.2-0.5-0.5-0.8-0.9-1.3c0.9-0.4,1.4-0.6,2-1
		c1.6-1.2,2.4-2.5,2.7-4.6H2.2c-0.8,0-1.1,0-1.5,0.1v-1.5c0.4,0.1,0.8,0.1,1.5,0.1h3c0-0.6,0-0.8,0-1.4c0-0.5,0-0.9-0.1-1.2h1.6
		c-0.1,0.4-0.1,0.6-0.1,1.4c0,0.5,0,0.8,0,1.2h3.2c0.7,0,1.1,0,1.5-0.1v1.5c-0.5-0.1-0.9-0.1-1.5-0.1H6.8z"/>
</g>
</svg>
