<?xml version="1.0" encoding="utf-8"?>
<!-- Generator: Adobe Illustrator 18.0.0, SVG Export Plug-In . SVG Version: 6.00 Build 0)  -->
<!DOCTYPE svg PUBLIC "-//W3C//DTD SVG 1.1//EN" "http://www.w3.org/Graphics/SVG/1.1/DTD/svg11.dtd">
<svg version="1.1" id="Layer_1" xmlns="http://www.w3.org/2000/svg" xmlns:xlink="http://www.w3.org/1999/xlink" x="0px" y="0px"
	 viewBox="0 0 31.3 15.8" enable-background="new 0 0 31.3 15.8" xml:space="preserve">
<g>
	<path fill="#CF121B" d="M3.4,12.9c0,1,0,1.4,0.1,1.8H1.6c0.1-0.5,0.1-1,0.1-1.8v-10c0-0.6,0-1-0.1-1.5c0.5,0,0.9,0.1,1.7,0.1h9.3
		c0.8,0,1.3,0,1.7-0.1c0,0.4-0.1,0.8-0.1,1.7v9.8c0,0.8-0.2,1.2-0.6,1.4c-0.3,0.2-0.8,0.2-1.6,0.2c-0.6,0-1.4,0-2-0.1
		c-0.1-0.6-0.2-1-0.5-1.7c1,0.1,1.8,0.2,2.3,0.2c0.6,0,0.7,0,0.7-0.4V8.8H3.4V12.9z M7,3.1H3.4v4.1H7V3.1z M12.5,7.2V3.1H8.7v4.1
		H12.5z"/>
	<path fill="#CF121B" d="M21,7.5c-0.5,0-0.9,0-1.3,0.1V6.5c-0.7,0.7-1.1,1.1-1.9,1.7c-0.3-0.5-0.6-1-1.2-1.5c1.9-1.3,3-2.6,4-4.4
		c0.4-0.7,0.5-1.1,0.6-1.5l1.8,0.7c-0.2,0.2-0.2,0.4-0.4,0.8c-0.6,1.2-1.5,2.6-2.5,3.7c0.4,0,0.5,0,0.8,0h5.6c0.4,0,0.6,0,0.9,0
		c-1.1-1.2-1.9-2.4-2.5-3.8C25,2,24.8,1.7,24.7,1.5l1.7-0.7c0.1,0.4,0.3,0.7,0.6,1.3c1,1.8,2.3,3.2,4.2,4.4
		c-0.6,0.7-0.8,0.9-1.2,1.7c-0.8-0.6-1.2-0.9-1.9-1.6c0,0.2,0,0.3,0,0.5c0,3.2-0.3,5.6-0.6,6.4c-0.3,0.7-0.9,0.9-2.2,0.9
		c-0.3,0-0.6,0-1.6-0.1c-0.1-0.7-0.2-1-0.5-1.8c0.7,0.1,1.4,0.2,1.9,0.2c0.6,0,0.7-0.1,0.9-0.3c0.2-0.5,0.5-2.5,0.5-4.1V8.1
		c0-0.1,0-0.1,0-0.2s0-0.2,0-0.3h-2.9c-0.1,1.6-0.5,2.7-1.2,3.9c-0.8,1.4-2.1,2.5-3.9,3.4c-0.3-0.6-0.5-0.9-1.1-1.5
		c0.9-0.4,1.6-0.7,2.4-1.4c1.1-0.9,1.7-2.1,2-3.5c0-0.3,0.1-0.4,0.1-0.9H21z"/>
</g>
</svg>
