<?xml version="1.0" encoding="utf-8"?>
<!-- Generator: Adobe Illustrator 18.0.0, SVG Export Plug-In . SVG Version: 6.00 Build 0)  -->
<!DOCTYPE svg PUBLIC "-//W3C//DTD SVG 1.1//EN" "http://www.w3.org/Graphics/SVG/1.1/DTD/svg11.dtd">
<svg version="1.1" id="Layer_1" xmlns="http://www.w3.org/2000/svg" xmlns:xlink="http://www.w3.org/1999/xlink" x="0px" y="0px"
	 viewBox="0 0 156.5 127.9" enable-background="new 0 0 156.5 127.9" xml:space="preserve">
<g>
	<path fill="#FFFFFF" d="M67,127.9c-0.8,0-1.5,0-2.3,0l-1,0c-0.7,0-1.4,0-2.1,0c0,0-2.3-0.1-3-0.1l-0.8,0c-0.7,0-1.4-0.1-2.1-0.1
		l-0.6,0c-0.8,0-1.5-0.1-2.3-0.1l-1.4-0.1l-2.4-0.2c-5.4-0.4-10.5-1.1-15.1-1.9c-1.3-0.2-2.5-0.5-3.6-0.7c-1.7-0.4-3.4-0.8-5-1.2
		c-2-0.6-4-1.2-5.8-1.9c-1.3-0.5-2.6-1-3.7-1.6c-0.4-0.2-0.8-0.4-1.2-0.5c-3.5-1.7-6.5-3.7-8.8-6c-0.4-0.4-0.9-0.8-1.2-1.3
		c-4.8-5.2-5.1-9.9-5.1-11.4c0-0.5,0-1,0.1-1.5l0-0.3l0-0.1c0.1-0.3,0.1-0.6,0.2-1L0,97.6l0-0.1c0.8-3,3.7-11.3,30.5-19.4
		c2.3-0.7,4.4-1.4,6.2-2.1l0.8-0.3c3.7-1.4,5.4-2.5,6.4-3.3c-0.1-1.5-0.2-3.1-0.2-4.6c0-0.6,0-1.2,0-1.8c0.2-6.2,1.5-12.6,3.9-19.1
		C56.9,21,99.6,0.8,101.4,0l7.9-3.7l1.9,8.5c0,0,0.2,0.8,0.5,2.2l0.2,0.8c0.6,3.1,1.5,7.9,2.3,13.8l0,0.3c0.5,3.6,0.9,7,1.1,10.4
		l0,0.2c0.1,0.9,0.1,1.8,0.2,2.7c0.1,1,0.1,1.9,0.2,2.9c0,0.3,0,0.7,0,1c5.8-0.8,12.1-1.3,19-1.3c1.8,0,3.6,0,5.4,0.1l2.2,0.1
		l2.3,0.1l2,0.1l1.3,0.1l8.7,0.8l-2.7,8.3c0,0-0.2,0.7-0.7,2l-0.2,0.6c-0.2,0.6-0.5,1.3-0.8,2.2l-0.4,1.1c-0.4,1-0.8,2.2-1.3,3.4
		l-0.4,1c-1,2.4-2,4.8-3,7c-0.5,1-0.9,2.1-1.5,3.1c-0.2,0.5-0.5,0.9-0.7,1.4c-0.6,1.2-1.2,2.4-1.8,3.6c-0.4,0.8-0.9,1.7-1.4,2.5
		c-0.4,0.7-0.8,1.4-1.2,2.2c-0.2,0.4-0.4,0.7-0.6,1.1c-0.7,1.1-1.3,2.2-2,3.2c-0.2,0.3-0.5,0.7-0.7,1c-0.5,0.7-0.9,1.4-1.4,2
		c-0.2,0.3-0.5,0.7-0.7,1c-0.1,0.1-0.1,0.2-0.2,0.3c4.1,3.8,6.1,7.8,5.7,11.7c-1.6,15.1-25.1,24.3-46.5,27.8c-1,0.2-2,0.3-3.1,0.5
		c-6.3,0.9-13,1.4-19.7,1.6c-1.2,0-2.2,0-3.3,0h-0.1L67,127.9z"/>
	<g>
		<g>
			<g>
				<path fill="#59873C" d="M103.1,73.4C88.5,97.3,60.6,99.1,60.6,99.1c-6.4-11.9-14.8-26.5-6.4-49.9s50.1-42.9,50.1-42.9
					S115.3,55,103.1,73.4z"/>
				<path opacity="0.16" fill="#FFFFFF" d="M71.8,80.1L79.1,63l28.7-13.5L80.4,60l7.2-17l19.7-11.3l-18.5,8.6l13.8-32.4l-8.8,18.2
					l-4.2-11.1L92,29.7L82.2,50l-7.6-24.9l6.3,27.5L73,69L60.6,40.4l10.1,33.4L59.5,97c0.4,0.7,0.8,1.4,1.1,2.1c0,0,1.2-0.1,3.3-0.4
					l6.4-15.1l30.2-11.9L71.8,80.1z"/>
				<path opacity="0.2" fill="#010101" d="M104.3,6.3c0,0-3.4,1.6-8.4,4.4C96,17.3,94.7,36.6,79.8,58c-4.7,6.8-10.5,22.4-29,8.3
					c-0.5,14,5.2,24.1,9.8,32.8c0,0,27.9-1.8,42.5-25.7C115.3,55,104.3,6.3,104.3,6.3z"/>
				<path opacity="0.2" fill="#010101" d="M104.3,6.3c0,0-0.3,0.2-0.9,0.4c0.9,9.6,3.6,47.7-11.1,61c-16.9,15.4-32.6,10.8-41.6,0
					c-0.1,13.2,5.4,22.9,9.9,31.3c0,0,27.9-1.8,42.5-25.7C115.3,55,104.3,6.3,104.3,6.3z"/>
			</g>
			<g>
				<path fill="#59873C" d="M117.8,92.6c-20.5,10.8-41.1,0.3-41.1,0.3c0.5-11.1,0.7-25.1,16.6-38.2s53.9-9.3,53.9-9.3
					S134.3,84.7,117.8,92.6z"/>
				<path opacity="0.16" fill="#FFFFFF" d="M92.7,84.1l12.5-9.1l26.1,2.5l-24-4.1l12.3-9l18.8,0.3L121.6,63l23.6-17.2l-13.9,9.2
					l1.7-9.7l-4.5,11.5l-15.6,10.3l5.1-20.9l-7.2,22.3l-12.5,8.3l3.3-25.6l-7,28.1L76.7,90.9c0,0.7-0.1,1.3-0.1,2
					c0,0,0.9,0.5,2.5,1.1l11-8l26.5,4.3L92.7,84.1z"/>
				<path opacity="0.2" fill="#010101" d="M147.1,45.4c0,0-3.1-0.3-7.9-0.4c-2.7,4.7-11.8,17.9-31.5,26.8c-6.2,2.9-17,11.5-24.2-6.4
					C77.3,75,77,84.7,76.7,92.9c0,0,20.6,10.5,41.1-0.3C134.3,84.7,147.1,45.4,147.1,45.4z"/>
				<path opacity="0.2" fill="#010101" d="M147.1,45.4c0,0-0.3,0-0.9-0.1c-3.4,7.3-17.6,35.5-33.8,38.7
					c-18.6,3.7-27.8-6.1-29.6-17.6C77.2,75.8,77,85,76.7,92.9c0,0,20.6,10.5,41.1-0.3C134.3,84.7,147.1,45.4,147.1,45.4z"/>
			</g>
		</g>
		<g>
			<g>
				<path fill="#8FA93C" d="M6.5,100.8c0,0-0.5,20.9,64.5,20.1c35.5-0.8,61.4-12.7,62.5-23.5c0.4-4.6-11.2-14.9-38.5-19.7
					c-3.7-0.9-8.5-1.3-12-6.1c-3.4-4.8-11-19.3-11.6-20.9c-0.6-1.6-2.3-3.7-4.3,0.1c-2,3.8-6.5,15.1-16,24.5
					c-2.9,2.6-4.7,5.3-18.7,9.5C18.6,89,6.6,94.8,6.5,100.8z"/>
				<path opacity="0.14" fill="#010101" d="M95.1,77.6c-3.7-0.9-8.5-1.3-12-6.1c-3.4-4.8-11-19.3-11.6-20.9
					c-0.1-0.3-0.3-0.6-0.4-0.9c-0.1,1.7-0.1,5,1.3,8.1c2,4.5,9.6,25,8.1,36.3c-1.5,11.4-5.2,17.7-15.1,19.1
					c-9.9,1.4-23.2,4.3-39.8-0.9C9.3,107.3,8.1,103,9,96c-1.6,1.6-2.5,3.2-2.5,4.8c0,0-0.5,20.9,64.5,20.1
					c35.5-0.8,61.4-12.7,62.5-23.5C134,92.8,122.3,82.5,95.1,77.6z"/>
				<path opacity="0.25" fill="#010101" d="M106.6,85.7c-4.3-1.5-7.7-1-13.1-8.4c-2.6-0.6-5.6-1.2-8.2-3.4c-0.1,0.1-0.1,0.1-0.1,0.1
					S94,86,102.5,90.5c1.6,0.9,4.4,0,5.6-1C109.3,88.4,111,87.3,106.6,85.7z"/>
				<path fill="#3D6F35" d="M86.7,74.9c0.3,0.2,0.5,0.3,0.8,0.5C87.3,75.2,87,75.1,86.7,74.9z"/>
				<path fill="#3D6F35" d="M85.3,73.8c0.4,0.3,0.7,0.6,1.1,0.8C86,74.4,85.6,74.2,85.3,73.8z"/>
				<path fill="#3D6F35" d="M91.5,80.9C91.5,80.9,91.5,80.9,91.5,80.9C91.5,80.9,91.5,80.9,91.5,80.9z"/>
				<path fill="#3D6F35" d="M95.8,81.7C95.8,81.7,95.8,81.7,95.8,81.7C95.8,81.7,95.8,81.7,95.8,81.7z"/>
				<path fill="#3D6F35" d="M89.1,76.1c0.3,0.1,0.6,0.2,0.9,0.3C89.7,76.3,89.4,76.2,89.1,76.1z"/>
				<path fill="#3D6F35" d="M90.3,76.5c0.8,0.2,1.6,0.4,2.4,0.6C91.9,76.9,91.1,76.7,90.3,76.5z"/>
				<path fill="#3D6F35" d="M87.9,75.6c0.3,0.1,0.5,0.2,0.8,0.4C88.5,75.8,88.2,75.7,87.9,75.6z"/>
				<path fill="#3D6F35" d="M93.9,81.3C93.9,81.3,93.9,81.3,93.9,81.3C93.9,81.3,93.9,81.3,93.9,81.3z"/>
				<path fill="#3D6F35" d="M93,81.2C93,81.2,93,81.2,93,81.2C93,81.2,93,81.2,93,81.2z"/>
				<path fill="#3D6F35" d="M94.8,81.5C94.8,81.5,94.8,81.5,94.8,81.5C94.8,81.5,94.8,81.5,94.8,81.5z"/>
				<path fill="#3D6F35" d="M92.3,81.1c0,0-0.1,0-0.1,0C92.2,81.1,92.2,81.1,92.3,81.1z"/>
				<path opacity="0.25" fill="#010101" d="M95.1,77.6c-0.5-0.1-1-0.2-1.6-0.4c0,0,0,0,0,0c-0.1,0-0.3-0.1-0.4-0.1
					c-0.1,0-0.2-0.1-0.4-0.1c-0.8-0.2-1.6-0.4-2.4-0.6c-0.1,0-0.2-0.1-0.3-0.1c-0.3-0.1-0.6-0.2-0.9-0.3C89,76,88.9,76,88.7,75.9
					c-0.3-0.1-0.5-0.2-0.8-0.4c-0.1-0.1-0.3-0.1-0.4-0.2c-0.3-0.1-0.5-0.3-0.8-0.5c-0.1-0.1-0.2-0.1-0.4-0.2
					c-0.4-0.3-0.7-0.5-1.1-0.8l0,0.3c0.4,0.5,2.6,3.4,5.6,6.7c0.2,0,0.4,0.1,0.6,0.1c0,0,0,0,0.1,0c0.2,0,0.4,0.1,0.6,0.1
					c0,0,0.1,0,0.1,0c0.2,0,0.5,0.1,0.7,0.1c0,0,0,0,0.1,0c0.3,0,0.5,0.1,0.8,0.1c0,0,0,0,0.1,0c0.3,0.1,0.6,0.1,0.9,0.2
					c0,0,0,0,0,0c0.3,0.1,0.6,0.1,1,0.2c0,0,0,0,0,0c0.7,0.1,1.4,0.3,2.1,0.4c6.4,1.3,14.6,3.4,17.8,6.2c5.6,4.9,5.5,11.9,2,14.9
					c-3.4,2.9-18,16.7-69.9,16.9c6.6,0.6,14.3,0.9,23.2,0.8c35.5-0.8,61.4-12.7,62.5-23.5C134,92.8,122.3,82.5,95.1,77.6z"/>
				<path opacity="0.11" fill="#FEE600" d="M67.1,54.8c0,0,0.1-0.9,0.7-0.8s1,0.3,0.9,2.7c-0.1,2.3,0.6,13.5-0.8,28.1
					s-2.9,14.6-6.6,18.1c-3.5,3.4-11,10.4-26.1,6.4c-11.2-3-16.3-6.3-15.4-7.7c0.9-1.5,6.4-2.7,7.3-3.1c0.9-0.4,13.3-6.1,20-13
					S62.9,63,67.1,54.8z"/>
				<path opacity="0.25" fill="#010101" d="M35.6,90.3c3.8-2.3,10.3-9.3,12.9-12.7c-1.7,1.4-4,2.8-8.5,4.6c-0.9,1-2.5,2.4-5.3,4
					c-5.1,2.8-9.8,5.8-9.2,6.6C26.2,93.7,31.3,92.9,35.6,90.3z"/>
			</g>
			<g>
				<circle opacity="0.2" fill="#FEE600" cx="65.7" cy="89.4" r="1.7"/>
				<circle opacity="0.2" fill="#FEE600" cx="64.1" cy="108.7" r="1.7"/>
				<circle opacity="0.2" fill="#FEE600" cx="56.4" cy="105.4" r="1.7"/>
				<circle opacity="0.2" fill="#FEE600" cx="50.7" cy="113.6" r="1.7"/>
				<circle opacity="0.2" fill="#FEE600" cx="54" cy="116.9" r="1.7"/>
				<circle opacity="0.2" fill="#FEE600" cx="64.1" cy="114.6" r="1.7"/>
				<circle opacity="0.2" fill="#FEE600" cx="40.3" cy="110.4" r="1.7"/>
				<circle opacity="0.2" fill="#FEE600" cx="46.9" cy="109.4" r="1.7"/>
				<circle opacity="0.2" fill="#FEE600" cx="33.4" cy="107.8" r="1.7"/>
				<circle opacity="0.2" fill="#FEE600" cx="30.1" cy="113.7" r="1.7"/>
				<circle opacity="0.2" fill="#FEE600" cx="18.5" cy="108.7" r="1.7"/>
				<circle opacity="0.2" fill="#FEE600" cx="20.8" cy="107.1" r="1.7"/>
				<circle opacity="0.2" fill="#FEE600" cx="14.6" cy="103.8" r="1.7"/>
				<circle opacity="0.2" fill="#FEE600" cx="11.2" cy="102.8" r="1.7"/>
				<circle opacity="0.2" fill="#FEE600" cx="11.2" cy="98.9" r="1.7"/>
				<circle opacity="0.2" fill="#FEE600" cx="16.9" cy="98.4" r="1.7"/>
				<circle opacity="0.2" fill="#FEE600" cx="17.5" cy="96.5" r="1.7"/>
				<circle opacity="0.2" fill="#FEE600" cx="19.8" cy="99.8" r="1.7"/>
				<circle opacity="0.2" fill="#FEE600" cx="22.5" cy="102.4" r="1.7"/>
				<circle opacity="0.2" fill="#FEE600" cx="25.9" cy="105.4" r="1.7"/>
				<circle opacity="0.2" fill="#FEE600" cx="30.1" cy="105.4" r="1.7"/>
				<circle opacity="0.2" fill="#FEE600" cx="33.1" cy="107.8" r="1.7"/>
				<circle opacity="0.2" fill="#FEE600" cx="35.6" cy="105.4" r="1.7"/>
				<circle opacity="0.2" fill="#FEE600" cx="56.9" cy="81.7" r="1.7"/>
				<circle opacity="0.2" fill="#FEE600" cx="51.1" cy="83.3" r="1.7"/>
				<circle opacity="0.2" fill="#FEE600" cx="62.4" cy="76.8" r="1.7"/>
				<circle opacity="0.2" fill="#FEE600" cx="51.1" cy="84.8" r="1.7"/>
				<circle opacity="0.2" fill="#FEE600" cx="44.3" cy="84" r="1.7"/>
				<circle opacity="0.2" fill="#FEE600" cx="46.9" cy="89.4" r="1.7"/>
				<circle opacity="0.2" fill="#FEE600" cx="43.2" cy="92.7" r="1.7"/>
				<circle opacity="0.2" fill="#FEE600" cx="43.2" cy="89.4" r="1.7"/>
				<circle opacity="0.2" fill="#FEE600" cx="38.7" cy="92" r="1.7"/>
				<circle opacity="0.2" fill="#FEE600" cx="34.7" cy="87.7" r="1.7"/>
				<circle opacity="0.2" fill="#FEE600" cx="21.4" cy="91.5" r="1.7"/>
				<circle opacity="0.2" fill="#FEE600" cx="25.5" cy="95.6" r="1.7"/>
				<circle opacity="0.2" fill="#FEE600" cx="25.9" cy="99.1" r="1.7"/>
				<circle opacity="0.2" fill="#FEE600" cx="30.6" cy="97.5" r="1.7"/>
				<circle opacity="0.2" fill="#FEE600" cx="29" cy="100.1" r="1.7"/>
				<circle opacity="0.2" fill="#FEE600" cx="33.9" cy="94.8" r="1.7"/>
				<circle opacity="0.2" fill="#FEE600" cx="38.7" cy="92.7" r="1.7"/>
				<circle opacity="0.2" fill="#FEE600" cx="43.2" cy="92.7" r="1.7"/>
				<circle opacity="0.2" fill="#FEE600" cx="46.9" cy="97.3" r="1.7"/>
				<circle opacity="0.2" fill="#FEE600" cx="48.6" cy="100.8" r="1.7"/>
				<circle opacity="0.2" fill="#FEE600" cx="51.9" cy="96.5" r="1.7"/>
				<circle opacity="0.2" fill="#FEE600" cx="53.5" cy="93.7" r="1.7"/>
				<circle opacity="0.2" fill="#FEE600" cx="56.4" cy="98.1" r="1.7"/>
				<circle opacity="0.2" fill="#FEE600" cx="58.1" cy="89.4" r="1.7"/>
				<circle opacity="0.2" fill="#FEE600" cx="55.2" cy="75.7" r="1.7"/>
				<circle opacity="0.2" fill="#FEE600" cx="60.2" cy="70.1" r="1.7"/>
				<circle opacity="0.2" fill="#FEE600" cx="64.1" cy="64.3" r="1.7"/>
			</g>
			<g>
				<circle opacity="0.15" fill="#010101" cx="95.8" cy="87.7" r="1.8"/>
				<circle opacity="0.15" fill="#010101" cx="94" cy="90.4" r="1.8"/>
				<circle opacity="0.15" fill="#010101" cx="90.3" cy="92" r="1.8"/>
				<circle opacity="0.15" fill="#010101" cx="90.7" cy="86.9" r="1.8"/>
				<circle opacity="0.15" fill="#010101" cx="85.8" cy="83.1" r="1.8"/>
				<circle opacity="0.15" fill="#010101" cx="86.4" cy="81" r="1.8"/>
				<circle opacity="0.15" fill="#010101" cx="80.5" cy="80" r="1.8"/>
				<circle opacity="0.15" fill="#010101" cx="78.6" cy="68.5" r="1.8"/>
				<circle opacity="0.15" fill="#010101" cx="73.8" cy="62.4" r="1.8"/>
				<circle opacity="0.15" fill="#010101" cx="73.8" cy="86.9" r="1.8"/>
				<circle opacity="0.15" fill="#010101" cx="79.8" cy="95.8" r="1.8"/>
				<circle opacity="0.15" fill="#010101" cx="74.8" cy="106.1" r="1.8"/>
				<circle opacity="0.15" fill="#010101" cx="73.4" cy="111.1" r="1.8"/>
				<circle opacity="0.15" fill="#010101" cx="84.5" cy="114.6" r="1.8"/>
				<circle opacity="0.15" fill="#010101" cx="87.9" cy="112.8" r="1.8"/>
				<circle opacity="0.15" fill="#010101" cx="83.6" cy="104.1" r="1.8"/>
				<circle opacity="0.15" fill="#010101" cx="92.3" cy="103.8" r="1.8"/>
				<circle opacity="0.15" fill="#010101" cx="94.1" cy="105.9" r="1.8"/>
				<circle opacity="0.15" fill="#010101" cx="92.6" cy="108.7" r="1.8"/>
				<circle opacity="0.15" fill="#010101" cx="97.7" cy="110.9" r="1.8"/>
				<circle opacity="0.15" fill="#010101" cx="104.6" cy="107.8" r="1.8"/>
				<circle opacity="0.15" fill="#010101" cx="103.6" cy="105" r="1.8"/>
				<circle opacity="0.15" fill="#010101" cx="107.6" cy="104.3" r="1.8"/>
				<circle opacity="0.15" fill="#010101" cx="105.5" cy="101.9" r="1.8"/>
				<circle opacity="0.15" fill="#010101" cx="109.4" cy="100.8" r="1.8"/>
				<circle opacity="0.15" fill="#010101" cx="113.8" cy="107.5" r="1.8"/>
				<circle opacity="0.15" fill="#010101" cx="118.4" cy="105.4" r="1.8"/>
				<circle opacity="0.15" fill="#010101" cx="119.4" cy="107.5" r="1.8"/>
				<circle opacity="0.15" fill="#010101" cx="116.6" cy="110.1" r="1.8"/>
				<circle opacity="0.15" fill="#010101" cx="123.1" cy="102.2" r="1.8"/>
				<circle opacity="0.15" fill="#010101" cx="126.8" cy="100.8" r="1.8"/>
				<circle opacity="0.15" fill="#010101" cx="122.1" cy="96.3" r="1.8"/>
				<circle opacity="0.15" fill="#010101" cx="120.8" cy="93.2" r="1.8"/>
				<circle opacity="0.15" fill="#010101" cx="125.8" cy="91.1" r="1.8"/>
				<circle opacity="0.15" fill="#010101" cx="122.6" cy="89.4" r="1.8"/>
				<circle opacity="0.15" fill="#010101" cx="118.4" cy="88.7" r="1.8"/>
				<circle opacity="0.15" fill="#010101" cx="108.8" cy="83.3" r="1.8"/>
				<circle opacity="0.15" fill="#010101" cx="102.8" cy="86.1" r="1.8"/>
				<circle opacity="0.15" fill="#010101" cx="96.7" cy="81.1" r="1.8"/>
				<circle opacity="0.15" fill="#010101" cx="102.8" cy="93.9" r="1.8"/>
				<circle opacity="0.15" fill="#010101" cx="96.7" cy="95" r="1.8"/>
				<circle opacity="0.15" fill="#010101" cx="94.4" cy="97.3" r="1.8"/>
				<circle opacity="0.15" fill="#010101" cx="99.5" cy="100.8" r="1.8"/>
				<circle opacity="0.15" fill="#010101" cx="102.8" cy="97.7" r="1.8"/>
				<circle opacity="0.15" fill="#010101" cx="75.3" cy="74.3" r="1.8"/>
			</g>
		</g>
	</g>
</g>
</svg>
