<?xml version="1.0" encoding="utf-8"?>
<!-- Generator: Adobe Illustrator 18.0.0, SVG Export Plug-In . SVG Version: 6.00 Build 0)  -->
<!DOCTYPE svg PUBLIC "-//W3C//DTD SVG 1.1//EN" "http://www.w3.org/Graphics/SVG/1.1/DTD/svg11.dtd">
<svg version="1.1" id="Layer_1" xmlns="http://www.w3.org/2000/svg" xmlns:xlink="http://www.w3.org/1999/xlink" x="0px" y="0px"
	 viewBox="-130 -129.7 843 1058.2" enable-background="new -130 -129.7 843 1058.2" xml:space="preserve">
<g>
	<path fill="#FFFFFF" d="M181.1,928.8c-64.5,0-127-23-177.1-63.2l-3.9,2c0,0-25.7-30.3-26.3-30.3c-11.8-13.2-22.4-27-31.6-41.5
		c-91.5-137.6-81-307.4,35.5-585.2c140.2-331.1,412.1-340.3,442.3-340.3c2,0,3.9,0,4.6,0C584-129,713,0.7,713,160
		c0,59.2-18.4,116.5-52,165.2l9.9,10.5L630.1,362c-11.2,11.2-23,21.7-35.5,30.3C508.3,485.8,458.9,680.6,455,697.7
		C431.9,832,316.7,928.8,181.1,928.8z"/>
	<g>
		<path fill="#7F2A2B" d="M181.1,874.1c-63.2,0-121.8-25.7-164.6-71.7l-2.6-3.3c-9.9-11.2-17.8-21.7-24.4-32.9
			C-92,645.1-80.2,490.4,28.4,231C154.1-67.1,393.1-75.7,420.1-75.7h3.3c130.3,0,235.7,105.3,235.7,235c0,59.9-23,117.2-63.8,161.3
			l-5.3,5.3c-10.5,9.9-20.4,17.8-30.3,25.7C456.3,459.5,404.3,678,402.3,687.2C383.9,795.8,290.4,874.1,181.1,874.1z"/>
		<path opacity="9.000000e-002" fill="#FFFFFF" enable-background="new    " d="M184.4,836c-37.5,0-131-89.5-156.7-117.2l-0.7-0.7
			c-5.9-6.6-11.2-13.8-15.8-21.1l-2-3.3c-42.8-64.5-70.4-167.9,48.1-449.6C160.1-2,345-9.2,366.1-9.2h3.3l0,0
			c80.3,0,145.5,65.2,145.5,145.5c0,36.9-75.7,131-75.7,131C322.7,389.7,308.8,664.2,308.8,664.2C297.6,729.3,250.2,836,184.4,836z"
			/>
		<path opacity="9.000000e-002" fill="#FFFFFF" enable-background="new    " d="M370-9.2L370-9.2h-3.9C345-9.2,160.1-2,57.4,242.9
			C-2.5,384.4-24.9,480.5-27.5,550.3c8.6,3.9,17.1,6.6,26.3,8.6c60.6,11.8,119.8-21.1,142.2-79c0,0,104-226.4,233-317.3l7.2-5.3
			l7.9-3.3c7.9-3.3,15.1-7.2,21.7-12.5l2-1.3c28.3-20.4,47.4-50,54-84.3C468.1,47.4,408.2-9.2,370-9.2z"/>
		<path opacity="0.1" fill="#FFFFFF" enable-background="new    " d="M453,44.8c3.9-6.6,5.9-13.8,7.9-21.1
			c-25-20.4-56-32.9-90.8-32.9l0,0h-3.3C347-9.2,177.8-2,72.5,212c6.6,11.8,15.8,21.7,28.3,29c31.6,17.8,71.1,9.9,93.5-18.4l2-2.6
			c9.9-10.5,97.4-105.3,185.6-133l4.6-1.3l5.3-0.7c4.6-0.7,9.9-1.3,14.5-2.6l1.3-0.7C426.7,75.7,443.1,62.5,453,44.8z"/>
		<path fill="#F5E5C0" d="M420.7,562.8c-2.6,0-7.9,0-12.5-4.6c-6.6-7.2-6.6-20.4-3.9-69.1c7.9-102,108-125.7,109.3-125.7l4.6-0.7
			c5.9,0,9.9,3.3,11.8,9.2c3.3,11.8-9.2,34.2-22.4,42.1c-13.2,7.2-44.1,40.8-54.6,73.1c-3.9,12.5-7.2,25.7-9.9,36.9
			C437.2,547,433.9,562.8,420.7,562.8z"/>
		<path fill="#4A1719" d="M667.6,159.3C667.6,25,559-84.3,424-84.3c0,0-1.3,0-3.9,0c-32.9,0-271.9,10.5-398.9,312
			C-100.6,517.4-90.7,661.5-18.3,770.1c7.9,13.2,17.1,25.7,27.6,36.9c0,0.7,0.7,0.7,0.7,1.3l0,0c42.8,46.1,103.3,74.4,170.5,74.4
			c115.2,0,210.6-83.6,229.7-193.5c0,0,52.7-224.5,154-331.1c13.2-9.2,25-19.7,36.2-30.9l0.7-0.7l0,0
			C641.9,282.4,667.6,223.8,667.6,159.3z M503,406.1c-14.5,7.9-46.7,42.8-58.6,77.7c-11.8,34.9-13.8,70.4-23.7,70.4
			c-9.9,0-11.8-4.6-7.9-65.2c7.2-97.4,102.7-118.5,102.7-118.5c1.3,0,2-0.7,2.6-0.7C528,370.6,516.2,398.9,503,406.1z M460.2,489.1
			c4.6-13.2,12.5-26.3,21.1-37.5c-9.2,17.1-17.1,34.9-25,52C456.9,498.3,458.3,493.7,460.2,489.1z M589.2,315.3l-0.7,0.7
			c-9.9,10.5-21.1,20.4-33.6,29l-1.3,0.7l-1.3,1.3c-5.9,5.9-11.2,12.5-16.5,19.1c-3.3-7.2-9.9-11.8-17.8-11.8
			c-2.6,0-5.3,0.7-7.9,1.3c-35.5,7.9-107.3,46.1-113.9,132.3c-3.3,52.7-2.6,65.8,5.9,75.7c6.6,7.2,15.1,7.2,18.4,7.2s6.6-0.7,9.2-2
			c-22.4,63.2-34.9,113.2-35.5,117.8c-17.8,104.7-107.3,180.4-213.3,180.4c-60.6,0-117.2-24.4-158.6-69.1l0,0l0,0l-0.7-0.7
			C12,786.6,3.4,775.4-3.8,762.2C-82.8,644.4-71,491.7,37,235.7C160.1-59.2,394.4-67.8,420.1-67.8h3.9
			c125.1,0,227.1,102,227.1,227.1C651.1,217.2,629.4,272.5,589.2,315.3z"/>
	</g>
</g>
</svg>
