<?xml version="1.0" encoding="utf-8"?>
<!-- Generator: Adobe Illustrator 19.0.0, SVG Export Plug-In . SVG Version: 6.00 Build 0)  -->
<svg version="1.1" id="Layer_1" xmlns="http://www.w3.org/2000/svg" xmlns:xlink="http://www.w3.org/1999/xlink" x="0px" y="0px"
	 viewBox="0 124 595.3 594.9" style="enable-background:new 0 124 595.3 594.9;" xml:space="preserve">
<style type="text/css">
	.st0{fill:#FFFFFF;}
</style>
<g>
	<g>
		<path class="st0" d="M297.7,124L297.7,124C133.3,124,0,257.3,0,421.6v0c0,2.1,0.1,4.2,0.2,6.4H0v222.6h0
			c0,37.9,30.8,68.7,68.7,68.7c31,0,57.2-20.6,65.7-48.8c46.9,30.8,102.9,48.8,163.2,48.8h0h0c60.3,0,116.4-18,163.2-48.8
			c8.5,28.2,34.7,48.8,65.7,48.8c37.9,0,68.7-30.8,68.7-68.7V428h-0.2c0-2.1,0.2-4.2,0.2-6.4v0v0C595.3,257.3,462,124,297.7,124z
			 M137.4,421.6c0-88.4,71.9-160.3,160.3-160.3c88.4,0,160.3,71.9,160.3,160.3c0,0,0,0,0,0c0,88.4-71.9,160.3-160.3,160.3h0
			C209.3,581.9,137.4,510,137.4,421.6z M526.6,705.6c-24,0-45.6-16-52.6-39l-5.3-17.6L453.3,659c-33.5,22-70.9,36.5-110.1,42.8
			c14.1-12.6,23.1-30.8,23.1-51.2c0-24.9-13.3-46.6-33.1-58.6c67.4-14.1,120.6-67.3,134.7-134.7c12.1,19.8,33.8,33.1,58.6,33.1
			c22.5,0,42.4-10.9,55-27.6v187.9C581.6,680.9,556.9,705.6,526.6,705.6z"/>
	</g>
</g>
</svg>
