<?xml version="1.0" encoding="utf-8"?>
<!-- Generator: Adobe Illustrator 19.0.0, SVG Export Plug-In . SVG Version: 6.00 Build 0)  -->
<svg version="1.1" id="Layer_1" xmlns="http://www.w3.org/2000/svg" xmlns:xlink="http://www.w3.org/1999/xlink" x="0px" y="0px"
	 viewBox="0 124 595.3 594.9" style="enable-background:new 0 124 595.3 594.9;" xml:space="preserve">
<style type="text/css">
	.st0{fill:#191919;}
	.st1{opacity:0.35;}
	.st2{fill:url(#SVGID_1_);}
	.st3{fill:#0C7BEA;}
	.st4{fill:url(#SVGID_2_);}
	.st5{fill:none;}
	.st6{opacity:0.45;fill:url(#SVGID_3_);}
	.st7{opacity:0.1;}
	.st8{fill:url(#SVGID_4_);}
</style>
<g>
	<g>
		<g>
			<path class="st0" d="M0.2,421.4v228.8c0,37.9,30.7,68.6,68.6,68.6c37.9,0,68.6-30.7,68.6-68.6V421.4H0.2z"/>
		</g>
		<g class="st1">
			<linearGradient id="SVGID_1_" gradientUnits="userSpaceOnUse" x1="68.8423" y1="718.89" x2="68.8423" y2="421.44">
				<stop  offset="0" style="stop-color:#000000;stop-opacity:0"/>
				<stop  offset="1" style="stop-color:#000000"/>
			</linearGradient>
			<path class="st2" d="M0.2,421.4v228.8c0,37.9,30.7,68.6,68.6,68.6c37.9,0,68.6-30.7,68.6-68.6V421.4H0.2z"/>
		</g>
		<g>
			<path class="st3" d="M526.5,490.1c-37.9,0-68.6-30.7-68.6-68.6v228.8c0,37.9,30.7,68.6,68.6,68.6s68.6-30.7,68.6-68.6V421.4
				C595.1,459.3,564.4,490.1,526.5,490.1z"/>
		</g>
		<g class="st1">
			<linearGradient id="SVGID_2_" gradientUnits="userSpaceOnUse" x1="526.4577" y1="718.89" x2="526.4577" y2="421.44">
				<stop  offset="0" style="stop-color:#000000;stop-opacity:0"/>
				<stop  offset="1" style="stop-color:#000000"/>
			</linearGradient>
			<path class="st4" d="M526.5,490.1c-37.9,0-68.6-30.7-68.6-68.6v228.8c0,37.9,30.7,68.6,68.6,68.6s68.6-30.7,68.6-68.6V421.4
				C595.1,459.3,564.4,490.1,526.5,490.1z"/>
		</g>
		<path class="st3" d="M526.5,490.1c-37.9,0-68.6-30.7-68.6-68.6v0c0,88.3-71.8,160.2-160.2,160.2c37.9,0,68.6,30.7,68.6,68.6
			c0,37.9-30.7,68.6-68.6,68.6h0c164.3,0,297.4-133.2,297.4-297.4v0C595.1,459.3,564.4,490.1,526.5,490.1z"/>
		<circle class="st5" cx="297.6" cy="650.2" r="22.9"/>
		<linearGradient id="SVGID_3_" gradientUnits="userSpaceOnUse" x1="446.2823" y1="561.4076" x2="443.9943" y2="345.1843">
			<stop  offset="0" style="stop-color:#000000;stop-opacity:0"/>
			<stop  offset="1" style="stop-color:#000000"/>
		</linearGradient>
		<path class="st6" d="M526.5,490.1c-37.9,0-68.6-30.7-68.6-68.6v0c0,88.3-71.8,160.2-160.2,160.2c37.9,0,68.6,30.7,68.6,68.6
			c0,37.9-30.7,68.6-68.6,68.6h0c164.3,0,297.4-133.2,297.4-297.4v0C595.1,459.3,564.4,490.1,526.5,490.1z"/>
		<g>
			<g>
				<path class="st0" d="M297.7,124L297.7,124C133.4,124,0.2,257.2,0.2,421.4v0c0,164.3,133.2,297.4,297.4,297.4h0
					c37.9,0,68.6-30.7,68.6-68.6c0-37.9-30.7-68.6-68.6-68.6h0c-88.3,0-160.2-71.9-160.2-160.2c0-88.3,71.9-160.2,160.2-160.2
					c88.3,0,160.2,71.8,160.2,160.2c0,37.9,30.7,68.6,68.6,68.6s68.6-30.7,68.6-68.6v0C595.1,257.2,461.9,124,297.7,124z
					 M297.6,627.4c12.6,0,22.9,10.2,22.9,22.9s-10.2,22.9-22.9,22.9s-22.9-10.2-22.9-22.9S285,627.4,297.6,627.4z M526.5,444.3
					c-12.6,0-22.9-10.2-22.9-22.9s10.2-22.9,22.9-22.9c12.6,0,22.9,10.2,22.9,22.9S539.1,444.3,526.5,444.3z"/>
			</g>
		</g>
		<g class="st7">
			<linearGradient id="SVGID_4_" gradientUnits="userSpaceOnUse" x1="297.075" y1="420.0392" x2="81.9958" y2="-103.9304">
				<stop  offset="0" style="stop-color:#FFFFFF;stop-opacity:0"/>
				<stop  offset="0.3941" style="stop-color:#FFFFFF;stop-opacity:0.3941"/>
				<stop  offset="1" style="stop-color:#FFFFFF"/>
			</linearGradient>
			<path class="st8" d="M297.7,124L297.7,124C133.4,124,0.2,257.2,0.2,421.4v0c0,164.3,133.2,297.4,297.4,297.4h0
				c37.9,0,68.6-30.7,68.6-68.6c0-37.9-30.7-68.6-68.6-68.6h0c-88.3,0-160.2-71.9-160.2-160.2c0-88.3,71.9-160.2,160.2-160.2
				c88.3,0,160.2,71.8,160.2,160.2c0,37.9,30.7,68.6,68.6,68.6s68.6-30.7,68.6-68.6v0C595.1,257.2,461.9,124,297.7,124z
				 M297.6,627.4c12.6,0,22.9,10.2,22.9,22.9s-10.2,22.9-22.9,22.9s-22.9-10.2-22.9-22.9S285,627.4,297.6,627.4z M526.5,444.3
				c-12.6,0-22.9-10.2-22.9-22.9s10.2-22.9,22.9-22.9c12.6,0,22.9,10.2,22.9,22.9S539.1,444.3,526.5,444.3z"/>
		</g>
	</g>
</g>
</svg>
