<?xml version="1.0" encoding="utf-8"?>
<!-- Generator: Adobe Illustrator 18.0.0, SVG Export Plug-In . SVG Version: 6.00 Build 0)  -->
<!DOCTYPE svg PUBLIC "-//W3C//DTD SVG 1.1//EN" "http://www.w3.org/Graphics/SVG/1.1/DTD/svg11.dtd">
<svg version="1.1" id="Layer_1" xmlns="http://www.w3.org/2000/svg" xmlns:xlink="http://www.w3.org/1999/xlink" x="0px" y="0px"
	 viewBox="0 0 180.5 58" enable-background="new 0 0 180.5 58" xml:space="preserve">
<g>
	<path fill="#86A048" d="M170.5,58H10C4.5,58,0,53.5,0,48V10C0,4.5,4.5,0,10,0h160.5c5.5,0,10,4.5,10,10v38
		C180.5,53.5,176,58,170.5,58z"/>
	<path opacity="0.1" fill="#010101" d="M170.5,54H10C4.5,54,0,49.5,0,44v4c0,5.5,4.5,10,10,10h160.5c5.5,0,10-4.5,10-10v-4
		C180.5,49.5,176,54,170.5,54z"/>
</g>
</svg>
