<?xml version="1.0" encoding="utf-8"?>
<!-- Generator: Adobe Illustrator 18.0.0, SVG Export Plug-In . SVG Version: 6.00 Build 0)  -->
<!DOCTYPE svg PUBLIC "-//W3C//DTD SVG 1.1//EN" "http://www.w3.org/Graphics/SVG/1.1/DTD/svg11.dtd">
<svg version="1.1" id="Layer_1" xmlns="http://www.w3.org/2000/svg" xmlns:xlink="http://www.w3.org/1999/xlink" x="0px" y="0px"
	 viewBox="0 0 434.1 143.8" enable-background="new 0 0 434.1 143.8" xml:space="preserve">
<g>
	<g>
		<g>
			<path fill="#FFFFFF" d="M220.5,137.1v-1.9l7,0v6.1c-1.1,0.9-2.2,1.5-3.3,1.9s-2.3,0.6-3.5,0.6c-1.6,0-3.1-0.3-4.4-1
				c-1.3-0.7-2.3-1.7-3-3s-1-2.8-1-4.4c0-1.6,0.3-3.1,1-4.5c0.7-1.4,1.6-2.4,2.9-3.1c1.3-0.7,2.7-1,4.3-1c1.2,0,2.3,0.2,3.2,0.6
				c1,0.4,1.7,0.9,2.3,1.6c0.5,0.7,1,1.6,1.2,2.7l-2,0.5c-0.2-0.8-0.6-1.5-0.9-2s-0.9-0.9-1.6-1.1c-0.7-0.3-1.4-0.4-2.3-0.4
				c-1,0-1.9,0.2-2.6,0.5c-0.7,0.3-1.3,0.7-1.8,1.2c-0.4,0.5-0.8,1-1,1.6c-0.4,1-0.6,2.1-0.6,3.3c0,1.5,0.3,2.7,0.8,3.7
				s1.2,1.7,2.2,2.2c1,0.5,2,0.7,3.1,0.7c0.9,0,1.9-0.2,2.8-0.5c0.9-0.4,1.6-0.7,2-1.2v-3.1H220.5z"/>
			<path fill="#FFFFFF" d="M229.6,137.6c0-2.2,0.6-3.8,1.8-4.9c1-0.9,2.3-1.3,3.7-1.3c1.6,0,3,0.5,4,1.6c1,1.1,1.6,2.6,1.6,4.4
				c0,1.5-0.2,2.7-0.7,3.6c-0.5,0.9-1.1,1.6-2,2c-0.9,0.5-1.8,0.7-2.9,0.7c-1.7,0-3-0.5-4-1.6S229.6,139.6,229.6,137.6z
				 M231.7,137.6c0,1.5,0.3,2.7,1,3.4c0.7,0.8,1.5,1.1,2.5,1.1c1,0,1.8-0.4,2.5-1.1c0.7-0.8,1-1.9,1-3.5c0-1.5-0.3-2.6-1-3.3
				c-0.7-0.8-1.5-1.1-2.5-1.1c-1,0-1.8,0.4-2.5,1.1C232,134.9,231.7,136.1,231.7,137.6z"/>
			<path fill="#FFFFFF" d="M242.4,137.6c0-2.2,0.6-3.8,1.8-4.9c1-0.9,2.3-1.3,3.7-1.3c1.6,0,3,0.5,4,1.6c1,1.1,1.6,2.6,1.6,4.4
				c0,1.5-0.2,2.7-0.7,3.6c-0.5,0.9-1.1,1.6-2,2c-0.9,0.5-1.8,0.7-2.9,0.7c-1.7,0-3-0.5-4-1.6S242.4,139.6,242.4,137.6z
				 M244.5,137.6c0,1.5,0.3,2.7,1,3.4c0.7,0.8,1.5,1.1,2.5,1.1c1,0,1.8-0.4,2.5-1.1c0.7-0.8,1-1.9,1-3.5c0-1.5-0.3-2.6-1-3.3
				c-0.7-0.8-1.5-1.1-2.5-1.1c-1,0-1.8,0.4-2.5,1.1C244.8,134.9,244.5,136.1,244.5,137.6z"/>
			<path fill="#FFFFFF" d="M263.7,143.5V142c-0.8,1.2-1.9,1.8-3.3,1.8c-0.9,0-1.8-0.3-2.6-0.8c-0.8-0.5-1.4-1.3-1.8-2.2
				c-0.4-0.9-0.7-2-0.7-3.2c0-1.2,0.2-2.3,0.6-3.2c0.4-1,1-1.7,1.8-2.2c0.8-0.5,1.7-0.8,2.7-0.8c0.7,0,1.4,0.2,1.9,0.5
				s1,0.7,1.4,1.2v-5.9h2v16.4H263.7z M257.3,137.6c0,1.5,0.3,2.7,1,3.4c0.6,0.8,1.4,1.1,2.3,1.1c0.9,0,1.6-0.4,2.2-1.1
				c0.6-0.7,0.9-1.8,0.9-3.3c0-1.6-0.3-2.8-0.9-3.6c-0.6-0.8-1.4-1.1-2.3-1.1c-0.9,0-1.6,0.4-2.2,1.1S257.3,136,257.3,137.6z"/>
			<path fill="#FFFFFF" d="M279.1,143.5V129h-5.4v-1.9h13v1.9h-5.4v14.5H279.1z"/>
			<path fill="#FFFFFF" d="M294.3,139.7l2.1,0.3c-0.3,1.2-0.9,2.2-1.8,2.8c-0.9,0.7-2,1-3.4,1c-1.7,0-3.1-0.5-4.1-1.6
				c-1-1.1-1.5-2.6-1.5-4.5c0-2,0.5-3.6,1.5-4.7c1-1.1,2.4-1.7,4-1.7c1.6,0,2.9,0.5,3.9,1.6c1,1.1,1.5,2.6,1.5,4.6
				c0,0.1,0,0.3,0,0.5h-8.9c0.1,1.3,0.4,2.3,1.1,3c0.7,0.7,1.5,1,2.5,1c0.7,0,1.4-0.2,1.9-0.6C293.6,141.2,294,140.5,294.3,139.7z
				 M287.7,136.4h6.6c-0.1-1-0.3-1.8-0.8-2.3c-0.6-0.8-1.5-1.2-2.5-1.2c-0.9,0-1.7,0.3-2.3,0.9C288.1,134.6,287.7,135.4,287.7,136.4
				z"/>
			<path fill="#FFFFFF" d="M306.7,142.1c-0.7,0.6-1.5,1.1-2.2,1.3c-0.7,0.3-1.4,0.4-2.2,0.4c-1.3,0-2.3-0.3-3-1
				c-0.7-0.6-1.1-1.5-1.1-2.4c0-0.6,0.1-1.1,0.4-1.6c0.3-0.5,0.6-0.9,1-1.2c0.4-0.3,0.9-0.5,1.5-0.7c0.4-0.1,1-0.2,1.8-0.3
				c1.6-0.2,2.8-0.4,3.6-0.7c0-0.3,0-0.5,0-0.5c0-0.8-0.2-1.4-0.6-1.7c-0.5-0.5-1.3-0.7-2.3-0.7c-0.9,0-1.6,0.2-2.1,0.5
				c-0.5,0.3-0.8,0.9-1,1.8l-2-0.3c0.2-0.8,0.5-1.5,0.9-2s1-0.9,1.8-1.2c0.8-0.3,1.7-0.4,2.7-0.4c1,0,1.8,0.1,2.5,0.4
				c0.6,0.2,1.1,0.5,1.4,0.9s0.5,0.8,0.6,1.4c0.1,0.3,0.1,1,0.1,1.9v2.7c0,1.9,0,3.1,0.1,3.6c0.1,0.5,0.3,1,0.5,1.4h-2.1
				C306.9,143.1,306.7,142.6,306.7,142.1z M306.5,137.6c-0.7,0.3-1.8,0.6-3.3,0.8c-0.8,0.1-1.4,0.3-1.8,0.4s-0.6,0.4-0.8,0.7
				c-0.2,0.3-0.3,0.6-0.3,1c0,0.5,0.2,1,0.6,1.3s1,0.5,1.8,0.5c0.8,0,1.5-0.2,2.1-0.5s1-0.8,1.3-1.4c0.2-0.5,0.3-1.1,0.3-2V137.6z"
				/>
			<path fill="#FFFFFF" d="M326,137.1v-1.9l7,0v6.1c-1.1,0.9-2.2,1.5-3.3,1.9s-2.3,0.6-3.5,0.6c-1.6,0-3.1-0.3-4.4-1
				c-1.3-0.7-2.3-1.7-3-3c-0.7-1.3-1-2.8-1-4.4c0-1.6,0.3-3.1,1-4.5c0.7-1.4,1.6-2.4,2.9-3.1c1.3-0.7,2.7-1,4.3-1
				c1.2,0,2.3,0.2,3.2,0.6c1,0.4,1.7,0.9,2.3,1.6c0.5,0.7,1,1.6,1.2,2.7l-2,0.5c-0.2-0.8-0.6-1.5-0.9-2s-0.9-0.9-1.6-1.1
				c-0.7-0.3-1.4-0.4-2.3-0.4c-1,0-1.9,0.2-2.6,0.5c-0.7,0.3-1.3,0.7-1.8,1.2s-0.8,1-1,1.6c-0.4,1-0.6,2.1-0.6,3.3
				c0,1.5,0.3,2.7,0.8,3.7c0.5,1,1.2,1.7,2.2,2.2s2,0.7,3.1,0.7c0.9,0,1.9-0.2,2.8-0.5c0.9-0.4,1.6-0.7,2-1.2v-3.1H326z"/>
			<path fill="#FFFFFF" d="M335.2,137.6c0-2.2,0.6-3.8,1.8-4.9c1-0.9,2.3-1.3,3.7-1.3c1.6,0,3,0.5,4,1.6c1,1.1,1.6,2.6,1.6,4.4
				c0,1.5-0.2,2.7-0.7,3.6c-0.5,0.9-1.1,1.6-2,2c-0.9,0.5-1.8,0.7-2.9,0.7c-1.7,0-3-0.5-4-1.6S335.2,139.6,335.2,137.6z
				 M337.2,137.6c0,1.5,0.3,2.7,1,3.4c0.7,0.8,1.5,1.1,2.5,1.1c1,0,1.8-0.4,2.5-1.1c0.7-0.8,1-1.9,1-3.5c0-1.5-0.3-2.6-1-3.3
				c-0.7-0.8-1.5-1.1-2.5-1.1c-1,0-1.8,0.4-2.5,1.1C337.6,134.9,337.2,136.1,337.2,137.6z"/>
			<path fill="#FFFFFF" d="M347.9,137.6c0-2.2,0.6-3.8,1.8-4.9c1-0.9,2.3-1.3,3.7-1.3c1.6,0,3,0.5,4,1.6c1,1.1,1.6,2.6,1.6,4.4
				c0,1.5-0.2,2.7-0.7,3.6c-0.5,0.9-1.1,1.6-2,2c-0.9,0.5-1.8,0.7-2.9,0.7c-1.7,0-3-0.5-4-1.6S347.9,139.6,347.9,137.6z M350,137.6
				c0,1.5,0.3,2.7,1,3.4c0.7,0.8,1.5,1.1,2.5,1.1c1,0,1.8-0.4,2.5-1.1c0.7-0.8,1-1.9,1-3.5c0-1.5-0.3-2.6-1-3.3
				c-0.7-0.8-1.5-1.1-2.5-1.1c-1,0-1.8,0.4-2.5,1.1C350.3,134.9,350,136.1,350,137.6z"/>
			<path fill="#FFFFFF" d="M369.2,143.5V142c-0.8,1.2-1.9,1.8-3.3,1.8c-0.9,0-1.8-0.3-2.6-0.8c-0.8-0.5-1.4-1.3-1.8-2.2
				c-0.4-0.9-0.7-2-0.7-3.2c0-1.2,0.2-2.3,0.6-3.2c0.4-1,1-1.7,1.8-2.2c0.8-0.5,1.7-0.8,2.7-0.8c0.7,0,1.4,0.2,1.9,0.5
				s1,0.7,1.4,1.2v-5.9h2v16.4H369.2z M362.8,137.6c0,1.5,0.3,2.7,1,3.4c0.6,0.8,1.4,1.1,2.3,1.1c0.9,0,1.6-0.4,2.2-1.1
				c0.6-0.7,0.9-1.8,0.9-3.3c0-1.6-0.3-2.8-0.9-3.6c-0.6-0.8-1.4-1.1-2.3-1.1c-0.9,0-1.6,0.4-2.2,1.1S362.8,136,362.8,137.6z"/>
			<path fill="#FFFFFF" d="M384.6,143.5V129h-5.4v-1.9h13v1.9h-5.4v14.5H384.6z"/>
			<path fill="#FFFFFF" d="M393.3,129.4v-2.3h2v2.3H393.3z M393.3,143.5v-11.9h2v11.9H393.3z"/>
			<path fill="#FFFFFF" d="M398.4,143.5v-11.9h1.8v1.7c0.4-0.6,0.9-1.1,1.5-1.4c0.6-0.4,1.3-0.5,2.1-0.5c0.9,0,1.6,0.2,2.2,0.5
				s1,0.9,1.2,1.5c0.9-1.4,2.2-2.1,3.7-2.1c1.2,0,2.1,0.3,2.7,1c0.6,0.7,1,1.7,1,3v8.2h-2V136c0-0.8-0.1-1.4-0.2-1.7
				c-0.1-0.4-0.4-0.6-0.7-0.9s-0.7-0.3-1.2-0.3c-0.8,0-1.5,0.3-2.1,0.8s-0.8,1.4-0.8,2.7v6.9h-2v-7.7c0-0.9-0.2-1.6-0.5-2
				c-0.3-0.4-0.9-0.7-1.6-0.7c-0.6,0-1.1,0.1-1.6,0.4c-0.5,0.3-0.8,0.7-1,1.3s-0.3,1.4-0.3,2.5v6.2H398.4z"/>
			<path fill="#FFFFFF" d="M425.7,139.7l2.1,0.3c-0.3,1.2-0.9,2.2-1.8,2.8c-0.9,0.7-2,1-3.4,1c-1.7,0-3.1-0.5-4.1-1.6
				c-1-1.1-1.5-2.6-1.5-4.5c0-2,0.5-3.6,1.5-4.7c1-1.1,2.4-1.7,4-1.7c1.6,0,2.9,0.5,3.9,1.6c1,1.1,1.5,2.6,1.5,4.6
				c0,0.1,0,0.3,0,0.5H419c0.1,1.3,0.4,2.3,1.1,3c0.7,0.7,1.5,1,2.5,1c0.7,0,1.4-0.2,1.9-0.6C425,141.2,425.4,140.5,425.7,139.7z
				 M419.1,136.4h6.6c-0.1-1-0.3-1.8-0.8-2.3c-0.6-0.8-1.5-1.2-2.5-1.2c-0.9,0-1.7,0.3-2.3,0.9C419.5,134.6,419.1,135.4,419.1,136.4
				z"/>
		</g>
	</g>
	<g>
		<path fill="#53642D" d="M63.6,23.8c0,0,9.7-9.1,20.3-4.6s16.2,5.6,18.3,5.1c0.2,0,1.3-0.3,0.3,0.5c0,0-6.9,5.4-17.8,5.9
			c-10.8,0.5-12.4-0.1-14.2-0.5c-1.7-0.3-7.4-1.4-9.6,0.1C58.7,32,50.1,43.3,48.4,45.8c-1.7,2.5-3,4.5-3.3,5c-0.4,0.5-0.7,0.8-0.9,1
			c-0.2,0.2-0.3-0.6-0.1-0.9s6-9.8,6.9-11.1c0.9-1.3,3.5-4.7,3.6-5.1c0.2-0.3,0.5-6.1,0.5-8.7s-0.7-10.2-4.4-13.7
			C46.9,9,44,7.2,33.1,11.3s-18.3,11-21.3,20.8c-1.3,4.8-1.6,3.7-2,9c-0.3,4.5-0.2,5.1-0.2,5.3c0,0.2-0.1,0.6-0.4,0.9
			c0,0,1.5,7.4,0.6,10.7c-0.9,3.3-2.2,5.4-5.3,5C1.5,62.8,0,60.3,0,58.7c0-1.6,1.8-5.6,3.6-6.7c1.9-1.1,3.8-2.5,4.5-5.2
			c0.1-0.5,0.6-1.2,0-2.7c-0.2-0.6-0.1-1.4-0.5-2.3c-0.3-0.9-0.9-3-1.3-3.6c-0.4-0.7-2.2-3.5-2.6-7S0.8,19.7,4.6,12.4
			s11.8-7.5,15-7.8c0,0,7.3-4.6,18-4.6s14.7,6,16.9,11.2c2.2,5.2,1.7,13.3,1.7,15.1c0,0.4-0.7,6-0.7,6.3c0,0.4-0.1,0.9,0.2,0.2
			s4.1-5.4,4.9-6.4C61.4,25.4,62.9,24.4,63.6,23.8z"/>
		<path fill="#798D40" d="M19.6,4.6C16.4,4.9,8.4,5,4.6,12.4S3.3,27.8,3.7,31.2s2.2,6.3,2.6,7c0.4,0.6,0.8,2.2,1.2,3.2
			c0-0.2,0-0.4-0.1-0.6C3,10.4,19.6,4.6,19.6,4.6z"/>
	</g>
	<g>
		<g>
			<g>
				<path fill="#FFFFFF" d="M108.9,50.3c0,0,1.9,2,4.3-0.4c2.4-2.4,3.4-6.2,2.1-8.1c-1.3-1.9-4-5.5-11.3-6s-35.5,4.9-57.8,41.6
					c-2.9,5-6.4,15.3-5.5,19.5c0.9,4.1,3.1,12.8,21.2,10.9S95.6,100.6,105,96c1-0.5,4.2-3.1,3.7-6.9c-0.3-2-2.6-3.2-4.1-2.9
					s-17,6.5-18.6,7.2s-8.8,3.4-12.4,3.9c-3.6,0.5-12,0.6-13.1,0.5c-1.1-0.1-8-2.5-4.4-9.9s10.6-19,22-28.7S99.7,47.9,102,48
					C104.3,48.1,107.5,48.9,108.9,50.3z"/>
			</g>
			<g>
				<path fill="#FFFFFF" d="M141.5,43.4c0,0,5.7-9.7,12.4-7.1c0.9,0.4,4.2,3,2.2,6.2c-2,3.2-1.7,2.4-2.4,3.4
					c-0.7,1.1-8.7,13.3-12.2,21.2c-3.5,7.9-6.3,14.5-7.7,19.2c-0.3,0.9-0.6,1.7-0.6,1.8c0,0-0.1,0.5,0.2,0.3
					c1.5-0.9,7.7-5.1,11.7-8.3c4.6-3.7,12.7-3.7,16.4,2.5c0.1,0.2,1.1,1.3,1.8,2.4s2.3,4.7,2.4,8.3c0,3.6,0.6,7.5,0.9,8.5
					c0.3,1,0.3,4.2-0.3,5.6s-2,2.6-3.6,2.5s-3.8-0.8-5-4.6c-1.2-3.8-2-8-2.9-10.5s-2.3-6.4-4.6-6.5c-2.3-0.1-7.2,5-8,5.5
					c-0.8,0.5-11.8,11.6-17.5,11.3c-2.2-0.2-4.4-0.1-4.3-7.9c0.1-7.7,5.2-19.8,5.8-21.2c0.5-1.4,5.6-14.1,8.3-19.6
					C137.2,51.1,138.4,47.4,141.5,43.4z"/>
			</g>
			<g>
				<path fill="#FFFFFF" d="M201.6,83.5c0,0,1.5,3,5,2.1c0.5-0.1,3.2,0.4,4.6-2.9c1.4-3.3,1.4-5.7,0.8-7.7s-2.2-5.9-7.7-5.8
					s-8.7,2.3-10.6,3.5c-1.9,1.1-8.1,5.8-10,7.5c-1.9,1.8-7.2,7.6-8.9,10.7c-1.7,3.1-3.9,8.2-3.9,9.8c0,1.6-0.9,3.9,2.8,5.8
					c3.7,1.9,11.8-0.6,15.2-3.5c3.3-2.9,7.3-5.6,9.6-5.4c2.3,0.2,2.8,0.6,5.5,2.8c2.6,2.2,10.2,6.4,11.7,6.7s5,0.4,6.2,0.3
					c1.2-0.1,2.8-1.5,2.1-4.6c-0.7-3-0.7-3.4-3.8-4.5s-7.3-2.5-9.8-4.8c-2.6-2.3-3.9-4-5.8-5.5c-1.9-1.5-3.9-2.9-8.4-0.3
					c-0.5,0.2-3.7,2-4.7,2.9c-1,1-2.9,1.9-3.4,2.1c-0.5,0.2-2.5,1-2.9,1.4c-0.1,0.2-0.5-0.1-0.1-0.7s3.8-4.1,4.1-4.5s2.1-2,3.2-3
					c1.1-0.9,3.7-3,4.9-3.2c1.2-0.2,1.6-0.3,2.5-0.2C200.7,82.8,201.2,82.9,201.6,83.5z"/>
			</g>
			<g>
				<path fill="#FFFFFF" d="M267.1,35.9c0,0,2.9-0.1,4.3,2.6c0.3,0.6,0.5,2-0.3,3.7c-0.8,1.8-0.8,1.5-1.2,2.1
					c-0.4,0.5-3.1,4.4-4.3,6c-1.2,1.6-2.5,3.3-3,4.2c-0.6,0.9-1.8,2.6-1.9,2.8c-0.1,0.2-0.2,0.5,0.3,0.4s4.8-0.7,6-0.7
					c1.1,0,3,0.2,3.3,0.4c0.3,0.2,1.6,2.5,1.8,3.2s0,2.3-2.4,3.7c-0.5,0.3-3.6,1.1-5.9,1.6s-6.3,1.6-7.1,1.7
					c-0.8,0.1-1.4,0.3-1.8,1.1c-0.5,0.8-1.4,2.5-2.2,3.6s-5.4,10.6-6,16.7c-0.1,1.3,0,3.8,0.1,4.4c0.1,0.6,1.1,2.6,2.4,2.7
					c1.3,0.1,3.6-0.1,4.9-0.8c1.3-0.7,5.2-3.7,6-4.3c0.7-0.6,2.1-2.3,3.6-2.1c1.5,0.2,3,1.4,2.8,3.1c-0.2,1.6-0.9,3.3-2.4,4.8
					c-1.5,1.5-4.8,3.9-5.4,4.3c-0.6,0.4-5.3,4.5-12.1,4.5c-6.8,0-11.6-5-11.6-11.7c0-6.7,1-9.8,2.4-13.4s2.9-7.5,3.1-8
					s0.8-1-0.4-0.7C238.7,72,231,74,229.5,74c-1.5,0-4.8,0-5.2-4.7c-0.1-1.6,0.4-4.8,6.5-6.8s13.2-2.4,14.7-2.8s1.1,0,2.2-1.4
					c1.1-1.5,5-7.7,7.4-11.2C257.3,43.6,262,35.7,267.1,35.9z"/>
			</g>
			<g>
				<path fill="#FFFFFF" d="M292.4,64.7c0,0,1.9-2.1,4.2-2c2.3,0.2,4.7,1.6,5.7,4.4c1,2.7,0.8,3.6,0.4,4.8c-0.5,1.2-2.5,3.2-4.4,6
					c-2,2.7-4,7-4.8,8.5c-0.8,1.5-2.8,8.3-3.3,10.8s-1,4.5-1.3,5.5c-0.3,1-1.7,4.3-4.1,4.1c-2.4-0.2-4.8-1.9-4.8-5.9
					c0-4,0.1-5.2,0.3-6.3c0.3-1.1,3.3-13.1,4.4-15.4C285.9,77,289.8,67.2,292.4,64.7z"/>
			</g>
			<path fill="#FFFFFF" d="M308.4,41c0,0,4.1-0.4,5.7,4.2s-0.2,7.8-0.7,8.2c-0.5,0.4-3.2,2.8-5.8,1.7c-2.6-1.1-3.2-2.4-3.9-4.4
				s-1.6-5.9,1.1-8.3C305.3,42.1,306.3,41,308.4,41z"/>
			<g>
				<path fill="#FFFFFF" d="M326,69.6c0,0,1.5-1.8,4.2-1.4c2.8,0.3,4.3,1.7,4.1,4.9c0,0.9-0.1,2-0.7,3.3c-0.7,1.3-2.8,5.2-3,5.8
					c-0.3,0.5-0.8,2.1,0.2,1.7c1-0.4,3.1-1.7,4.2-2.8c1.1-1.1,8.5-8.5,13.9-10.1c0.7-0.2,1.9-1.2,4.5-1s5.7,0.8,7.6,3.5
					c0.5,0.7,1,1.6,1,4.2c0.1,2.6,0.7,2.8,1.5,2.1c0.8-0.7,2.4-2.2,4.3-3.1c1.8-1,3.5-2.1,4.7-2.4c1.2-0.3,5.9-1.3,8.3,1.9
					c2.4,3.2,4.6,10.6,2,18.2c-2.6,7.6-5.4,8.9-7.6,8.4c-2.2-0.5-2.8-1.8-2.3-6s0.3-8.8-0.2-10.1c-0.5-1.3-2.1-1.5-4,0.1
					c-1.9,1.6-2.1,1.7-2.7,2.2c-0.7,0.5-3.1,3.3-3.5,4.1c-0.4,0.8-3.9,6.9-7.5,7.4s-6.1-3.7-5.6-7.1c0.5-3.4,1.7-9.2,1.6-10.7
					c-0.1-1.5-0.1-2-1-1.5c-1,0.5-8.3,6-9.7,7.3c-1.3,1.3-9.1,9.3-10.5,10.4c-1.4,1.1-5,4.7-8.1,5.3s-4.1,0.3-4.8,0
					s-3.5-0.6-2.8-7.1c0.1-1.3,0-2.4,1.1-5.7c1-3.3,5.6-13.9,6.3-15.5C322.2,74.4,324.9,70.5,326,69.6z"/>
			</g>
			<g>
				<g>
					<path fill="#FFFFFF" d="M428,66.6c-7.6-1.9-12.4,0.9-14.3,1.9c-2,1-2.8,1.4-3.7,1.9c-7.7,4.7-11.1,8.9-13.1,10.7
						c-2,1.8-7.5,10.4-6,16.8c1.7,5.9,5.2,7.1,9,8.3c3.8,1.2,8.1,0.2,13.6-1c5.5-1.2,10.7-4.8,11.2-5c0.5-0.2,2.5-2.7,1.2-4.5
						c-1.3-1.8-4.1-1.3-4.1-1.3c-0.4,0-1.3,0.5-2.5,1c-1.2,0.5-2.6,1.3-5.3,2c-2.7,0.7-3.2,1-3.7,1.1c-2.1,0.4-4.6,0.4-5.2,0.2
						c-3.9-1.4-1.8-4.1-1.8-4.1c0.1,0,0.5,0,1,0c3.1,0,5.1-0.5,9.4-1.9c4.4-1.4,11.2-5.2,16.7-11.5C435.9,74.9,435.6,68.5,428,66.6z
						 M422.1,75.9c-0.5,0.5-1.6,2.1-2.8,2.8c-1.2,0.7-1.8,1.4-3.4,2.2s-4.5,2.3-5,2.4c-0.4,0.1-0.5,0.1-0.4,0l0.1-0.2
						c0,0,1.3-2,4.3-4.1c3-2.1,6.5-3.2,7-3.3C422.2,75.4,422.6,75.3,422.1,75.9z"/>
				</g>
			</g>
		</g>
	</g>
</g>
</svg>
